<svg xmlns="http://www.w3.org/2000/svg" width="512" height="512" viewBox="0 0 512 512">
<g>
<path d="M 225.16,18.10 L 226.69,18.19 L 229.85,18.76 L 231.45,19.11 L 234.78,20.19 L 239.97,22.39 L 240.77,22.78 L 242.19,23.43 L 242.87,23.75 L 244.10,24.26 L 245.29,24.75 L 247.37,25.36 L 248.41,25.61 L 250.58,25.87 L 254.50,26.00 L 256.03,26.00 L 258.44,25.87 L 259.59,25.78 L 261.63,25.35 L 262.66,25.09 L 264.88,24.23 L 265.48,23.98 L 266.79,23.38 L 269.03,22.29 L 269.88,21.87 L 271.35,21.16 L 272.06,20.83 L 273.31,20.29 L 274.52,19.78 L 276.66,19.17 L 277.75,18.91 L 280.19,18.67 L 280.85,18.63 L 282.37,18.58 L 285.00,18.55 L 286.23,18.55 L 288.37,18.60 L 289.39,18.63 L 291.19,18.80 L 292.06,18.90 L 293.62,19.23 L 294.39,19.41 L 295.83,19.94 L 296.55,20.24 L 297.97,21.02 L 298.68,21.44 L 300.19,22.51 L 300.96,23.08 L 302.65,24.49 L 305.51,27.01 L 306.80,28.18 L 309.19,30.15 L 310.36,31.08 L 312.60,32.59 L 313.72,33.30 L 315.97,34.39 L 317.11,34.89 L 319.51,35.59 L 320.74,35.90 L 323.43,36.26 L 324.83,36.40 L 327.94,36.44 L 329.57,36.43 L 333.26,36.19 L 339.59,35.56 L 341.00,35.40 L 343.31,35.23 L 344.40,35.17 L 346.28,35.24 L 347.20,35.31 L 348.95,35.63 L 351.77,36.42 L 353.31,36.93 L 356.54,38.68 L 358.14,39.65 L 361.22,42.07 L 362.71,43.34 L 365.28,46.12 L 368.15,50.37 L 368.82,51.72 L 370.66,54.44 L 371.65,55.79 L 373.95,58.35 L 375.13,59.58 L 377.64,61.71 L 381.40,64.18 L 381.93,64.46 L 383.60,65.07 L 384.51,65.37 L 386.71,65.99 L 394.02,67.50 L 395.26,67.69 L 397.48,68.08 L 398.55,68.28 L 400.47,68.71 L 402.32,69.16 L 405.37,70.31 L 406.82,70.94 L 409.42,72.59 L 413.33,75.86 L 414.52,76.98 L 416.46,79.27 L 417.37,80.43 L 418.84,82.93 L 419.52,84.23 L 420.61,87.13 L 421.93,92.13 L 422.20,93.46 L 422.98,96.00 L 423.41,97.24 L 424.49,99.60 L 425.07,100.75 L 426.43,102.91 L 427.15,103.97 L 428.80,105.93 L 429.65,106.88 L 431.57,108.62 L 432.56,109.47 L 434.73,110.99 L 435.85,111.72 L 438.28,113.01 L 442.19,114.66 L 443.82,115.24 L 447.17,117.14 L 448.82,118.18 L 451.97,120.78 L 453.48,122.13 L 456.10,125.13 L 459.05,129.74 L 459.52,130.72 L 460.21,132.56 L 460.52,133.50 L 460.93,135.59 L 461.11,136.71 L 461.32,139.51 L 461.36,140.28 L 461.42,142.02 L 461.48,145.00 L 461.51,146.78 L 461.65,149.88 L 461.73,151.36 L 462.05,153.97 L 462.23,155.22 L 462.78,157.49 L 463.09,158.59 L 463.95,160.65 L 464.42,161.67 L 465.65,163.67 L 466.32,164.68 L 467.99,166.76 L 468.88,167.82 L 471.05,170.12 L 474.95,173.98 L 475.91,174.90 L 477.54,176.50 L 478.31,177.26 L 479.61,178.60 L 480.23,179.24 L 481.25,180.39 L 481.73,180.94 L 482.52,181.95 L 483.27,182.95 L 484.26,184.81 L 485.40,187.93 L 485.95,189.79 L 486.59,192.87 L 486.84,194.37 L 486.85,197.23 L 486.78,198.70 L 486.13,202.00 L 485.93,202.89 L 485.39,204.85 L 484.38,208.18 L 483.88,209.77 L 483.15,212.43 L 482.83,213.69 L 482.43,215.89 L 482.27,216.96 L 482.15,218.97 L 482.27,222.05 L 482.33,222.72 L 482.61,224.24 L 482.77,225.03 L 483.21,226.70 L 483.69,228.38 L 484.99,231.78 L 485.66,233.42 L 487.10,236.12 L 487.46,236.72 L 488.14,237.65 L 489.08,238.55 L 489.24,238.65 L 489.71,239.23 L 489.96,239.57 L 490.58,240.55 L 492.59,244.37 L 493.42,246.16 L 494.46,250.17 L 494.88,252.22 L 495.08,256.50 L 495.08,258.64 L 494.46,262.83 L 492.59,268.63 L 491.94,270.04 L 490.58,272.45 L 490.26,272.98 L 489.71,273.77 L 489.08,274.45 L 488.79,274.63 L 488.14,275.35 L 487.81,275.76 L 487.10,276.88 L 486.40,278.07 L 484.99,281.22 L 484.31,282.86 L 483.21,286.30 L 482.97,287.15 L 482.61,288.76 L 482.27,290.95 L 482.17,292.02 L 482.15,294.03 L 482.18,295.03 L 482.43,297.11 L 482.59,298.18 L 483.15,300.57 L 484.38,304.82 L 484.76,306.02 L 485.39,308.15 L 485.68,309.17 L 486.13,311.00 L 486.54,312.77 L 486.85,315.77 L 486.93,317.24 L 486.59,320.13 L 485.40,325.07 L 485.05,326.24 L 484.26,328.19 L 483.81,329.14 L 482.51,331.04 L 482.14,331.54 L 481.24,332.61 L 480.76,333.16 L 479.60,334.39 L 478.99,335.03 L 477.53,336.49 L 474.94,339.00 L 473.50,340.39 L 471.05,342.85 L 469.90,344.04 L 467.98,346.21 L 467.09,347.27 L 465.65,349.30 L 464.98,350.30 L 463.94,352.32 L 463.47,353.34 L 462.76,355.49 L 462.45,356.59 L 462.02,359.02 L 461.83,360.28 L 461.61,363.12 L 461.43,368.00 L 461.40,369.80 L 461.25,372.91 L 461.16,374.38 L 460.89,376.87 L 460.74,378.04 L 460.35,379.96 L 459.60,382.27 L 458.88,383.93 L 456.92,386.98 L 455.85,388.46 L 453.19,391.15 L 451.77,392.46 L 448.38,394.84 L 442.44,398.07 L 440.82,398.83 L 437.92,400.33 L 436.53,401.09 L 434.08,402.63 L 432.90,403.41 L 430.85,405.04 L 429.87,405.87 L 428.19,407.62 L 427.38,408.52 L 426.02,410.44 L 425.37,411.43 L 424.29,413.57 L 423.78,414.67 L 422.94,417.08 L 421.91,421.02 L 421.53,422.83 L 420.59,425.96 L 420.07,427.46 L 418.80,430.12 L 418.12,431.41 L 416.43,433.77 L 413.33,437.14 L 411.98,438.43 L 409.45,440.40 L 408.17,441.30 L 405.44,442.66 L 404.00,443.28 L 400.58,444.23 L 399.66,444.45 L 397.61,444.85 L 394.16,445.42 L 391.77,445.78 L 386.85,446.94 L 385.70,447.25 L 383.71,447.88 L 381.48,448.78 L 380.27,449.40 L 377.78,451.20 L 376.53,452.18 L 374.09,454.56 L 372.89,455.82 L 370.64,458.63 L 367.67,463.17 L 366.93,464.47 L 365.24,466.83 L 364.36,467.97 L 362.41,470.00 L 361.40,470.97 L 359.23,472.66 L 358.11,473.45 L 355.74,474.78 L 354.52,475.39 L 351.98,476.34 L 350.69,476.76 L 348.01,477.32 L 346.65,477.55 L 343.85,477.70 L 339.57,477.45 L 337.35,477.15 L 333.43,476.76 L 331.55,476.59 L 328.21,476.48 L 326.60,476.46 L 323.72,476.67 L 322.31,476.81 L 319.74,477.37 L 318.48,477.70 L 316.08,478.65 L 314.89,479.18 L 312.53,480.56 L 311.35,481.30 L 308.90,483.13 L 304.98,486.44 L 303.60,487.67 L 300.88,489.73 L 299.53,490.69 L 296.83,492.21 L 295.48,492.90 L 292.75,493.88 L 291.38,494.31 L 288.56,494.77 L 287.13,494.93 L 284.17,494.87 L 282.67,494.77 L 279.52,494.20 L 277.92,493.84 L 274.52,492.76 L 269.10,490.56 L 267.64,489.90 L 264.96,488.83 L 263.65,488.33 L 261.21,487.58 L 260.01,487.25 L 257.73,486.84 L 256.60,486.67 L 254.40,486.58 L 253.30,486.58 L 251.11,486.82 L 250.00,486.98 L 247.73,487.55 L 246.58,487.88 L 244.16,488.77 L 240.28,490.49 L 238.24,491.47 L 233.97,492.96 L 231.84,493.62 L 227.63,494.45 L 225.57,494.77 L 221.79,494.86 L 220.89,494.84 L 219.23,494.64 L 218.42,494.52 L 216.99,494.13 L 215.76,493.72 L 213.40,492.69 L 212.22,492.14 L 209.86,490.72 L 208.66,489.96 L 206.11,488.04 L 201.90,484.49 L 200.86,483.56 L 198.87,481.97 L 197.89,481.22 L 196.02,479.98 L 195.09,479.41 L 193.31,478.50 L 190.69,477.50 L 189.17,477.05 L 186.65,476.47 L 185.42,476.24 L 183.02,476.09 L 181.77,476.06 L 178.86,476.32 L 178.08,476.41 L 176.31,476.66 L 173.27,477.16 L 171.44,477.47 L 168.05,477.77 L 166.39,477.87 L 163.29,477.72 L 161.78,477.59 L 158.93,476.97 L 157.54,476.60 L 154.90,475.49 L 153.60,474.87 L 151.11,473.24 L 149.88,472.35 L 147.50,470.18 L 146.31,469.02 L 143.98,466.28 L 140.50,461.51 L 139.53,460.06 L 137.75,457.57 L 136.87,456.39 L 135.21,454.38 L 134.38,453.44 L 132.72,451.85 L 131.88,451.10 L 130.13,449.87 L 129.23,449.29 L 127.28,448.34 L 126.27,447.90 L 124.01,447.16 L 122.83,446.81 L 120.16,446.23 L 115.58,445.44 L 114.24,445.24 L 111.57,444.75 L 110.26,444.50 L 107.85,443.96 L 106.71,443.69 L 104.84,443.17 L 102.94,442.47 L 101.98,441.97 L 100.13,440.78 L 99.23,440.16 L 97.51,438.73 L 95.83,437.26 L 92.95,433.75 L 91.61,431.93 L 89.54,427.91 L 89.08,426.88 L 88.35,424.78 L 87.56,421.57 L 87.32,420.28 L 86.58,417.76 L 86.17,416.52 L 85.09,414.12 L 84.51,412.94 L 83.13,410.70 L 82.39,409.60 L 80.72,407.54 L 79.85,406.53 L 77.90,404.67 L 76.90,403.77 L 74.72,402.14 L 73.60,401.36 L 71.20,399.99 L 67.38,398.26 L 65.55,397.57 L 62.27,395.90 L 60.70,395.02 L 57.91,392.96 L 56.58,391.88 L 54.26,389.42 L 51.31,385.26 L 50.71,384.24 L 49.86,382.44 L 49.48,381.52 L 48.96,379.40 L 48.85,378.82 L 48.65,377.48 L 48.56,376.77 L 48.40,375.12 L 48.33,374.25 L 48.19,372.20 L 47.99,368.58 L 47.88,366.50 L 47.61,362.92 L 47.46,361.22 L 47.07,358.28 L 46.84,356.88 L 46.24,354.43 L 45.91,353.25 L 45.03,351.14 L 44.56,350.12 L 43.34,348.20 L 42.68,347.25 L 41.06,345.37 L 40.19,344.42 L 38.08,342.44 L 34.30,339.17 L 32.92,338.02 L 30.53,335.61 L 29.40,334.39 L 27.50,331.82 L 26.61,330.52 L 25.21,327.82 L 24.57,326.44 L 23.66,323.59 L 23.27,322.15 L 22.86,319.15 L 22.72,317.64 L 22.80,314.50 L 22.91,312.92 L 23.49,309.65 L 24.93,304.59 L 25.58,302.73 L 26.41,298.76 L 26.75,296.76 L 26.94,292.79 L 26.96,290.84 L 26.51,287.20 L 25.11,282.50 L 24.86,281.95 L 24.11,280.53 L 23.71,279.78 L 22.75,278.12 L 19.67,273.20 L 18.64,271.68 L 17.04,268.85 L 16.32,267.46 L 15.29,264.73 L 14.84,263.36 L 14.31,260.51 L 14.01,255.90 L 14.00,254.36 L 14.32,251.59 L 14.54,250.23 L 15.39,247.55 L 15.90,246.20 L 17.43,243.26 L 17.87,242.49 L 18.88,240.85 L 20.64,238.17 L 21.50,236.91 L 22.95,234.45 L 23.64,233.22 L 24.75,230.81 L 25.26,229.61 L 26.03,227.22 L 26.37,226.03 L 26.80,223.63 L 26.98,222.43 L 27.07,220.00 L 27.08,218.77 L 26.85,216.28 L 26.70,215.02 L 26.14,212.43 L 24.95,208.41 L 24.65,207.53 L 24.12,205.54 L 23.87,204.52 L 23.47,202.37 L 22.89,196.14 L 22.89,194.99 L 23.04,192.84 L 23.14,191.79 L 23.52,189.79 L 23.74,188.80 L 24.38,186.90 L 24.73,185.96 L 25.65,184.11 L 26.14,183.19 L 27.37,181.34 L 28.02,180.42 L 29.58,178.53 L 30.40,177.58 L 32.32,175.60 L 35.63,172.48 L 36.90,171.34 L 39.04,169.30 L 40.06,168.31 L 41.74,166.45 L 42.52,165.54 L 43.80,163.73 L 44.39,162.82 L 45.33,160.91 L 45.76,159.93 L 46.42,157.79 L 46.72,156.67 L 47.17,154.14 L 47.37,152.81 L 47.66,149.76 L 48.01,144.42 L 48.07,143.08 L 48.20,140.80 L 48.27,139.72 L 48.41,137.88 L 48.49,137.01 L 48.66,135.52 L 48.75,134.82 L 48.96,133.60 L 49.19,132.44 L 49.85,130.57 L 51.29,127.77 L 52.18,126.25 L 54.11,123.69 L 55.14,122.47 L 57.58,120.32 L 58.90,119.27 L 62.19,117.24 L 63.08,116.73 L 65.08,115.70 L 68.44,114.07 L 69.87,113.41 L 72.47,112.00 L 73.73,111.29 L 75.99,109.76 L 77.08,108.98 L 79.02,107.32 L 79.95,106.47 L 81.58,104.66 L 82.36,103.73 L 83.70,101.74 L 84.33,100.72 L 85.39,98.54 L 85.89,97.43 L 86.69,95.05 L 87.60,91.23 L 87.80,90.09 L 88.45,87.85 L 88.81,86.74 L 89.74,84.58 L 90.24,83.51 L 91.43,81.46 L 92.06,80.45 L 93.48,78.55 L 94.22,77.62 L 95.85,75.89 L 96.69,75.05 L 98.49,73.54 L 99.42,72.81 L 101.37,71.55 L 104.45,69.97 L 105.01,69.73 L 106.52,69.24 L 107.32,69.00 L 109.15,68.54 L 114.77,67.56 L 116.41,67.39 L 119.35,66.93 L 120.77,66.67 L 123.34,66.02 L 124.58,65.66 L 126.84,64.77 L 127.94,64.28 L 129.97,63.11 L 130.97,62.48 L 132.83,60.97 L 133.75,60.17 L 135.53,58.29 L 136.41,57.30 L 138.17,55.00 L 140.86,51.03 L 141.93,49.35 L 144.10,46.41 L 145.20,45.02 L 147.46,42.64 L 148.61,41.52 L 151.01,39.67 L 152.23,38.82 L 154.81,37.49 L 156.12,36.89 L 158.93,36.05 L 160.36,35.70 L 163.44,35.33 L 165.02,35.21 L 168.41,35.30 L 173.91,35.92 L 175.60,36.20 L 178.65,36.54 L 180.14,36.68 L 182.86,36.73 L 184.19,36.71 L 186.66,36.44 L 187.88,36.26 L 190.19,35.64 L 191.34,35.28 L 193.58,34.28 L 194.70,33.73 L 196.96,32.32 L 198.10,31.57 L 200.46,29.73 L 204.20,26.46 L 205.51,25.25 L 208.17,23.22 L 209.50,22.27 L 212.22,20.77 L 213.58,20.08 L 216.38,19.10 L 217.79,18.67 L 220.68,18.21 L 222.14,18.04 M 251.27,54.50 L 241.83,54.98 L 238.39,55.24 L 231.70,55.95 L 228.38,56.34 L 221.93,57.32 L 218.72,57.85 L 212.46,59.12 L 209.34,59.79 L 203.22,61.35 L 200.17,62.17 L 194.15,64.03 L 191.15,65.01 L 185.18,67.19 L 182.20,68.33 L 176.25,70.84 L 167.30,75.00 L 162.14,77.53 L 152.29,83.10 L 147.45,85.97 L 138.23,92.22 L 133.70,95.43 L 125.12,102.34 L 120.91,105.87 L 112.98,113.43 L 109.10,117.29 L 101.83,125.48 L 98.28,129.66 L 91.69,138.48 L 88.48,142.97 L 82.57,152.41 L 74.49,167.24 L 72.71,170.86 L 69.50,178.05 L 67.96,181.65 L 65.23,188.83 L 63.92,192.43 L 61.67,199.65 L 60.59,203.27 L 58.79,210.58 L 57.95,214.25 L 56.59,221.71 L 55.97,225.45 L 55.05,233.10 L 54.64,236.95 L 54.14,244.84 L 53.85,257.00 L 53.85,260.27 L 54.09,266.76 L 54.24,270.00 L 54.76,276.41 L 55.06,279.61 L 55.88,285.94 L 56.33,289.10 L 57.44,295.35 L 58.03,298.46 L 59.43,304.62 L 60.17,307.69 L 61.85,313.75 L 62.73,316.77 L 64.70,322.73 L 65.72,325.69 L 67.97,331.55 L 69.13,334.46 L 71.66,340.20 L 72.96,343.05 L 75.77,348.67 L 77.21,351.46 L 80.30,356.96 L 81.87,359.69 L 85.23,365.05 L 86.94,367.71 L 90.57,372.94 L 92.42,375.54 L 96.32,380.62 L 98.30,383.15 L 102.46,388.09 L 109.00,395.32 L 111.83,398.31 L 117.70,403.98 L 120.67,406.76 L 126.81,412.03 L 129.92,414.61 L 136.32,419.46 L 139.56,421.84 L 146.20,426.28 L 149.56,428.45 L 156.43,432.46 L 159.89,434.42 L 166.98,438.01 L 170.54,439.75 L 177.82,442.91 L 181.48,444.43 L 188.93,447.15 L 192.67,448.46 L 200.28,450.73 L 204.10,451.81 L 211.85,453.63 L 215.74,454.49 L 223.61,455.85 L 227.56,456.48 L 235.54,457.38 L 239.54,457.77 L 247.61,458.20 L 251.65,458.36 L 259.79,458.32 L 263.87,458.24 L 272.07,457.72 L 276.17,457.39 L 284.40,456.38 L 288.59,455.81 L 296.96,454.21 L 301.13,453.34 L 309.45,451.17 L 313.59,450.02 L 321.81,447.29 L 325.90,445.86 L 333.97,442.59 L 337.99,440.89 L 345.89,437.10 L 349.81,435.14 L 357.49,430.84 L 361.30,428.63 L 368.72,423.85 L 379.50,416.14 L 380.56,415.33 L 383.05,413.27 L 384.34,412.17 L 387.19,409.64 L 388.64,408.33 L 391.70,405.47 L 393.25,404.01 L 396.37,400.98 L 397.93,399.45 L 400.97,396.38 L 402.47,394.85 L 405.29,391.89 L 406.65,390.44 L 409.09,387.73 L 412.17,384.12 L 415.79,379.62 L 422.40,370.32 L 425.59,365.63 L 431.33,355.98 L 434.09,351.12 L 438.96,341.16 L 441.29,336.15 L 445.30,325.94 L 447.19,320.81 L 450.33,310.39 L 451.79,305.16 L 454.06,294.57 L 455.08,289.27 L 456.48,278.57 L 457.07,273.21 L 457.60,262.45 L 457.75,257.07 L 457.41,246.30 L 457.12,240.91 L 455.90,230.17 L 455.18,224.80 L 453.08,214.14 L 451.92,208.82 L 448.95,198.29 L 447.35,193.04 L 443.49,182.68 L 441.46,177.53 L 436.72,167.39 L 434.24,162.36 L 428.63,152.50 L 419.21,138.07 L 418.23,136.68 L 415.84,133.60 L 414.59,132.02 L 411.76,128.64 L 410.30,126.92 L 407.16,123.38 L 405.57,121.61 L 402.25,118.04 L 400.57,116.27 L 397.20,112.82 L 395.52,111.12 L 392.21,107.91 L 390.58,106.36 L 387.49,103.54 L 383.21,99.90 L 380.67,97.85 L 375.48,93.96 L 372.86,92.05 L 367.53,88.42 L 364.85,86.64 L 359.39,83.28 L 356.64,81.64 L 351.05,78.55 L 348.25,77.04 L 342.55,74.23 L 339.69,72.85 L 333.89,70.32 L 330.98,69.08 L 325.09,66.82 L 322.14,65.73 L 316.16,63.75 L 313.17,62.80 L 307.12,61.11 L 304.09,60.30 L 297.98,58.90 L 294.92,58.24 L 288.75,57.13 L 285.66,56.61 L 279.45,55.80 L 276.34,55.43 L 270.10,54.91 L 266.97,54.69 L 260.70,54.48 L 257.56,54.41 M 259.00,75.17 L 262.05,75.24 L 268.17,75.57 L 271.22,75.77 L 277.23,76.35 L 280.21,76.67 L 285.98,77.50 L 294.22,79.03 L 298.66,79.98 L 307.37,82.39 L 311.69,83.68 L 320.13,86.73 L 324.31,88.33 L 332.46,92.00 L 336.49,93.91 L 344.32,98.16 L 348.19,100.35 L 355.67,105.15 L 359.36,107.62 L 366.46,112.95 L 369.96,115.68 L 376.65,121.50 L 379.95,124.47 L 386.21,130.75 L 389.28,133.95 L 395.08,140.67 L 397.92,144.09 L 403.23,151.22 L 405.82,154.83 L 410.60,162.33 L 412.93,166.13 L 417.17,173.98 L 419.22,177.95 L 422.88,186.12 L 424.64,190.24 L 427.70,198.69 L 429.15,202.96 L 431.57,211.67 L 434.47,225.00 L 434.76,226.63 L 435.26,230.39 L 435.50,232.34 L 435.90,236.62 L 436.09,238.81 L 436.38,243.42 L 436.51,245.75 L 436.69,250.50 L 436.77,252.87 L 436.82,257.57 L 436.84,259.90 L 436.77,264.37 L 436.72,266.56 L 436.52,270.61 L 436.07,276.01 L 435.45,281.45 L 433.56,292.05 L 432.51,297.31 L 429.78,307.53 L 428.31,312.60 L 424.74,322.43 L 422.85,327.29 L 418.44,336.72 L 416.13,341.38 L 410.89,350.39 L 408.17,354.85 L 402.11,363.43 L 398.98,367.66 L 392.10,375.80 L 380.87,387.50 L 379.51,388.81 L 376.99,391.17 L 375.76,392.31 L 373.44,394.40 L 371.14,396.44 L 366.77,399.98 L 364.55,401.72 L 359.81,405.07 L 358.56,405.93 L 355.89,407.69 L 351.50,410.50 L 348.64,412.30 L 342.79,415.64 L 339.85,417.26 L 333.83,420.26 L 330.81,421.71 L 324.64,424.36 L 321.53,425.64 L 315.22,427.94 L 312.04,429.05 L 305.58,431.00 L 302.33,431.93 L 295.74,433.52 L 292.43,434.27 L 285.71,435.51 L 275.50,436.95 L 274.45,437.07 L 271.79,437.28 L 270.38,437.38 L 267.15,437.53 L 263.82,437.68 L 256.43,437.81 L 254.59,437.83 L 251.01,437.83 L 249.25,437.82 L 245.99,437.76 L 244.42,437.72 L 241.71,437.60 L 240.45,437.53 L 238.50,437.35 L 233.67,436.79 L 224.30,435.24 L 219.66,434.39 L 210.66,432.26 L 206.20,431.12 L 197.55,428.40 L 193.27,426.97 L 184.94,423.65 L 180.82,421.91 L 172.81,417.99 L 168.85,415.95 L 161.13,411.42 L 157.31,409.07 L 149.87,403.91 L 139.00,395.47 L 136.05,393.01 L 130.42,387.83 L 127.65,385.20 L 122.39,379.69 L 119.81,376.91 L 114.93,371.10 L 112.53,368.17 L 108.04,362.09 L 105.85,359.02 L 101.75,352.69 L 99.75,349.50 L 96.07,342.94 L 94.27,339.63 L 91.00,332.87 L 89.42,329.46 L 86.57,322.51 L 85.20,319.02 L 82.78,311.91 L 81.63,308.34 L 79.65,301.09 L 78.72,297.45 L 77.20,290.09 L 76.50,286.39 L 75.43,278.94 L 74.96,275.20 L 74.37,267.68 L 74.13,263.91 L 74.02,256.35 L 74.02,252.56 L 74.39,244.97 L 75.51,233.58 L 76.16,228.61 L 78.03,218.89 L 79.06,214.07 L 81.65,204.67 L 83.04,200.00 L 86.34,190.93 L 88.08,186.44 L 92.05,177.74 L 94.12,173.44 L 98.74,165.13 L 101.13,161.03 L 106.36,153.15 L 109.06,149.26 L 114.89,141.84 L 117.87,138.18 L 124.26,131.24 L 127.53,127.83 L 134.45,121.40 L 137.98,118.25 L 145.41,112.36 L 149.19,109.49 L 157.10,104.17 L 161.11,101.59 L 169.47,96.87 L 173.71,94.59 L 182.49,90.50 L 186.94,88.53 L 196.12,85.10 L 200.76,83.47 L 210.30,80.73 L 225.01,77.42 L 227.45,76.97 L 232.72,76.27 L 235.40,75.95 L 241.08,75.51 L 243.95,75.33 L 249.90,75.15 L 252.90,75.09 M 176.79,270.24 L 172.04,270.66 L 169.89,271.07 L 165.73,272.01 L 163.86,272.68 L 160.26,274.16 L 158.67,275.11 L 155.61,277.15 L 154.27,278.38 L 151.72,280.99 L 150.62,282.52 L 148.55,285.72 L 147.68,287.55 L 146.06,291.36 L 145.40,293.50 L 144.20,298.73 L 143.58,302.82 L 143.37,305.07 L 143.00,309.70 L 142.91,312.13 L 142.78,317.07 L 142.81,319.56 L 142.93,324.55 L 143.08,326.98 L 143.43,331.78 L 143.70,334.02 L 144.29,338.38 L 144.67,340.31 L 145.50,343.99 L 145.99,345.48 L 147.68,349.61 L 149.06,352.17 L 149.87,353.36 L 151.56,355.67 L 152.52,356.72 L 154.52,358.76 L 155.62,359.67 L 157.90,361.42 L 159.15,362.18 L 161.70,363.64 L 163.07,364.24 L 165.87,365.38 L 167.36,365.83 L 170.40,366.65 L 172.00,366.93 L 173.85,367.20 L 174.88,367.30 L 177.02,367.45 L 178.16,367.49 L 182.87,367.51 L 185.27,367.37 L 190.04,366.98 L 192.18,366.64 L 194.26,366.28 L 195.19,366.07 L 196.97,365.63 L 197.71,365.38 L 202.41,363.43 L 205.23,361.88 L 206.50,360.97 L 208.93,359.04 L 210.00,357.93 L 212.06,355.60 L 212.96,354.28 L 214.68,351.51 L 215.42,349.94 L 216.81,346.70 L 217.40,344.89 L 218.49,341.13 L 218.94,339.05 L 219.76,334.75 L 220.08,332.38 L 220.70,325.92 L 220.90,321.48 L 220.90,319.25 L 220.84,314.77 L 220.71,312.56 L 220.38,308.17 L 220.13,306.05 L 219.57,301.87 L 219.20,299.90 L 218.41,296.05 L 217.94,294.30 L 216.94,290.91 L 216.37,289.44 L 215.18,286.64 L 214.51,285.50 L 212.09,281.82 L 210.36,279.66 L 209.42,278.71 L 207.50,276.92 L 206.45,276.15 L 204.29,274.69 L 203.11,274.08 L 200.66,272.95 L 199.32,272.49 L 196.55,271.65 L 195.02,271.33 L 191.88,270.76 L 190.15,270.57 L 186.58,270.26 L 184.63,270.18 M 237.00,271.00 L 237.00,317.83 L 237.01,327.25 L 237.04,333.25 L 237.05,336.07 L 237.09,341.57 L 237.11,344.09 L 237.17,348.95 L 237.20,351.11 L 237.26,355.21 L 237.29,356.93 L 237.37,360.15 L 237.41,361.38 L 237.45,362.54 L 237.47,363.02 L 237.51,363.91 L 237.53,364.24 L 237.58,364.84 L 237.60,365.02 L 237.64,365.31 L 237.67,365.33 L 238.11,365.51 L 238.66,365.59 L 239.97,365.74 L 240.88,365.80 L 242.84,365.91 L 243.99,365.95 L 246.38,366.00 L 257.00,366.00 L 257.00,333.00 L 290.00,333.00 L 290.00,316.00 L 257.00,316.00 L 257.00,288.00 L 298.00,288.00 L 298.00,271.00 M 311.00,271.00 L 311.00,317.83 L 311.01,327.26 L 311.04,333.26 L 311.06,336.07 L 311.09,341.57 L 311.12,344.09 L 311.17,348.96 L 311.21,351.12 L 311.27,355.23 L 311.31,356.95 L 311.39,360.17 L 311.43,361.40 L 311.47,362.57 L 311.49,363.05 L 311.54,363.94 L 311.56,364.27 L 311.61,364.87 L 311.63,365.05 L 311.68,365.34 L 311.70,365.37 L 312.14,365.55 L 312.69,365.62 L 313.97,365.74 L 314.85,365.78 L 316.77,365.84 L 317.88,365.84 L 320.21,365.82 L 321.45,365.78 L 330.50,365.50 L 331.05,333.00 L 364.00,333.00 L 364.00,316.00 L 331.00,316.00 L 331.00,288.00 L 372.00,288.00 L 372.00,271.00 M 182.18,286.72 L 186.15,286.89 L 187.85,287.23 L 189.49,287.61 L 190.17,287.87 L 191.44,288.42 L 191.89,288.75 L 194.18,290.76 L 195.52,292.29 L 196.10,293.16 L 197.20,294.97 L 197.67,296.01 L 198.56,298.16 L 198.92,299.37 L 199.59,301.89 L 199.86,303.31 L 200.34,306.25 L 200.50,307.89 L 200.80,311.28 L 200.88,313.16 L 201.00,317.05 L 201.00,319.20 L 200.87,325.01 L 200.65,328.56 L 200.47,330.17 L 200.07,333.28 L 199.80,334.69 L 199.22,337.39 L 198.85,338.59 L 198.08,340.88 L 197.63,341.88 L 196.66,343.78 L 196.11,344.59 L 194.95,346.11 L 194.30,346.73 L 192.95,347.88 L 192.19,348.32 L 189.82,349.43 L 188.36,349.81 L 185.29,350.43 L 183.66,350.55 L 180.38,350.66 L 178.84,350.50 L 175.86,350.05 L 174.66,349.60 L 171.79,348.30 L 170.11,347.27 L 169.38,346.65 L 168.00,345.34 L 167.41,344.57 L 166.29,342.93 L 165.82,341.97 L 164.93,339.94 L 164.56,338.76 L 163.88,336.28 L 163.61,334.85 L 163.10,331.87 L 162.91,330.16 L 162.55,326.61 L 162.41,324.60 L 162.18,317.98 L 162.23,313.81 L 162.37,311.86 L 162.71,308.05 L 162.98,306.30 L 163.58,302.88 L 163.98,301.34 L 164.85,298.36 L 165.38,297.05 L 166.50,294.54 L 167.15,293.48 L 168.51,291.48 L 169.27,290.68 L 170.86,289.22 L 171.74,288.71 L 173.78,287.83 L 175.41,287.37 L 176.32,287.21 L 180.18,286.71 M 344.57,146.15 L 344.46,146.43 L 344.31,146.86 L 344.19,147.19 L 343.93,147.92 L 343.77,148.40 L 343.42,149.42 L 343.21,150.03 L 342.77,151.33 L 342.52,152.07 L 341.99,153.62 L 341.70,154.49 L 340.45,158.18 L 339.72,160.35 L 338.20,164.89 L 337.35,167.43 L 335.59,172.68 L 334.64,175.53 L 332.70,181.36 L 331.67,184.45 L 329.57,190.73 L 328.49,194.00 L 325.31,203.57 L 323.28,209.67 L 322.33,212.53 L 320.46,218.14 L 319.61,220.71 L 317.95,225.68 L 317.22,227.88 L 315.82,232.09 L 315.23,233.86 L 314.65,235.58 L 314.40,236.35 L 313.91,237.81 L 313.69,238.45 L 313.29,239.66 L 313.12,240.16 L 312.81,241.09 L 312.69,241.45 L 312.48,242.08 L 312.41,242.28 L 312.30,242.61 L 312.29,242.64 L 312.46,243.21 L 312.90,243.66 L 313.26,243.90 L 314.05,244.39 L 314.54,244.63 L 315.59,245.10 L 316.18,245.31 L 318.55,246.08 L 319.51,246.32 L 320.40,246.52 L 320.73,246.57 L 321.31,246.64 L 321.44,246.60 L 321.62,246.33 L 321.82,245.90 L 321.96,245.57 L 322.26,244.82 L 322.45,244.34 L 322.85,243.30 L 323.08,242.68 L 323.57,241.36 L 323.85,240.60 L 324.42,239.02 L 324.74,238.14 L 326.08,234.37 L 326.86,232.16 L 328.48,227.52 L 329.38,224.92 L 331.23,219.55 L 332.22,216.64 L 334.25,210.67 L 335.31,207.51 L 337.47,201.08 L 338.59,197.74 L 354.81,149.10 L 349.84,147.45 L 347.89,146.83 L 346.72,146.50 L 346.24,146.38 L 345.37,146.18 L 345.08,146.14 L 344.61,146.10 M 353.69,204.39 L 349.93,204.63 L 348.30,205.00 L 346.72,205.41 L 346.05,205.68 L 344.79,206.26 L 344.32,206.60 L 341.58,209.16 L 340.12,211.13 L 339.55,212.28 L 338.53,214.69 L 338.17,216.09 L 337.55,219.02 L 337.37,220.72 L 337.15,224.91 L 337.23,227.56 L 337.38,228.79 L 337.76,231.20 L 338.05,232.31 L 338.71,234.47 L 339.15,235.45 L 340.08,237.34 L 340.65,238.17 L 341.86,239.76 L 342.56,240.44 L 344.02,241.71 L 344.84,242.22 L 346.56,243.16 L 347.50,243.50 L 350.90,244.50 L 352.51,244.67 L 355.67,244.80 L 357.15,244.54 L 360.04,243.79 L 361.38,243.10 L 363.97,241.48 L 365.15,240.35 L 367.53,237.41 L 368.72,235.12 L 369.13,233.76 L 369.84,230.89 L 370.02,229.18 L 370.29,225.57 L 370.28,223.44 L 369.78,217.75 L 369.01,214.36 L 368.42,212.90 L 367.09,210.15 L 366.23,209.03 L 364.39,206.99 L 363.28,206.26 L 361.46,205.40 L 359.98,204.96 L 359.14,204.81 L 355.57,204.36 M 253.12,149.36 L 250.01,149.66 L 248.44,149.94 L 241.85,151.57 L 237.96,153.07 L 236.25,154.05 L 232.99,156.15 L 231.59,157.45 L 228.92,160.21 L 227.79,161.85 L 225.68,165.32 L 224.82,167.34 L 223.24,171.57 L 222.62,173.99 L 221.52,179.03 L 221.14,181.88 L 220.49,187.79 L 220.32,191.08 L 220.13,197.04 L 220.14,200.83 L 220.21,202.63 L 220.39,206.18 L 220.55,207.86 L 220.91,211.17 L 221.16,212.73 L 221.70,215.80 L 222.03,217.24 L 222.75,220.07 L 223.17,221.40 L 224.07,223.99 L 224.58,225.20 L 225.65,227.56 L 226.26,228.65 L 227.51,230.77 L 228.21,231.75 L 229.64,233.64 L 230.43,234.50 L 232.05,236.16 L 232.92,236.90 L 234.72,238.34 L 235.69,238.97 L 237.67,240.17 L 238.73,240.69 L 240.90,241.67 L 242.05,242.07 L 244.41,242.82 L 245.65,243.11 L 248.19,243.64 L 249.53,243.82 L 252.88,244.20 L 254.48,244.28 L 257.63,244.36 L 259.12,244.28 L 262.07,244.06 L 263.46,243.83 L 266.20,243.31 L 267.49,242.93 L 270.01,242.10 L 271.20,241.58 L 273.52,240.45 L 274.60,239.78 L 276.71,238.35 L 277.68,237.53 L 279.58,235.81 L 280.45,234.83 L 282.14,232.82 L 282.90,231.70 L 284.37,229.39 L 285.03,228.12 L 286.28,225.52 L 286.83,224.11 L 287.87,221.21 L 288.31,219.65 L 289.14,216.46 L 289.47,214.76 L 290.08,211.29 L 290.30,209.44 L 290.69,205.67 L 290.80,203.68 L 290.97,199.63 L 290.98,197.50 L 290.83,190.31 L 290.57,185.91 L 290.36,183.88 L 289.89,179.95 L 289.57,178.14 L 288.86,174.65 L 288.42,173.05 L 287.48,169.95 L 286.91,168.54 L 285.72,165.80 L 285.02,164.56 L 283.57,162.14 L 282.74,161.05 L 281.02,158.92 L 280.05,157.95 L 277.13,155.44 L 274.99,153.98 L 273.83,153.34 L 271.46,152.15 L 270.20,151.66 L 267.62,150.76 L 266.26,150.41 L 263.51,149.80 L 262.07,149.60 L 259.17,149.29 L 257.68,149.25 L 254.66,149.24 M 179.56,151.00 L 164.27,161.15 L 159.44,164.37 L 156.81,166.14 L 155.77,166.86 L 153.85,168.21 L 153.12,168.75 L 151.81,169.75 L 151.35,170.15 L 150.56,170.90 L 150.33,171.20 L 149.97,171.76 L 149.91,172.01 L 150.00,172.91 L 150.32,173.40 L 151.06,174.59 L 151.71,175.66 L 152.08,176.28 L 153.67,178.94 L 154.43,180.25 L 155.57,182.09 L 156.32,183.17 L 156.65,183.60 L 157.29,184.38 L 157.54,184.63 L 157.99,185.00 L 158.12,185.00 L 159.13,184.57 L 160.36,183.88 L 161.19,183.38 L 162.97,182.29 L 164.00,181.64 L 166.14,180.26 L 167.27,179.50 L 170.56,177.36 L 172.58,176.11 L 173.44,175.62 L 175.04,174.71 L 175.60,174.43 L 176.57,174.00 L 176.74,174.00 L 177.08,174.37 L 177.27,175.02 L 177.35,175.58 L 177.51,176.87 L 177.57,177.78 L 177.69,179.79 L 177.74,181.10 L 177.83,183.93 L 177.86,185.69 L 177.92,189.44 L 177.94,191.69 L 177.96,194.01 L 177.97,195.27 L 177.98,197.85 L 177.99,199.25 L 177.99,202.11 L 178.00,203.65 L 178.00,206.81 L 178.00,243.00 L 197.00,243.00 L 197.00,151.00 M 354.99,216.39 L 355.57,217.02 L 355.81,217.48 L 356.27,218.50 L 356.45,219.12 L 356.77,220.42 L 356.87,221.15 L 357.12,224.25 L 356.99,225.86 L 356.55,229.06 L 356.02,230.43 L 355.40,231.72 L 355.01,232.14 L 354.18,232.81 L 353.76,232.91 L 352.91,232.93 L 352.54,232.69 L 351.84,232.02 L 351.61,231.42 L 351.37,230.38 L 351.23,229.36 L 351.18,228.73 L 351.00,225.97 L 351.00,224.50 L 351.03,222.25 L 351.09,220.96 L 351.14,220.41 L 351.40,218.45 L 351.63,217.79 L 352.16,216.69 L 352.55,216.41 L 353.41,216.00 L 353.99,216.00 M 257.89,165.96 L 259.11,166.26 L 261.53,167.06 L 262.65,167.72 L 264.82,169.22 L 265.76,170.24 L 267.53,172.46 L 268.21,173.84 L 269.46,176.86 L 269.76,177.90 L 269.87,178.50 L 270.08,179.76 L 270.15,180.52 L 270.29,182.13 L 270.34,183.11 L 270.42,185.22 L 270.44,186.50 L 270.48,189.24 L 270.49,190.90 L 270.50,194.41 L 270.50,196.50 L 270.49,201.99 L 270.46,205.05 L 270.44,206.33 L 270.38,208.74 L 270.33,209.73 L 270.23,211.59 L 270.16,212.37 L 269.99,213.82 L 269.89,214.44 L 269.65,215.61 L 269.51,216.13 L 268.83,218.11 L 268.34,219.17 L 266.07,222.95 L 265.21,224.05 L 264.79,224.49 L 263.98,225.28 L 263.63,225.51 L 262.03,226.41 L 261.16,226.73 L 259.37,227.27 L 258.44,227.40 L 256.54,227.59 L 255.58,227.56 L 253.67,227.40 L 252.73,227.21 L 250.88,226.74 L 250.00,226.39 L 248.30,225.62 L 247.53,225.13 L 246.05,224.08 L 245.43,223.46 L 244.28,222.14 L 243.85,221.39 L 243.03,219.64 L 242.53,218.25 L 242.31,217.46 L 241.47,214.04 L 241.14,212.03 L 240.56,207.83 L 240.37,205.56 L 240.05,200.93 L 240.00,198.56 L 239.95,193.80 L 240.04,191.49 L 240.27,186.94 L 240.50,184.85 L 241.02,180.82 L 241.39,179.12 L 241.78,177.47 L 242.01,176.74 L 242.47,175.36 L 242.74,174.78 L 245.09,171.00 L 247.02,168.99 L 248.12,168.25 L 250.41,166.94 L 251.62,166.54 L 254.10,165.92 L 255.36,165.88 M 313.48,150.50 L 310.95,150.52 L 309.54,150.55 L 308.94,150.57 L 306.83,150.73 L 306.07,150.91 L 304.71,151.32 L 304.15,151.66 L 303.06,152.44 L 302.45,153.00 L 299.90,155.96 L 298.64,158.18 L 298.21,159.50 L 297.48,162.27 L 297.28,163.94 L 297.12,165.67 L 297.07,166.62 L 297.00,168.58 L 297.00,169.65 L 297.11,173.21 L 297.31,175.37 L 297.46,176.34 L 297.82,178.23 L 298.06,179.09 L 298.59,180.73 L 298.92,181.46 L 299.64,182.88 L 300.07,183.51 L 300.97,184.72 L 301.50,185.26 L 302.61,186.29 L 303.24,186.74 L 304.56,187.60 L 305.30,187.98 L 308.11,189.13 L 309.68,189.43 L 312.89,189.84 L 314.49,189.78 L 317.66,189.48 L 319.08,189.07 L 320.47,188.61 L 321.09,188.32 L 322.28,187.69 L 322.79,187.31 L 326.03,184.28 L 327.58,182.03 L 328.09,180.67 L 328.56,179.25 L 328.74,178.47 L 329.06,176.83 L 329.17,175.92 L 329.36,174.02 L 329.41,172.95 L 329.47,170.74 L 329.47,169.50 L 329.40,166.20 L 329.29,164.24 L 329.20,163.37 L 329.00,161.70 L 328.85,160.96 L 328.53,159.53 L 328.33,158.88 L 327.37,156.48 L 326.65,155.45 L 325.07,153.47 L 324.00,152.50 L 322.55,151.49 L 321.41,151.02 L 320.64,150.88 L 318.94,150.64 L 317.78,150.58 L 316.55,150.53 L 315.84,150.52 L 314.34,150.50 M 314.61,161.45 L 315.22,162.25 L 315.42,162.95 L 315.77,164.55 L 315.87,165.69 L 315.95,166.90 L 315.97,167.60 L 316.00,169.06 L 316.00,169.89 L 315.93,172.33 L 315.80,173.34 L 315.48,175.22 L 315.26,175.94 L 314.76,177.24 L 314.47,177.66 L 313.87,178.36 L 313.55,178.48 L 312.89,178.55 L 312.57,178.34 L 311.94,177.77 L 311.65,177.23 L 311.10,175.98 L 310.88,175.09 L 310.47,173.15 L 310.35,171.91 L 310.26,167.71 L 310.53,165.23 L 310.80,164.23 L 311.44,162.43 L 311.88,161.87 L 312.33,161.37 L 312.58,161.23 L 313.09,161.00 L 313.37,161.00 Z" fill="rgba(232,26,35,1)"/>
<path d="M 172.00,366.93 L 170.40,366.65 L 167.36,365.83 L 165.87,365.38 L 163.07,364.24 L 161.70,363.64 L 159.15,362.18 L 157.90,361.42 L 155.62,359.67 L 154.52,358.76 L 152.52,356.72 L 151.56,355.67 L 149.87,353.36 L 149.06,352.17 L 147.68,349.61 L 145.99,345.48 L 145.50,343.99 L 144.67,340.31 L 144.29,338.38 L 143.70,334.02 L 143.43,331.78 L 143.08,326.98 L 142.93,324.55 L 142.81,319.56 L 142.78,317.07 L 142.91,312.13 L 143.00,309.70 L 143.37,305.07 L 143.58,302.82 L 144.20,298.73 L 145.40,293.50 L 146.06,291.36 L 147.68,287.55 L 148.55,285.72 L 150.62,282.52 L 151.72,280.99 L 154.27,278.38 L 155.61,277.15 L 158.67,275.11 L 160.26,274.16 L 163.86,272.68 L 165.73,272.01 L 169.89,271.07 L 172.04,270.66 L 176.79,270.24 L 184.63,270.18 L 186.58,270.26 L 190.15,270.57 L 191.88,270.76 L 195.02,271.33 L 196.55,271.65 L 199.32,272.49 L 200.66,272.95 L 203.11,274.08 L 204.29,274.69 L 206.45,276.15 L 207.50,276.92 L 209.42,278.71 L 210.36,279.66 L 212.09,281.82 L 214.51,285.50 L 215.18,286.64 L 216.37,289.44 L 216.94,290.91 L 217.94,294.30 L 218.41,296.05 L 219.20,299.90 L 219.57,301.87 L 220.13,306.05 L 220.38,308.17 L 220.71,312.56 L 220.84,314.77 L 220.90,319.25 L 220.90,321.48 L 220.70,325.92 L 220.08,332.38 L 219.76,334.75 L 218.94,339.05 L 218.49,341.13 L 217.40,344.89 L 216.81,346.70 L 215.42,349.94 L 214.68,351.51 L 212.96,354.28 L 212.06,355.60 L 210.00,357.93 L 208.93,359.04 L 206.50,360.97 L 205.23,361.88 L 202.41,363.43 L 197.71,365.38 L 196.97,365.63 L 195.19,366.07 L 194.26,366.28 L 192.18,366.64 L 190.04,366.98 L 185.27,367.37 L 182.87,367.51 L 178.16,367.49 L 177.02,367.45 L 174.88,367.30 L 173.85,367.20 M 192.19,348.32 L 192.95,347.88 L 194.30,346.73 L 194.95,346.11 L 196.11,344.59 L 196.66,343.78 L 197.63,341.88 L 198.08,340.88 L 198.85,338.59 L 199.22,337.39 L 199.80,334.69 L 200.07,333.28 L 200.47,330.17 L 200.65,328.56 L 200.87,325.01 L 201.00,319.20 L 201.00,317.05 L 200.88,313.16 L 200.80,311.28 L 200.50,307.89 L 200.34,306.25 L 199.86,303.31 L 199.59,301.89 L 198.92,299.37 L 198.56,298.16 L 197.67,296.01 L 197.20,294.97 L 196.10,293.16 L 195.52,292.29 L 194.18,290.76 L 191.89,288.75 L 191.44,288.42 L 190.17,287.87 L 189.49,287.61 L 187.85,287.23 L 186.15,286.89 L 182.18,286.72 L 180.18,286.71 L 176.32,287.21 L 175.41,287.37 L 173.78,287.83 L 171.74,288.71 L 170.86,289.22 L 169.27,290.68 L 168.51,291.48 L 167.15,293.48 L 166.50,294.54 L 165.38,297.05 L 164.85,298.36 L 163.98,301.34 L 163.58,302.88 L 162.98,306.30 L 162.71,308.05 L 162.37,311.86 L 162.23,313.81 L 162.18,317.98 L 162.41,324.60 L 162.55,326.61 L 162.91,330.16 L 163.10,331.87 L 163.61,334.85 L 163.88,336.28 L 164.56,338.76 L 164.93,339.94 L 165.82,341.97 L 166.29,342.93 L 167.41,344.57 L 168.00,345.34 L 169.38,346.65 L 170.11,347.27 L 171.79,348.30 L 174.66,349.60 L 175.86,350.05 L 178.84,350.50 L 180.38,350.66 L 183.66,350.55 L 185.29,350.43 L 188.36,349.81 L 189.82,349.43 M 237.67,365.33 L 237.64,365.31 L 237.60,365.02 L 237.58,364.84 L 237.53,364.24 L 237.51,363.91 L 237.47,363.02 L 237.45,362.54 L 237.41,361.38 L 237.37,360.15 L 237.29,356.93 L 237.26,355.21 L 237.20,351.11 L 237.17,348.95 L 237.11,344.09 L 237.09,341.57 L 237.05,336.07 L 237.04,333.25 L 237.01,327.25 L 237.00,317.83 L 237.00,271.00 L 267.50,271.00 L 298.00,271.00 L 298.00,279.50 L 298.00,288.00 L 277.50,288.00 L 257.00,288.00 L 257.00,302.00 L 257.00,316.00 L 273.50,316.00 L 290.00,316.00 L 290.00,324.50 L 290.00,333.00 L 273.50,333.00 L 257.00,333.00 L 257.00,349.50 L 257.00,366.00 L 247.67,366.00 L 246.38,366.00 L 243.99,365.95 L 242.84,365.91 L 240.88,365.80 L 239.97,365.74 L 238.66,365.59 L 238.11,365.51 M 311.70,365.37 L 311.68,365.34 L 311.63,365.05 L 311.61,364.87 L 311.56,364.27 L 311.54,363.94 L 311.49,363.05 L 311.47,362.57 L 311.43,361.40 L 311.39,360.17 L 311.31,356.95 L 311.27,355.23 L 311.21,351.12 L 311.17,348.96 L 311.12,344.09 L 311.09,341.57 L 311.06,336.07 L 311.04,333.26 L 311.01,327.26 L 311.00,317.83 L 311.00,271.00 L 341.50,271.00 L 372.00,271.00 L 372.00,279.50 L 372.00,288.00 L 351.50,288.00 L 331.00,288.00 L 331.00,302.00 L 331.00,316.00 L 347.50,316.00 L 364.00,316.00 L 364.00,324.50 L 364.00,333.00 L 347.52,333.00 L 331.05,333.00 L 330.77,349.25 L 330.50,365.50 L 321.45,365.78 L 320.21,365.82 L 317.88,365.84 L 316.77,365.84 L 314.85,365.78 L 313.97,365.74 L 312.69,365.62 L 312.14,365.55 M 316.18,245.31 L 315.59,245.10 L 314.54,244.63 L 314.05,244.39 L 313.26,243.90 L 312.90,243.66 L 312.46,243.21 L 312.29,242.64 L 312.30,242.61 L 312.41,242.28 L 312.48,242.08 L 312.69,241.45 L 312.81,241.09 L 313.12,240.16 L 313.29,239.66 L 313.69,238.45 L 313.91,237.81 L 314.40,236.35 L 314.65,235.58 L 315.23,233.86 L 315.82,232.09 L 317.22,227.88 L 317.95,225.68 L 319.61,220.71 L 320.46,218.14 L 322.33,212.53 L 323.28,209.67 L 325.31,203.57 L 328.49,194.00 L 329.57,190.73 L 331.67,184.45 L 332.70,181.36 L 334.64,175.53 L 335.59,172.68 L 337.35,167.43 L 338.20,164.89 L 339.72,160.35 L 340.45,158.18 L 341.70,154.49 L 341.99,153.62 L 342.52,152.07 L 342.77,151.33 L 343.21,150.03 L 343.42,149.42 L 343.77,148.40 L 343.93,147.92 L 344.19,147.19 L 344.31,146.86 L 344.46,146.43 L 344.57,146.15 L 344.61,146.10 L 345.08,146.14 L 345.37,146.18 L 346.24,146.38 L 346.72,146.50 L 347.89,146.83 L 349.84,147.45 L 354.81,149.10 L 338.59,197.74 L 337.47,201.08 L 335.31,207.51 L 334.25,210.67 L 332.22,216.64 L 331.23,219.55 L 329.38,224.92 L 328.48,227.52 L 326.86,232.16 L 326.08,234.37 L 324.74,238.14 L 324.42,239.02 L 323.85,240.60 L 323.57,241.36 L 323.08,242.68 L 322.85,243.30 L 322.45,244.34 L 322.26,244.82 L 321.96,245.57 L 321.82,245.90 L 321.62,246.33 L 321.44,246.60 L 321.31,246.64 L 320.73,246.57 L 320.40,246.52 L 319.51,246.32 L 318.55,246.08 M 249.53,243.82 L 248.19,243.64 L 245.65,243.11 L 244.41,242.82 L 242.05,242.07 L 240.90,241.67 L 238.73,240.69 L 237.67,240.17 L 235.69,238.97 L 234.72,238.34 L 232.92,236.90 L 232.05,236.16 L 230.43,234.50 L 229.64,233.64 L 228.21,231.75 L 227.51,230.77 L 226.26,228.65 L 225.65,227.56 L 224.58,225.20 L 224.07,223.99 L 223.17,221.40 L 222.75,220.07 L 222.03,217.24 L 221.70,215.80 L 221.16,212.73 L 220.91,211.17 L 220.55,207.86 L 220.39,206.18 L 220.21,202.63 L 220.14,200.83 L 220.13,197.04 L 220.32,191.08 L 220.49,187.79 L 221.14,181.88 L 221.52,179.03 L 222.62,173.99 L 223.24,171.57 L 224.82,167.34 L 225.68,165.32 L 227.79,161.85 L 228.92,160.21 L 231.59,157.45 L 232.99,156.15 L 236.25,154.05 L 237.96,153.07 L 241.85,151.57 L 248.44,149.94 L 250.01,149.66 L 253.12,149.36 L 254.66,149.24 L 257.68,149.25 L 259.17,149.29 L 262.07,149.60 L 263.51,149.80 L 266.26,150.41 L 267.62,150.76 L 270.20,151.66 L 271.46,152.15 L 273.83,153.34 L 274.99,153.98 L 277.13,155.44 L 280.05,157.95 L 281.02,158.92 L 282.74,161.05 L 283.57,162.14 L 285.02,164.56 L 285.72,165.80 L 286.91,168.54 L 287.48,169.95 L 288.42,173.05 L 288.86,174.65 L 289.57,178.14 L 289.89,179.95 L 290.36,183.88 L 290.57,185.91 L 290.83,190.31 L 290.98,197.50 L 290.97,199.63 L 290.80,203.68 L 290.69,205.67 L 290.30,209.44 L 290.08,211.29 L 289.47,214.76 L 289.14,216.46 L 288.31,219.65 L 287.87,221.21 L 286.83,224.11 L 286.28,225.52 L 285.03,228.12 L 284.37,229.39 L 282.90,231.70 L 282.14,232.82 L 280.45,234.83 L 279.58,235.81 L 277.68,237.53 L 276.71,238.35 L 274.60,239.78 L 273.52,240.45 L 271.20,241.58 L 270.01,242.10 L 267.49,242.93 L 266.20,243.31 L 263.46,243.83 L 262.07,244.06 L 259.12,244.28 L 257.63,244.36 L 254.48,244.28 L 252.88,244.20 M 263.63,225.51 L 263.98,225.28 L 264.79,224.49 L 265.21,224.05 L 266.07,222.95 L 268.34,219.17 L 268.83,218.11 L 269.51,216.13 L 269.65,215.61 L 269.89,214.44 L 269.99,213.82 L 270.16,212.37 L 270.23,211.59 L 270.33,209.73 L 270.38,208.74 L 270.44,206.33 L 270.46,205.05 L 270.49,201.99 L 270.50,196.50 L 270.50,194.41 L 270.49,190.90 L 270.48,189.24 L 270.44,186.50 L 270.42,185.22 L 270.34,183.11 L 270.29,182.13 L 270.15,180.52 L 270.08,179.76 L 269.87,178.50 L 269.76,177.90 L 269.46,176.86 L 268.21,173.84 L 267.53,172.46 L 265.76,170.24 L 264.82,169.22 L 262.65,167.72 L 261.53,167.06 L 259.11,166.26 L 257.89,165.96 L 255.36,165.88 L 254.10,165.92 L 251.62,166.54 L 250.41,166.94 L 248.12,168.25 L 247.02,168.99 L 245.09,171.00 L 242.74,174.78 L 242.47,175.36 L 242.01,176.74 L 241.78,177.47 L 241.39,179.12 L 241.02,180.82 L 240.50,184.85 L 240.27,186.94 L 240.04,191.49 L 239.95,193.80 L 240.00,198.56 L 240.05,200.93 L 240.37,205.56 L 240.56,207.83 L 241.14,212.03 L 241.47,214.04 L 242.31,217.46 L 242.53,218.25 L 243.03,219.64 L 243.85,221.39 L 244.28,222.14 L 245.43,223.46 L 246.05,224.08 L 247.53,225.13 L 248.30,225.62 L 250.00,226.39 L 250.88,226.74 L 252.73,227.21 L 253.67,227.40 L 255.58,227.56 L 256.54,227.59 L 258.44,227.40 L 259.37,227.27 L 261.16,226.73 L 262.03,226.41 M 347.50,243.50 L 346.56,243.16 L 344.84,242.22 L 344.02,241.71 L 342.56,240.44 L 341.86,239.76 L 340.65,238.17 L 340.08,237.34 L 339.15,235.45 L 338.71,234.47 L 338.05,232.31 L 337.76,231.20 L 337.38,228.79 L 337.23,227.56 L 337.15,224.91 L 337.37,220.72 L 337.55,219.02 L 338.17,216.09 L 338.53,214.69 L 339.55,212.28 L 340.12,211.13 L 341.58,209.16 L 344.32,206.60 L 344.79,206.26 L 346.05,205.68 L 346.72,205.41 L 348.30,205.00 L 349.93,204.63 L 353.69,204.39 L 355.57,204.36 L 359.14,204.81 L 359.98,204.96 L 361.46,205.40 L 363.28,206.26 L 364.39,206.99 L 366.23,209.03 L 367.09,210.15 L 368.42,212.90 L 369.01,214.36 L 369.78,217.75 L 370.28,223.44 L 370.29,225.57 L 370.02,229.18 L 369.84,230.89 L 369.13,233.76 L 368.72,235.12 L 367.53,237.41 L 365.15,240.35 L 363.97,241.48 L 361.38,243.10 L 360.04,243.79 L 357.15,244.54 L 355.67,244.80 L 352.51,244.67 L 350.90,244.50 M 356.02,230.43 L 356.55,229.06 L 356.99,225.86 L 357.12,224.25 L 356.87,221.15 L 356.77,220.42 L 356.45,219.12 L 356.27,218.50 L 355.81,217.48 L 355.57,217.02 L 354.99,216.39 L 353.99,216.00 L 353.41,216.00 L 352.55,216.41 L 352.16,216.69 L 351.63,217.79 L 351.40,218.45 L 351.14,220.41 L 351.09,220.96 L 351.03,222.25 L 351.00,224.50 L 351.00,225.97 L 351.18,228.73 L 351.23,229.36 L 351.37,230.38 L 351.61,231.42 L 351.84,232.02 L 352.54,232.69 L 352.91,232.93 L 353.76,232.91 L 354.18,232.81 L 355.01,232.14 L 355.40,231.72 M 178.00,208.50 L 178.00,206.81 L 178.00,203.65 L 177.99,202.11 L 177.99,199.25 L 177.98,197.85 L 177.97,195.27 L 177.96,194.01 L 177.94,191.69 L 177.92,189.44 L 177.86,185.69 L 177.83,183.93 L 177.74,181.10 L 177.69,179.79 L 177.57,177.78 L 177.51,176.87 L 177.35,175.58 L 177.27,175.02 L 177.08,174.37 L 176.74,174.00 L 176.57,174.00 L 175.60,174.43 L 175.04,174.71 L 173.44,175.62 L 172.58,176.11 L 170.56,177.36 L 167.27,179.50 L 166.14,180.26 L 164.00,181.64 L 162.97,182.29 L 161.19,183.38 L 160.36,183.88 L 159.13,184.57 L 158.12,185.00 L 157.99,185.00 L 157.54,184.63 L 157.29,184.38 L 156.65,183.60 L 156.32,183.17 L 155.57,182.09 L 154.43,180.25 L 153.67,178.94 L 152.08,176.28 L 151.71,175.66 L 151.06,174.59 L 150.32,173.40 L 150.00,172.91 L 149.91,172.01 L 149.97,171.76 L 150.33,171.20 L 150.56,170.90 L 151.35,170.15 L 151.81,169.75 L 153.12,168.75 L 153.85,168.21 L 155.77,166.86 L 156.81,166.14 L 159.44,164.37 L 164.27,161.15 L 179.56,151.00 L 188.28,151.00 L 197.00,151.00 L 197.00,197.00 L 197.00,243.00 L 187.50,243.00 L 178.00,243.00 L 178.00,208.50 M 305.30,187.98 L 304.56,187.60 L 303.24,186.74 L 302.61,186.29 L 301.50,185.26 L 300.97,184.72 L 300.07,183.51 L 299.64,182.88 L 298.92,181.46 L 298.59,180.73 L 298.06,179.09 L 297.82,178.23 L 297.46,176.34 L 297.31,175.37 L 297.11,173.21 L 297.00,169.65 L 297.00,168.58 L 297.07,166.62 L 297.12,165.67 L 297.28,163.94 L 297.48,162.27 L 298.21,159.50 L 298.64,158.18 L 299.90,155.96 L 302.45,153.00 L 303.06,152.44 L 304.15,151.66 L 304.71,151.32 L 306.07,150.91 L 306.83,150.73 L 308.94,150.57 L 309.54,150.55 L 310.95,150.52 L 313.48,150.50 L 314.34,150.50 L 315.84,150.52 L 316.55,150.53 L 317.78,150.58 L 318.94,150.64 L 320.64,150.88 L 321.41,151.02 L 322.55,151.49 L 324.00,152.50 L 325.07,153.47 L 326.65,155.45 L 327.37,156.48 L 328.33,158.88 L 328.53,159.53 L 328.85,160.96 L 329.00,161.70 L 329.20,163.37 L 329.29,164.24 L 329.40,166.20 L 329.47,169.50 L 329.47,170.74 L 329.41,172.95 L 329.36,174.02 L 329.17,175.92 L 329.06,176.83 L 328.74,178.47 L 328.56,179.25 L 328.09,180.67 L 327.58,182.03 L 326.03,184.28 L 322.79,187.31 L 322.28,187.69 L 321.09,188.32 L 320.47,188.61 L 319.08,189.07 L 317.66,189.48 L 314.49,189.78 L 312.89,189.84 L 309.68,189.43 L 308.11,189.13 M 316.00,169.89 L 316.00,169.06 L 315.97,167.60 L 315.95,166.90 L 315.87,165.69 L 315.77,164.55 L 315.42,162.95 L 315.22,162.25 L 314.61,161.45 L 313.37,161.00 L 313.09,161.00 L 312.58,161.23 L 312.33,161.37 L 311.88,161.87 L 311.44,162.43 L 310.80,164.23 L 310.53,165.23 L 310.26,167.71 L 310.35,171.91 L 310.47,173.15 L 310.88,175.09 L 311.10,175.98 L 311.65,177.23 L 311.94,177.77 L 312.57,178.34 L 312.89,178.55 L 313.55,178.48 L 313.87,178.36 L 314.47,177.66 L 314.76,177.24 L 315.26,175.94 L 315.48,175.22 L 315.80,173.34 L 315.93,172.33 Z" fill="rgba(254,253,253,1)"/>
</g>
</svg>