<svg xmlns="http://www.w3.org/2000/svg" width="512" height="512" viewBox="0 0 512 512">
<g>
<path d="M 166.29,207.23 L 169.25,207.39 L 170.95,207.51 L 171.69,207.59 L 174.42,207.92 L 175.57,208.19 L 177.78,208.81 L 178.92,209.29 L 181.29,210.35 L 182.76,211.10 L 186.14,212.97 L 187.92,214.15 L 188.65,214.77 L 190.01,216.03 L 190.61,216.76 L 191.76,218.28 L 192.33,219.21 L 194.46,223.55 L 195.36,226.49 L 195.57,227.95 L 195.81,230.87 L 195.70,232.29 L 195.31,235.12 L 194.88,236.48 L 193.87,239.14 L 193.15,240.39 L 191.54,242.83 L 190.53,243.94 L 188.36,246.08 L 187.06,247.02 L 184.34,248.79 L 182.78,249.51 L 178.05,251.70 L 181.78,252.82 L 184.88,254.06 L 186.83,255.14 L 187.75,255.80 L 189.53,257.18 L 190.33,257.97 L 191.90,259.60 L 192.58,260.49 L 193.89,262.31 L 194.43,263.28 L 195.44,265.26 L 195.82,266.28 L 196.49,268.36 L 196.70,269.41 L 197.00,271.53 L 197.00,272.59 L 196.59,277.51 L 195.92,280.58 L 195.39,282.00 L 194.19,284.77 L 193.40,286.03 L 191.69,288.49 L 190.64,289.60 L 188.42,291.74 L 187.12,292.69 L 184.41,294.50 L 182.87,295.27 L 179.67,296.74 L 177.89,297.34 L 174.21,298.46 L 172.20,298.89 L 168.39,299.54 L 166.38,299.67 L 162.31,299.82 L 160.22,299.71 L 156.03,299.39 L 153.94,299.07 L 149.76,298.31 L 147.73,297.79 L 143.72,296.64 L 141.82,295.93 L 138.11,294.42 L 136.41,293.55 L 133.13,291.72 L 131.71,290.69 L 129.01,288.57 L 127.92,287.42 L 126.86,286.12 L 126.63,285.34 L 126.80,284.82 L 127.03,284.28 L 127.23,283.94 L 127.69,283.23 L 128.00,282.78 L 128.71,281.82 L 129.16,281.23 L 130.13,279.97 L 130.73,279.21 L 132.65,276.83 L 133.84,275.43 L 134.35,274.87 L 135.30,273.86 L 135.65,273.55 L 136.24,273.05 L 136.36,273.05 L 136.92,273.22 L 137.47,273.51 L 137.81,273.72 L 139.30,274.76 L 140.09,275.42 L 141.59,276.52 L 142.79,277.25 L 143.47,277.61 L 146.38,279.04 L 148.03,279.69 L 151.42,280.92 L 153.15,281.40 L 156.59,282.27 L 158.19,282.51 L 163.57,282.62 L 167.15,282.08 L 168.79,281.55 L 171.92,280.32 L 173.17,279.51 L 174.35,278.66 L 174.83,278.19 L 175.72,277.23 L 176.03,276.71 L 177.47,273.63 L 177.92,271.66 L 177.90,270.72 L 177.68,268.88 L 177.32,268.01 L 176.44,266.30 L 175.75,265.50 L 173.19,263.45 L 170.93,262.42 L 169.46,262.06 L 167.93,261.73 L 167.06,261.60 L 165.26,261.37 L 164.25,261.28 L 162.16,261.14 L 161.00,261.09 L 158.59,261.03 L 157.25,261.02 L 149.00,261.00 L 149.00,244.23 L 158.75,243.81 L 162.60,243.57 L 164.87,243.35 L 165.86,243.21 L 167.75,242.89 L 168.57,242.69 L 170.14,242.26 L 170.81,242.00 L 172.07,241.45 L 172.60,241.12 L 173.61,240.43 L 174.02,240.03 L 175.48,238.27 L 175.95,237.12 L 176.52,234.41 L 176.35,232.60 L 176.00,231.71 L 175.14,229.96 L 174.44,229.13 L 172.89,227.49 L 171.87,226.73 L 169.11,225.29 L 166.89,224.62 L 165.64,224.42 L 163.06,224.11 L 161.67,224.09 L 158.85,224.14 L 157.40,224.29 L 154.48,224.68 L 153.02,225.00 L 150.12,225.72 L 148.73,226.19 L 146.00,227.22 L 144.73,227.85 L 142.29,229.18 L 141.22,229.95 L 137.08,232.96 L 132.54,227.39 L 130.78,225.16 L 129.74,223.79 L 129.33,223.22 L 128.59,222.14 L 128.36,221.76 L 128.00,221.12 L 128.00,221.01 L 128.33,220.25 L 128.85,219.58 L 129.24,219.18 L 130.09,218.35 L 130.61,217.90 L 131.72,216.97 L 132.34,216.49 L 134.98,214.54 L 136.38,213.65 L 139.18,211.97 L 140.43,211.39 L 146.13,209.18 L 150.02,208.13 L 152.09,207.79 L 156.35,207.25 L 158.69,207.16 L 163.55,207.10 M 248.28,207.51 L 250.11,207.54 L 250.89,207.58 L 252.36,207.65 L 252.99,207.71 L 254.18,207.85 L 254.71,207.95 L 256.68,208.43 L 257.63,208.83 L 259.57,209.76 L 260.80,210.44 L 264.05,212.47 L 266.08,213.98 L 267.02,214.82 L 268.86,216.54 L 269.72,217.49 L 271.38,219.45 L 272.15,220.52 L 273.65,222.73 L 274.35,223.92 L 275.69,226.38 L 276.31,227.71 L 277.51,230.44 L 278.06,231.91 L 279.12,234.93 L 279.61,236.54 L 280.33,239.67 L 280.73,242.10 L 280.88,243.44 L 281.36,249.08 L 281.41,252.06 L 281.37,258.05 L 281.16,260.79 L 280.91,263.47 L 280.73,264.69 L 280.35,267.02 L 280.11,268.00 L 278.69,272.77 L 277.55,275.83 L 276.88,277.28 L 275.49,280.15 L 274.70,281.51 L 273.09,284.15 L 272.20,285.38 L 270.38,287.78 L 269.41,288.87 L 267.41,290.98 L 266.35,291.91 L 264.20,293.71 L 263.07,294.47 L 260.78,295.92 L 259.60,296.50 L 258.04,297.20 L 257.16,297.50 L 255.36,298.09 L 254.40,298.34 L 250.39,299.20 L 248.29,299.43 L 244.10,299.74 L 242.13,299.67 L 240.19,299.56 L 239.29,299.45 L 237.53,299.18 L 236.75,298.98 L 232.96,297.80 L 230.54,296.83 L 229.39,296.25 L 227.13,295.03 L 226.06,294.34 L 223.96,292.88 L 222.97,292.06 L 221.04,290.36 L 220.14,289.43 L 218.38,287.50 L 217.56,286.45 L 215.98,284.30 L 215.26,283.14 L 213.87,280.77 L 213.24,279.50 L 210.55,273.25 L 209.24,269.16 L 208.79,267.04 L 208.04,262.70 L 207.85,260.31 L 207.58,255.35 L 207.60,252.50 L 208.01,245.12 L 208.64,240.45 L 209.14,238.25 L 210.23,233.93 L 210.95,231.91 L 212.49,227.98 L 213.43,226.16 L 215.40,222.64 L 216.55,221.05 L 218.94,217.97 L 220.28,216.61 L 223.08,214.01 L 224.62,212.90 L 227.80,210.80 L 229.53,209.95 L 232.48,208.67 L 234.37,208.10 L 235.46,207.93 L 237.80,207.65 L 239.34,207.58 L 240.96,207.53 L 241.89,207.52 L 243.86,207.50 L 245.00,207.50 M 364.48,255.18 L 369.77,256.06 L 372.95,257.17 L 374.37,257.99 L 377.12,259.83 L 378.34,261.02 L 380.70,263.61 L 381.74,265.18 L 383.19,267.63 L 383.83,269.12 L 384.02,269.95 L 384.34,271.71 L 384.41,272.85 L 384.47,274.04 L 384.48,274.73 L 384.50,276.17 L 384.50,277.00 L 384.48,279.30 L 384.44,280.62 L 384.40,281.20 L 384.20,283.31 L 383.99,284.18 L 383.49,285.85 L 383.08,286.70 L 382.16,288.44 L 381.49,289.52 L 378.11,293.77 L 375.50,295.93 L 373.96,296.72 L 371.51,297.85 L 370.23,298.27 L 367.65,299.00 L 366.34,299.21 L 363.70,299.54 L 362.39,299.56 L 359.77,299.50 L 358.49,299.33 L 355.95,298.89 L 354.73,298.53 L 352.34,297.71 L 351.22,297.17 L 349.05,295.99 L 348.07,295.27 L 346.18,293.74 L 345.37,292.85 L 342.64,289.18 L 341.23,286.56 L 340.73,285.18 L 339.87,282.40 L 339.64,280.97 L 339.33,278.11 L 339.37,276.68 L 339.59,273.83 L 339.90,272.44 L 340.66,269.68 L 341.24,268.37 L 342.54,265.80 L 343.38,264.60 L 345.21,262.30 L 346.32,261.27 L 350.33,258.13 L 353.01,256.63 L 354.44,256.15 L 357.38,255.36 L 359.03,255.21 L 362.48,255.05 M 368.05,208.06 L 369.14,208.15 L 369.57,208.22 L 370.35,208.37 L 370.59,208.46 L 370.96,208.65 L 370.95,208.75 L 370.80,209.05 L 370.55,209.48 L 370.36,209.80 L 369.94,210.51 L 369.66,210.96 L 369.06,211.93 L 368.70,212.51 L 367.94,213.74 L 367.50,214.44 L 366.59,215.90 L 366.08,216.71 L 363.90,220.18 L 362.62,222.20 L 359.93,226.45 L 358.43,228.81 L 355.31,233.71 L 353.62,236.36 L 350.16,241.78 L 348.33,244.65 L 344.59,250.47 L 342.65,253.50 L 314.40,297.50 L 309.12,297.81 L 306.52,297.90 L 305.37,297.86 L 305.04,297.78 L 304.53,297.58 L 304.48,297.40 L 304.50,297.01 L 304.67,296.72 L 304.90,296.36 L 305.19,295.89 L 305.41,295.56 L 305.88,294.81 L 306.18,294.34 L 306.82,293.34 L 307.20,292.74 L 307.99,291.49 L 308.45,290.78 L 309.40,289.29 L 309.92,288.47 L 312.16,284.96 L 313.46,282.92 L 316.19,278.65 L 317.70,276.28 L 320.83,271.38 L 322.52,268.74 L 325.98,263.33 L 327.81,260.47 L 331.52,254.67 L 333.44,251.67 L 361.37,208.00 L 366.19,208.00 M 362.20,266.00 L 359.92,266.13 L 358.68,266.37 L 358.13,266.59 L 357.08,267.10 L 356.56,267.48 L 355.51,268.34 L 354.92,268.92 L 353.41,270.63 L 352.73,271.69 L 352.52,272.28 L 352.18,273.53 L 352.10,274.33 L 352.00,276.05 L 352.00,277.20 L 352.33,281.13 L 352.89,283.33 L 353.33,284.23 L 354.34,285.89 L 355.01,286.52 L 356.46,287.65 L 357.36,288.01 L 359.75,288.79 L 360.89,288.91 L 363.13,288.98 L 364.17,288.77 L 366.19,288.21 L 367.09,287.72 L 368.81,286.61 L 369.53,285.88 L 370.86,284.30 L 371.36,283.36 L 372.24,281.38 L 372.48,280.28 L 372.82,278.00 L 372.77,276.77 L 372.49,274.25 L 372.10,272.94 L 370.71,269.79 L 369.47,268.19 L 368.67,267.63 L 366.94,266.66 L 365.87,266.40 L 363.58,266.00 M 245.00,224.00 L 241.27,224.38 L 239.00,225.01 L 237.97,225.51 L 236.00,226.65 L 235.12,227.40 L 233.43,229.05 L 232.70,230.06 L 231.31,232.21 L 230.72,233.48 L 229.61,236.14 L 229.17,237.66 L 228.36,240.83 L 228.06,242.61 L 227.53,246.29 L 227.37,248.33 L 227.15,254.31 L 227.25,258.10 L 227.42,259.87 L 227.84,263.35 L 228.17,264.96 L 228.90,268.08 L 229.37,269.50 L 230.39,272.23 L 231.01,273.44 L 232.31,275.75 L 233.07,276.73 L 234.64,278.58 L 235.52,279.31 L 237.34,280.65 L 238.35,281.12 L 241.14,282.23 L 242.46,282.46 L 245.10,282.69 L 246.50,282.50 L 249.74,281.69 L 251.71,280.82 L 252.60,280.21 L 254.32,278.90 L 255.09,278.08 L 256.56,276.33 L 257.19,275.29 L 258.40,273.11 L 258.91,271.86 L 259.86,269.25 L 260.24,267.78 L 260.93,264.75 L 261.18,263.07 L 261.60,259.62 L 261.71,257.74 L 261.82,249.67 L 261.49,244.74 L 261.12,242.52 L 260.27,238.25 L 259.64,236.37 L 258.26,232.78 L 257.38,231.26 L 255.02,228.01 L 253.23,226.34 L 252.22,225.75 L 250.11,224.72 L 248.91,224.43 L 246.41,224.00 M 315.53,206.97 L 317.56,207.39 L 319.60,207.87 L 320.62,208.21 L 322.67,208.96 L 323.69,209.43 L 326.53,211.05 L 328.23,212.32 L 328.98,213.04 L 330.42,214.53 L 331.04,215.34 L 332.23,217.01 L 332.72,217.91 L 333.64,219.72 L 334.01,220.68 L 334.68,222.61 L 334.92,223.60 L 335.61,227.65 L 335.57,229.69 L 335.25,233.78 L 334.70,235.75 L 334.09,237.69 L 333.70,238.62 L 332.83,240.46 L 332.31,241.33 L 331.20,243.02 L 330.54,243.80 L 329.18,245.32 L 328.40,246.00 L 326.78,247.30 L 325.88,247.86 L 324.01,248.91 L 322.99,249.33 L 318.84,250.75 L 316.80,251.09 L 312.75,251.51 L 310.82,251.38 L 307.01,250.88 L 305.23,250.31 L 301.79,248.96 L 300.25,248.00 L 297.29,245.89 L 296.04,244.58 L 293.70,241.78 L 292.81,240.15 L 291.21,236.75 L 290.74,234.85 L 290.32,232.91 L 290.20,231.90 L 290.02,229.85 L 290.02,228.78 L 290.23,225.68 L 290.56,223.70 L 290.82,222.76 L 292.08,219.13 L 293.02,217.52 L 295.11,214.47 L 296.41,213.19 L 299.18,210.81 L 300.77,209.89 L 304.08,208.25 L 305.89,207.74 L 309.61,206.93 L 311.56,206.87 M 311.70,217.38 L 309.68,217.76 L 308.74,218.18 L 306.90,219.15 L 306.09,219.84 L 304.55,221.36 L 303.95,222.29 L 302.86,224.29 L 302.52,225.44 L 302.00,227.86 L 302.00,229.20 L 302.55,232.41 L 303.40,234.62 L 303.99,235.64 L 305.27,237.59 L 306.00,238.34 L 307.50,239.67 L 308.26,239.97 L 310.97,240.78 L 312.33,240.82 L 315.02,240.67 L 316.25,240.27 L 318.61,239.25 L 319.56,238.45 L 320.47,237.61 L 320.84,237.12 L 321.55,236.10 L 321.81,235.53 L 322.88,231.81 L 323.11,229.16 L 322.99,227.86 L 322.58,225.30 L 322.16,224.15 L 321.16,221.96 L 320.44,221.11 L 317.75,218.76 L 315.79,217.77 L 314.77,217.55 L 312.71,217.27 Z" fill="rgba(86,92,101,1)"/>
<path d="M 295.09,85.17 L 318.08,81.79 L 341.07,78.40 L 343.34,81.45 L 344.00,82.41 L 344.61,83.37 L 345.00,83.98 L 345.82,85.30 L 346.29,86.08 L 347.28,87.71 L 347.83,88.62 L 350.15,92.51 L 351.43,94.71 L 354.07,99.23 L 355.42,101.58 L 365.23,118.67 L 386.36,125.40 L 394.66,128.04 L 397.18,128.85 L 398.35,129.22 L 400.61,129.94 L 401.62,130.26 L 403.54,130.87 L 404.36,131.13 L 405.90,131.62 L 406.51,131.81 L 407.59,132.16 L 407.95,132.27 L 408.53,132.46 L 408.60,132.48 L 409.08,132.99 L 409.42,133.67 L 409.58,134.14 L 410.20,136.33 L 410.39,137.66 L 410.56,138.94 L 410.69,140.07 L 410.76,140.75 L 411.08,143.78 L 411.27,145.64 L 411.65,149.56 L 411.85,151.71 L 412.26,156.10 L 412.46,158.33 L 412.85,162.76 L 413.03,164.86 L 413.37,168.92 L 413.51,170.67 L 413.64,172.37 L 413.70,173.12 L 413.81,174.55 L 413.85,175.15 L 413.92,176.26 L 413.94,176.69 L 413.98,177.43 L 413.98,177.65 L 414.23,178.40 L 414.65,179.10 L 414.99,179.55 L 415.76,180.52 L 416.28,181.11 L 417.40,182.36 L 418.09,183.09 L 419.58,184.63 L 420.46,185.52 L 422.32,187.36 L 423.39,188.40 L 425.63,190.55 L 426.90,191.75 L 429.53,194.23 L 431.00,195.59 L 437.60,201.80 L 439.58,203.70 L 440.49,204.58 L 442.24,206.29 L 443.01,207.05 L 444.47,208.51 L 445.09,209.14 L 446.23,210.31 L 446.66,210.78 L 447.42,211.62 L 447.65,211.90 L 448.00,212.36 L 448.00,212.44 L 447.83,213.07 L 447.57,213.88 L 447.37,214.47 L 446.91,215.75 L 446.63,216.54 L 446.01,218.23 L 445.65,219.21 L 444.89,221.25 L 444.46,222.38 L 443.58,224.70 L 443.10,225.96 L 441.10,231.18 L 440.00,234.00 L 436.90,242.08 L 435.96,244.55 L 435.54,245.70 L 434.72,247.92 L 434.35,248.92 L 433.66,250.83 L 433.38,251.65 L 432.84,253.19 L 432.64,253.80 L 432.28,254.91 L 432.17,255.28 L 432.00,255.90 L 432.00,256.00 L 432.17,256.72 L 432.43,257.59 L 432.64,258.20 L 433.09,259.53 L 433.38,260.35 L 433.99,262.08 L 434.35,263.08 L 435.11,265.16 L 435.54,266.30 L 436.42,268.66 L 436.90,269.92 L 438.90,275.18 L 440.00,278.00 L 443.10,286.04 L 444.04,288.49 L 444.46,289.62 L 445.28,291.81 L 445.65,292.79 L 446.34,294.66 L 446.63,295.46 L 447.16,296.95 L 447.37,297.53 L 447.73,298.59 L 447.83,298.93 L 448.00,299.49 L 448.00,299.56 L 447.65,300.10 L 447.10,300.75 L 446.67,301.21 L 445.72,302.22 L 445.11,302.84 L 443.81,304.15 L 443.05,304.91 L 441.45,306.49 L 440.55,307.36 L 438.70,309.15 L 437.69,310.12 L 433.47,314.12 L 431.15,316.27 L 414.30,331.92 L 413.70,338.27 L 413.56,339.89 L 413.44,341.27 L 413.38,342.09 L 413.24,343.80 L 413.16,344.76 L 413.00,346.73 L 412.92,347.80 L 412.58,352.26 L 412.40,354.63 L 412.04,359.45 L 411.87,361.81 L 410.63,379.01 L 396.06,383.57 L 383.39,387.56 L 379.39,388.82 L 377.68,389.37 L 376.02,389.89 L 375.30,390.12 L 373.93,390.56 L 373.37,390.73 L 365.24,393.33 L 353.46,413.71 L 351.49,417.12 L 350.29,419.19 L 349.74,420.13 L 348.68,421.94 L 348.20,422.76 L 347.27,424.33 L 346.85,425.03 L 345.29,427.62 L 344.66,428.61 L 343.49,430.41 L 343.01,431.07 L 342.14,432.22 L 341.78,432.59 L 341.10,433.22 L 340.81,433.38 L 340.24,433.62 L 339.96,433.64 L 339.40,433.62 L 339.09,433.55 L 338.15,433.38 L 337.13,433.21 L 336.45,433.11 L 334.99,432.87 L 334.10,432.73 L 332.24,432.44 L 331.19,432.28 L 329.00,431.94 L 327.81,431.76 L 325.36,431.39 L 324.06,431.19 L 318.67,430.39 L 315.82,429.97 L 295.15,426.92 L 275.91,439.96 L 270.72,443.46 L 268.39,445.02 L 266.12,446.54 L 265.07,447.23 L 263.05,448.57 L 262.15,449.16 L 260.43,450.28 L 259.71,450.74 L 258.35,451.61 L 257.83,451.94 L 256.89,452.53 L 256.60,452.70 L 256.13,452.96 L 256.09,452.95 L 255.58,452.68 L 254.88,452.25 L 254.36,451.92 L 253.22,451.18 L 252.50,450.71 L 250.98,449.71 L 250.09,449.12 L 248.24,447.89 L 247.20,447.20 L 245.07,445.77 L 243.92,445.00 L 239.11,441.75 L 236.50,439.97 L 217.50,427.03 L 194.50,430.46 L 188.39,431.35 L 184.86,431.85 L 183.34,432.06 L 180.48,432.43 L 179.27,432.57 L 177.01,432.83 L 176.08,432.92 L 174.36,433.06 L 173.69,433.09 L 172.45,433.13 L 171.99,433.11 L 171.17,433.04 L 170.90,432.97 L 170.45,432.81 L 170.34,432.69 L 169.87,432.06 L 169.36,431.27 L 169.00,430.71 L 168.24,429.49 L 167.77,428.73 L 166.80,427.13 L 166.24,426.20 L 165.08,424.27 L 164.44,423.21 L 163.14,421.01 L 162.44,419.83 L 159.55,414.92 L 158.02,412.27 L 146.87,393.05 L 130.69,387.96 L 125.14,386.22 L 121.83,385.19 L 120.36,384.73 L 117.53,383.84 L 116.28,383.45 L 113.89,382.69 L 112.84,382.35 L 110.86,381.71 L 110.00,381.43 L 108.38,380.88 L 107.70,380.64 L 106.41,380.17 L 105.87,379.97 L 104.87,379.56 L 104.46,379.38 L 103.09,378.68 L 102.69,378.36 L 102.05,377.72 L 101.91,377.37 L 101.72,376.65 L 101.68,376.22 L 101.63,375.28 L 101.55,374.69 L 101.41,373.46 L 101.29,372.29 L 101.22,371.56 L 101.08,370.00 L 100.99,369.09 L 100.83,367.20 L 100.73,366.15 L 100.35,361.70 L 100.15,359.21 L 99.74,354.12 L 99.54,351.51 L 98.09,332.52 L 89.30,324.00 L 85.22,320.07 L 82.18,317.16 L 80.63,315.67 L 77.53,312.72 L 76.08,311.35 L 73.29,308.70 L 72.14,307.62 L 63.78,299.77 L 80.78,256.00 L 72.28,234.12 L 63.78,212.23 L 72.14,204.38 L 76.08,200.65 L 79.07,197.81 L 80.63,196.33 L 83.74,193.35 L 85.22,191.93 L 88.09,189.17 L 89.30,188.00 L 98.09,179.48 L 99.54,160.49 L 100.15,152.78 L 100.55,147.94 L 100.74,145.84 L 100.91,143.80 L 101.00,142.89 L 101.16,141.15 L 101.23,140.41 L 101.36,139.04 L 101.42,138.51 L 101.52,137.57 L 101.56,137.27 L 102.12,133.05 L 118.31,127.96 L 125.08,125.83 L 129.53,124.43 L 131.56,123.78 L 135.44,122.55 L 137.00,122.06 L 138.49,121.58 L 139.10,121.39 L 140.25,121.02 L 140.67,120.88 L 146.85,118.89 L 158.67,98.49 L 162.05,92.67 L 163.98,89.41 L 164.79,88.05 L 166.33,85.52 L 166.98,84.51 L 168.18,82.63 L 168.68,81.91 L 169.62,80.60 L 170.00,80.13 L 170.72,79.32 L 171.02,79.06 L 171.58,78.64 L 171.82,78.56 L 172.28,78.47 L 172.49,78.51 L 173.33,78.66 L 174.29,78.82 L 174.94,78.92 L 176.38,79.15 L 177.25,79.28 L 179.09,79.56 L 180.14,79.72 L 182.32,80.05 L 183.52,80.23 L 185.99,80.60 L 187.31,80.80 L 192.79,81.60 L 195.70,82.03 L 216.90,85.12 L 236.51,71.97 L 256.12,58.82 M 256.31,108.99 L 246.86,109.22 L 242.13,109.68 L 232.68,110.83 L 227.97,111.75 L 218.58,113.82 L 213.93,115.21 L 204.67,118.22 L 200.11,120.09 L 191.04,124.05 L 186.60,126.39 L 177.79,131.31 L 173.50,134.14 L 171.40,135.61 L 169.88,136.75 L 169.07,137.39 L 165.71,140.14 L 163.89,141.74 L 160.17,145.06 L 158.26,146.87 L 154.39,150.57 L 152.48,152.48 L 148.68,156.34 L 146.87,158.26 L 143.34,162.07 L 141.74,163.89 L 138.68,167.46 L 137.39,169.07 L 136.16,170.66 L 135.61,171.40 L 134.58,172.84 L 134.14,173.50 L 126.78,185.88 L 122.46,194.45 L 120.60,198.90 L 117.07,207.89 L 115.60,212.53 L 112.88,221.91 L 111.82,226.73 L 110.80,232.73 L 110.27,237.33 L 110.07,239.85 L 109.73,245.03 L 109.64,247.74 L 109.49,253.23 L 109.49,256.00 L 109.54,261.55 L 109.64,264.26 L 109.88,269.62 L 110.07,272.15 L 110.51,277.06 L 110.80,279.27 L 111.43,283.50 L 111.82,285.27 L 115.60,299.47 L 118.73,308.66 L 120.60,313.10 L 124.52,321.89 L 126.78,326.12 L 131.49,334.48 L 134.14,338.50 L 135.61,340.60 L 136.75,342.12 L 137.39,342.93 L 140.14,346.29 L 141.74,348.11 L 145.06,351.83 L 146.87,353.74 L 150.57,357.61 L 152.48,359.52 L 156.34,363.32 L 158.26,365.13 L 162.07,368.66 L 163.89,370.26 L 167.46,373.32 L 169.07,374.61 L 170.66,375.84 L 171.40,376.39 L 172.84,377.42 L 173.50,377.86 L 181.90,383.02 L 187.65,386.18 L 190.60,387.63 L 196.53,390.42 L 199.55,391.67 L 205.63,394.08 L 208.72,395.13 L 214.91,397.14 L 218.04,397.99 L 224.32,399.60 L 227.48,400.24 L 233.81,401.43 L 236.98,401.86 L 243.33,402.61 L 246.50,402.83 L 254.86,403.21 L 259.05,403.13 L 267.44,402.81 L 271.58,402.39 L 279.82,401.38 L 283.82,400.63 L 291.73,398.95 L 295.50,397.87 L 305.48,394.64 L 311.95,392.19 L 315.08,390.81 L 321.29,387.96 L 324.30,386.39 L 330.24,383.15 L 333.11,381.40 L 338.77,377.79 L 341.50,375.85 L 346.87,371.89 L 349.44,369.78 L 354.51,365.47 L 356.92,363.19 L 361.67,358.56 L 363.93,356.12 L 368.35,351.16 L 370.44,348.56 L 374.53,343.30 L 376.44,340.55 L 380.18,334.99 L 381.91,332.11 L 385.28,326.26 L 386.83,323.24 L 389.83,317.13 L 391.19,313.98 L 393.80,307.62 L 394.96,304.34 L 397.18,297.73 L 398.13,294.34 L 399.94,287.50 L 400.69,284.00 L 401.15,281.48 L 401.42,279.60 L 401.54,278.57 L 401.99,274.21 L 402.15,271.77 L 402.43,266.73 L 402.51,264.06 L 402.63,258.64 L 402.62,255.88 L 402.57,250.37 L 402.49,247.69 L 402.28,242.39 L 402.11,239.93 L 401.73,235.14 L 401.48,233.05 L 401.22,231.01 L 401.08,230.08 L 400.78,228.29 L 400.61,227.50 L 398.94,220.52 L 397.62,215.79 L 396.86,213.41 L 393.58,203.86 L 391.62,199.18 L 387.50,189.93 L 385.21,185.61 L 382.89,181.35 L 381.68,179.33 L 379.24,175.36 L 377.99,173.52 L 368.93,161.50 L 362.40,154.07 L 358.92,150.66 L 351.81,144.04 L 348.05,141.04 L 340.42,135.23 L 336.44,132.63 L 328.35,127.65 L 324.16,125.47 L 315.68,121.33 L 311.32,119.58 L 302.52,116.28 L 298.02,114.96 L 288.96,112.53 L 284.36,111.65 L 275.10,110.09 L 270.42,109.65 L 261.03,108.98 M 14.37,340.35 L 13.83,338.87 L 13.07,336.43 M 9.54,324.95 L 9.15,323.64 L 8.92,322.68 M 0.36,243.98 L 0.28,246.45 L 0.15,251.50 L 0.12,254.05 L 0.27,266.03 L 0.07,261.52 L 0.10,251.11 L 0.20,245.90 L 0.42,242.47 M 9.12,188.47 L 8.25,192.09 L 6.56,199.47 L 5.76,203.47 L 4.19,211.67 L 3.42,216.16 L 2.66,220.71 L 2.28,223.10 L 1.75,226.50 L 2.56,220.03 L 3.29,214.89 L 5.21,204.66 L 6.25,199.57 L 8.80,189.46 L 10.16,184.43 L 10.77,182.50 M 33.22,130.06 L 31.54,133.16 L 28.21,139.46 L 26.55,142.80 L 21.78,152.79 L 19.85,157.14 L 20.77,154.88 L 25.19,145.31 L 27.48,140.55 L 32.51,131.21 L 33.79,129.09 M 41.96,115.67 L 40.30,118.27 L 40.76,117.50 L 42.49,114.81 L 42.96,114.15 M 460.43,102.17 L 460.74,102.62 L 459.61,101.12 M 450.73,90.16 L 454.10,94.09 L 455.28,95.59 L 454.18,94.26 L 450.66,90.08 M 443.86,82.39 L 445.29,84.01 L 441.87,80.33 M 107.26,47.78 L 102.00,51.70 L 99.40,53.78 L 94.20,58.04 L 91.59,60.32 L 86.35,64.99 L 83.67,67.51 L 78.27,72.68 L 75.47,75.47 L 68.49,82.67 L 68.87,82.25 L 71.61,79.29 L 77.18,73.58 L 79.96,70.78 L 85.51,65.50 L 88.27,62.93 L 93.63,58.26 L 101.29,52.13 L 106.43,48.30 L 107.91,47.31 M 432.90,71.26 L 434.45,72.82 L 432.06,70.48 M 405.06,48.04 L 409.21,51.05 L 409.99,51.67 L 407.74,50.01 L 403.50,46.94 M 379.50,31.83 L 383.85,34.20 L 392.43,39.46 L 396.69,42.16 L 399.69,44.27 L 397.45,42.78 L 382.89,33.82 L 376.81,30.49 M 134.99,30.64 L 138.63,28.65 L 140.90,27.56 M 362.53,23.34 L 364.54,24.35 L 360.30,22.37 M 154.31,21.22 L 155.41,20.72 L 155.88,20.53 M 345.22,16.17 L 351.04,18.34 L 354.76,19.96 L 352.51,19.04 L 344.15,15.79 M 327.63,10.32 L 333.53,12.05 L 338.20,13.69 L 336.80,13.23 L 327.20,10.20 M 315.79,7.07 L 322.44,8.89 L 320.82,8.47 L 310.10,5.84 M 273.80,0.62 L 279.83,1.05 L 291.86,2.55 L 297.87,3.41 L 309.83,5.78 L 309.97,5.81 L 304.61,4.77 L 293.71,2.83 L 288.24,2.13 L 277.26,0.90 L 271.75,0.55 L 260.73,0.04 L 255.21,0.05 L 244.18,0.24 L 238.67,0.61 L 233.35,1.05 L 237.64,0.66 L 243.65,0.23 L 255.71,-0.01 L 261.74,-0.01 M 206.90,4.76 L 207.73,4.58 L 208.16,4.51 M 219.12,2.71 L 219.65,2.63 L 221.56,2.35 M 222.39,2.23 L 225.63,1.76 L 226.61,1.67 M 18.07,350.22 L 19.80,354.63 L 21.64,358.85 L 19.48,353.91 Z" fill="rgba(243,245,248,1)"/>
<path d="M 411.59,135.87 L 412.00,136.04 L 412.27,136.21 L 412.88,136.60 L 413.26,136.90 L 414.10,137.56 L 414.62,138.00 L 415.73,138.96 L 416.40,139.57 L 417.82,140.86 L 418.66,141.65 L 420.42,143.31 L 421.44,144.29 L 423.59,146.36 L 424.82,147.55 L 427.38,150.06 L 428.83,151.48 L 431.85,154.46 L 433.54,156.13 L 437.05,159.61 L 439.01,161.55 L 443.05,165.57 L 445.28,167.80 L 449.88,172.39 L 452.41,174.92 L 457.62,180.12 L 460.46,182.96 L 470.41,192.88 L 476.74,199.18 L 479.71,202.12 L 485.50,207.86 L 488.15,210.47 L 490.76,213.04 L 491.99,214.25 L 494.41,216.62 L 495.54,217.73 L 497.76,219.90 L 498.78,220.89 L 500.77,222.83 L 501.67,223.71 L 503.42,225.40 L 504.20,226.15 L 505.69,227.58 L 506.34,228.19 L 507.55,229.35 L 508.05,229.81 L 508.98,230.67 L 509.33,230.99 L 509.94,231.54 L 510.13,231.69 L 510.42,231.91 L 510.44,231.89 L 510.56,231.42 L 510.57,230.83 L 510.56,230.41 L 510.52,229.85 L 511.02,234.64 L 511.41,238.99 L 511.84,247.69 L 512.00,252.04 L 511.98,260.73 L 511.91,265.07 L 511.44,273.72 L 511.14,278.05 L 510.22,286.65 L 509.70,290.95 L 508.34,299.50 L 507.60,303.76 L 505.80,312.23 L 504.84,316.46 L 502.60,324.84 L 501.43,329.01 L 498.76,337.28 L 497.38,341.40 L 494.28,349.54 L 492.68,353.59 L 489.17,361.60 L 487.36,365.58 L 483.43,373.42 L 481.41,377.33 L 477.07,385.00 L 474.85,388.81 L 470.10,396.30 L 467.67,400.02 L 462.52,407.30 L 454.34,417.98 L 453.24,419.33 L 450.71,422.30 L 449.39,423.81 L 446.49,427.01 L 443.52,430.24 L 436.94,436.94 L 433.62,440.26 L 427.01,446.49 L 425.39,447.97 L 422.30,450.71 L 417.98,454.34 L 415.29,456.51 L 409.61,460.78 L 406.72,462.90 L 400.70,467.04 L 397.66,469.09 L 391.40,473.06 L 388.25,475.01 L 381.82,478.75 L 378.60,480.59 L 372.10,484.05 L 368.85,485.74 L 362.36,488.88 L 359.12,490.40 L 352.73,493.16 L 343.34,496.84 L 341.70,497.43 L 338.02,498.65 L 336.12,499.27 L 332.02,500.51 L 327.84,501.74 L 318.80,504.12 L 314.25,505.28 L 305.27,507.29 L 303.07,507.76 L 298.87,508.57 L 293.00,509.60 L 292.26,509.71 L 290.45,509.93 L 289.49,510.04 L 287.30,510.25 L 286.16,510.35 L 283.64,510.54 L 282.34,510.63 L 279.56,510.80 L 276.72,510.97 L 270.52,511.23 L 267.37,511.36 L 260.91,511.53 L 257.69,511.60 L 251.47,511.67 L 248.43,511.69 L 242.93,511.65 L 241.62,511.63 L 239.23,511.57 L 238.07,511.53 L 236.03,511.44 L 235.06,511.38 L 233.42,511.25 L 232.66,511.19 L 231.50,511.02 L 230.81,510.90 L 228.89,510.60 L 227.86,510.44 L 225.57,510.10 L 225.79,510.13 L 227.50,510.29 L 229.17,510.39 L 229.87,510.37 L 231.13,510.27 L 231.37,510.15 L 231.12,509.78 L 230.63,509.20 L 230.23,508.76 L 229.33,507.78 L 228.73,507.14 L 227.43,505.76 L 226.64,504.93 L 224.98,503.19 L 224.01,502.19 L 221.99,500.10 L 220.86,498.93 L 218.52,496.52 L 217.23,495.20 L 214.58,492.49 L 213.14,491.02 L 210.21,488.03 L 208.64,486.44 L 205.44,483.19 L 203.75,481.47 L 200.31,477.99 L 198.51,476.17 L 194.85,472.47 L 192.94,470.55 L 185.13,462.68 L 180.98,458.51 L 172.52,450.02 L 168.12,445.62 L 155.24,432.71 L 147.05,424.49 L 143.22,420.63 L 139.44,416.81 L 137.62,414.98 L 134.04,411.36 L 132.33,409.63 L 128.98,406.23 L 127.39,404.62 L 124.29,401.47 L 122.83,399.99 L 120.00,397.10 L 118.69,395.76 L 116.14,393.16 L 114.99,391.97 L 112.76,389.68 L 111.77,388.65 L 109.87,386.69 L 109.06,385.84 L 107.52,384.23 L 106.90,383.57 L 105.74,382.34 L 105.31,381.87 L 104.55,381.04 L 104.33,380.78 L 104.00,380.37 L 104.00,380.33 L 103.67,379.40 L 103.19,378.90 L 102.89,378.80 L 102.61,378.32 L 102.59,378.27 L 102.69,378.36 L 103.09,378.68 L 104.46,379.38 L 104.87,379.56 L 105.87,379.97 L 106.41,380.17 L 107.70,380.64 L 108.38,380.88 L 110.00,381.43 L 110.86,381.71 L 112.84,382.35 L 113.89,382.69 L 116.28,383.45 L 117.53,383.84 L 120.36,384.73 L 121.83,385.19 L 125.14,386.22 L 130.69,387.96 L 146.87,393.05 L 158.02,412.27 L 159.55,414.92 L 162.44,419.83 L 163.14,421.01 L 164.44,423.21 L 165.08,424.27 L 166.24,426.20 L 166.80,427.13 L 167.77,428.73 L 168.24,429.49 L 169.00,430.71 L 169.36,431.27 L 169.87,432.06 L 170.34,432.69 L 170.45,432.81 L 170.90,432.97 L 171.17,433.04 L 171.99,433.11 L 172.45,433.13 L 173.69,433.09 L 174.36,433.06 L 176.08,432.92 L 177.01,432.83 L 179.27,432.57 L 180.48,432.43 L 183.34,432.06 L 184.86,431.85 L 188.39,431.35 L 194.50,430.46 L 217.50,427.03 L 236.50,439.97 L 239.11,441.75 L 243.92,445.00 L 245.07,445.77 L 247.20,447.20 L 248.24,447.89 L 250.09,449.12 L 250.98,449.71 L 252.50,450.71 L 253.22,451.18 L 254.36,451.92 L 254.88,452.25 L 255.58,452.68 L 256.09,452.95 L 256.13,452.96 L 256.60,452.70 L 256.89,452.53 L 257.83,451.94 L 258.35,451.61 L 259.71,450.74 L 260.43,450.28 L 262.15,449.16 L 263.05,448.57 L 265.07,447.23 L 266.12,446.54 L 268.39,445.02 L 270.72,443.46 L 275.91,439.96 L 295.15,426.92 L 315.82,429.97 L 318.67,430.39 L 324.06,431.19 L 325.36,431.39 L 327.81,431.76 L 329.00,431.94 L 331.19,432.28 L 332.24,432.44 L 334.10,432.73 L 334.99,432.87 L 336.45,433.11 L 337.13,433.21 L 338.15,433.38 L 339.09,433.55 L 339.40,433.62 L 339.96,433.64 L 340.24,433.62 L 340.81,433.38 L 341.10,433.22 L 341.78,432.59 L 342.14,432.22 L 343.01,431.07 L 343.49,430.41 L 344.66,428.61 L 345.29,427.62 L 346.85,425.03 L 347.27,424.33 L 348.20,422.76 L 348.68,421.94 L 349.74,420.13 L 350.29,419.19 L 351.49,417.12 L 353.46,413.71 L 365.24,393.33 L 373.37,390.73 L 373.93,390.56 L 375.30,390.12 L 376.02,389.89 L 377.68,389.37 L 379.39,388.82 L 383.39,387.56 L 396.06,383.57 L 410.63,379.01 L 411.87,361.81 L 412.04,359.45 L 412.40,354.63 L 412.58,352.26 L 412.92,347.80 L 413.00,346.73 L 413.16,344.76 L 413.24,343.80 L 413.38,342.09 L 413.44,341.27 L 413.56,339.89 L 413.70,338.27 L 414.30,331.92 L 431.15,316.27 L 433.47,314.12 L 437.69,310.12 L 438.70,309.15 L 440.55,307.36 L 441.45,306.49 L 443.05,304.91 L 443.81,304.15 L 445.11,302.84 L 445.72,302.22 L 446.67,301.21 L 447.10,300.75 L 447.65,300.10 L 448.00,299.56 L 448.00,299.49 L 447.83,298.93 L 447.73,298.59 L 447.37,297.53 L 447.16,296.95 L 446.63,295.46 L 446.34,294.66 L 445.65,292.79 L 445.28,291.81 L 444.46,289.62 L 444.04,288.49 L 443.10,286.04 L 440.00,278.00 L 438.90,275.18 L 436.90,269.92 L 436.42,268.66 L 435.54,266.30 L 435.11,265.16 L 434.35,263.08 L 433.99,262.08 L 433.38,260.35 L 433.09,259.53 L 432.64,258.20 L 432.43,257.59 L 432.17,256.72 L 432.00,256.00 L 432.00,255.90 L 432.17,255.28 L 432.28,254.91 L 432.64,253.80 L 432.84,253.19 L 433.38,251.65 L 433.66,250.83 L 434.35,248.92 L 434.72,247.92 L 435.54,245.70 L 435.96,244.55 L 436.90,242.08 L 440.00,234.00 L 441.10,231.18 L 443.10,225.96 L 443.58,224.70 L 444.46,222.38 L 444.89,221.25 L 445.65,219.21 L 446.01,218.23 L 446.63,216.54 L 446.91,215.75 L 447.37,214.47 L 447.57,213.88 L 447.83,213.07 L 448.00,212.44 L 448.00,212.36 L 447.65,211.90 L 447.42,211.62 L 446.66,210.78 L 446.23,210.31 L 445.09,209.14 L 444.47,208.51 L 443.01,207.05 L 442.24,206.29 L 440.49,204.58 L 439.58,203.70 L 437.60,201.80 L 431.00,195.59 L 429.53,194.23 L 426.90,191.75 L 425.63,190.55 L 423.39,188.40 L 422.32,187.36 L 420.46,185.52 L 419.58,184.63 L 418.09,183.09 L 417.40,182.36 L 416.28,181.11 L 415.76,180.52 L 414.99,179.55 L 414.65,179.10 L 414.23,178.40 L 413.98,177.65 L 413.98,177.43 L 413.94,176.69 L 413.92,176.26 L 413.85,175.15 L 413.81,174.55 L 413.70,173.12 L 413.64,172.37 L 413.51,170.67 L 413.37,168.92 L 413.03,164.86 L 412.85,162.76 L 412.46,158.33 L 412.26,156.10 L 411.85,151.71 L 411.65,149.56 L 411.27,145.64 L 411.08,143.78 L 410.76,140.75 L 410.69,140.07 L 410.56,138.94 L 410.39,137.66 L 410.37,137.49 L 410.74,139.50 L 410.87,136.50 L 411.17,135.84 L 411.41,135.81 M 164.48,495.03 L 173.70,498.41 L 178.40,499.92 L 184.15,501.65 L 188.21,502.79 L 190.32,503.33 L 198.94,505.45 L 203.31,506.37 L 212.02,508.12 L 215.57,508.69 L 214.84,508.59 L 208.53,507.53 L 205.37,506.96 L 199.08,505.62 L 195.94,504.92 L 189.67,503.31 L 186.55,502.47 L 180.33,500.60 L 174.12,498.67 L 161.88,494.04 L 160.86,493.64 M 159.43,493.06 L 155.79,491.61 L 152.47,490.05 M 137.90,483.04 L 139.43,483.82 L 137.96,483.09 L 137.64,482.91 M 105.38,462.71 L 104.34,461.98 L 103.35,461.19 M 92.62,452.64 L 91.39,451.63 L 90.89,451.19 M 86.41,447.27 L 79.14,440.50 L 89.15,449.67 M 98.09,332.52 L 98.16,333.47 L 98.09,332.51 M 500.00,178.63 L 501.40,183.14 L 501.99,185.40 L 501.08,182.13 L 499.78,177.97 M 483.98,139.60 L 486.16,143.81 L 490.10,152.32 L 492.01,156.60 L 495.43,165.30 L 497.07,169.68 L 498.25,173.29 L 497.77,171.88 L 495.37,165.19 L 494.07,161.91 L 491.41,155.38 L 489.98,152.17 L 487.05,145.77 L 485.47,142.61 L 482.95,137.67 M 409.58,134.14 L 409.97,135.29 L 410.07,135.87 L 409.58,134.14 L 409.58,134.13 M 479.50,131.22 L 481.22,134.43 L 480.53,133.19 L 477.45,127.76 M 342.12,79.76 L 342.42,80.19 L 343.45,81.32 L 344.02,81.65 L 344.15,81.52 L 344.71,81.90 L 345.52,82.59 L 346.13,83.15 L 347.47,84.39 L 348.32,85.19 L 350.13,86.91 L 351.19,87.93 L 353.39,90.06 L 354.63,91.26 L 357.17,93.76 L 358.55,95.11 L 361.37,97.90 L 362.86,99.38 L 365.88,102.40 L 367.46,103.98 L 389.94,126.54 L 386.36,125.40 L 365.23,118.67 L 355.42,101.58 L 354.07,99.23 L 351.43,94.71 L 350.15,92.51 L 347.83,88.62 L 347.28,87.71 L 346.29,86.08 L 345.82,85.30 L 345.00,83.98 L 344.61,83.37 L 344.00,82.41 L 343.34,81.45 L 342.05,79.72 M 474.03,122.10 L 471.29,117.69 L 471.99,118.75 M 318.13,81.78 L 318.08,81.79 L 295.09,85.17 L 318.12,81.78 Z" fill="rgba(249,40,20,1)"/>
<path d="M 270.42,109.65 L 275.10,110.09 L 284.36,111.65 L 288.96,112.53 L 298.02,114.96 L 302.52,116.28 L 311.32,119.58 L 315.68,121.33 L 324.16,125.47 L 328.35,127.65 L 336.44,132.63 L 340.42,135.23 L 348.05,141.04 L 351.81,144.04 L 358.92,150.66 L 362.40,154.07 L 368.93,161.50 L 377.99,173.52 L 379.24,175.36 L 381.68,179.33 L 382.89,181.35 L 385.21,185.61 L 387.50,189.93 L 391.62,199.18 L 393.58,203.86 L 396.86,213.41 L 397.62,215.79 L 398.94,220.52 L 400.61,227.50 L 400.78,228.29 L 401.08,230.08 L 401.22,231.01 L 401.48,233.05 L 401.73,235.14 L 402.11,239.93 L 402.28,242.39 L 402.49,247.69 L 402.57,250.37 L 402.62,255.88 L 402.63,258.64 L 402.51,264.06 L 402.43,266.73 L 402.15,271.77 L 401.99,274.21 L 401.54,278.57 L 401.42,279.60 L 401.15,281.48 L 400.69,284.00 L 399.94,287.50 L 398.13,294.34 L 397.18,297.73 L 394.96,304.34 L 393.80,307.62 L 391.19,313.98 L 389.83,317.13 L 386.83,323.24 L 385.28,326.26 L 381.91,332.11 L 380.18,334.99 L 376.44,340.55 L 374.53,343.30 L 370.44,348.56 L 368.35,351.16 L 363.93,356.12 L 361.67,358.56 L 356.92,363.19 L 354.51,365.47 L 349.44,369.78 L 346.87,371.89 L 341.50,375.85 L 338.77,377.79 L 333.11,381.40 L 330.24,383.15 L 324.30,386.39 L 321.29,387.96 L 315.08,390.81 L 311.95,392.19 L 305.48,394.64 L 295.50,397.87 L 291.73,398.95 L 283.82,400.63 L 279.82,401.38 L 271.58,402.39 L 267.44,402.81 L 259.05,403.13 L 254.86,403.21 L 246.50,402.83 L 245.83,402.78 L 247.75,402.88 L 248.75,402.90 L 256.00,403.00 L 256.00,298.21 L 251.75,299.20 L 247.92,299.76 L 245.22,299.85 L 243.83,299.77 L 243.12,299.70 L 244.10,299.74 L 248.29,299.43 L 250.39,299.20 L 254.40,298.34 L 255.36,298.09 L 257.16,297.50 L 258.04,297.20 L 259.60,296.50 L 260.78,295.92 L 263.07,294.47 L 264.20,293.71 L 266.35,291.91 L 267.41,290.98 L 269.41,288.87 L 270.38,287.78 L 272.20,285.38 L 273.09,284.15 L 274.70,281.51 L 275.49,280.15 L 276.88,277.28 L 277.55,275.83 L 278.69,272.77 L 280.11,268.00 L 280.35,267.02 L 280.73,264.69 L 280.91,263.47 L 281.16,260.79 L 281.37,258.05 L 281.41,252.06 L 281.36,249.08 L 280.88,243.44 L 280.73,242.10 L 280.33,239.67 L 279.61,236.54 L 279.12,234.93 L 278.06,231.91 L 277.51,230.44 L 276.31,227.71 L 275.69,226.38 L 274.35,223.92 L 273.65,222.73 L 272.15,220.52 L 271.38,219.45 L 269.72,217.49 L 268.86,216.54 L 267.02,214.82 L 266.08,213.98 L 264.05,212.47 L 260.80,210.44 L 259.57,209.76 L 257.63,208.83 L 256.68,208.43 L 254.71,207.95 L 254.18,207.85 L 252.99,207.71 L 252.36,207.65 L 250.89,207.58 L 250.11,207.54 L 248.28,207.51 L 245.00,207.50 L 256.00,207.50 L 256.00,108.99 L 256.31,108.99 L 261.03,108.98 M 243.36,402.62 L 243.33,402.61 L 243.31,402.61 M 224.73,399.68 L 225.20,399.78 L 224.32,399.60 L 223.80,399.46 M 215.72,397.35 L 218.50,398.11 L 218.04,397.99 L 214.91,397.14 L 214.24,396.92 M 206.09,394.23 L 205.63,394.08 L 205.51,394.03 M 182.37,383.27 L 184.57,384.49 L 181.90,383.02 L 181.39,382.70 M 174.74,378.57 L 177.02,380.02 L 173.50,377.86 L 172.84,377.42 L 171.40,376.39 L 170.66,375.84 L 169.07,374.61 L 168.69,374.30 M 126.83,326.21 L 131.54,334.52 L 134.18,338.49 L 137.06,342.46 L 138.42,344.18 L 137.39,342.93 L 136.75,342.12 L 135.61,340.60 L 134.14,338.50 L 131.49,334.48 L 126.78,326.12 L 125.32,323.39 M 124.56,321.96 L 124.52,321.89 L 122.09,316.45 M 118.75,308.70 L 118.73,308.66 L 116.58,302.35 M 359.03,255.21 L 357.38,255.36 L 354.44,256.15 L 353.01,256.63 L 350.33,258.13 L 346.32,261.27 L 345.21,262.30 L 343.38,264.60 L 342.54,265.80 L 341.24,268.37 L 340.66,269.68 L 339.90,272.44 L 339.59,273.83 L 339.37,276.68 L 339.33,278.11 L 339.64,280.97 L 339.87,282.40 L 340.73,285.18 L 341.23,286.56 L 342.64,289.18 L 345.37,292.85 L 346.18,293.74 L 348.07,295.27 L 349.05,295.99 L 351.22,297.17 L 352.34,297.71 L 354.73,298.53 L 355.95,298.89 L 358.49,299.33 L 359.77,299.50 L 362.39,299.56 L 363.70,299.54 L 366.34,299.21 L 367.65,299.00 L 370.23,298.27 L 371.51,297.85 L 373.96,296.72 L 375.50,295.93 L 378.11,293.77 L 381.49,289.52 L 382.16,288.44 L 383.08,286.70 L 383.49,285.85 L 383.99,284.18 L 384.20,283.31 L 384.40,281.20 L 384.44,280.62 L 384.48,279.30 L 384.50,277.00 L 384.50,276.17 L 384.48,274.73 L 384.47,274.04 L 384.41,272.85 L 384.34,271.71 L 384.02,269.95 L 383.83,269.12 L 383.19,267.63 L 381.74,265.18 L 380.70,263.61 L 378.34,261.02 L 377.12,259.83 L 374.37,257.99 L 372.95,257.17 L 369.77,256.06 L 364.48,255.18 L 362.48,255.05 M 115.60,299.47 L 111.82,285.27 L 115.62,299.52 M 361.37,208.00 L 333.44,251.67 L 331.52,254.67 L 327.81,260.47 L 325.98,263.33 L 322.52,268.74 L 320.83,271.38 L 317.70,276.28 L 316.19,278.65 L 313.46,282.92 L 312.16,284.96 L 309.92,288.47 L 309.40,289.29 L 308.45,290.78 L 307.99,291.49 L 307.20,292.74 L 306.82,293.34 L 306.18,294.34 L 305.88,294.81 L 305.41,295.56 L 305.19,295.89 L 304.90,296.36 L 304.67,296.72 L 304.50,297.01 L 304.48,297.40 L 304.53,297.58 L 305.04,297.78 L 305.37,297.86 L 306.52,297.90 L 309.12,297.81 L 314.40,297.50 L 342.65,253.50 L 344.59,250.47 L 348.33,244.65 L 350.16,241.78 L 353.62,236.36 L 355.31,233.71 L 358.43,228.81 L 359.93,226.45 L 362.62,222.20 L 363.90,220.18 L 366.08,216.71 L 366.59,215.90 L 367.50,214.44 L 367.94,213.74 L 368.70,212.51 L 369.06,211.93 L 369.66,210.96 L 369.94,210.51 L 370.36,209.80 L 370.55,209.48 L 370.80,209.05 L 370.95,208.75 L 370.96,208.65 L 370.59,208.46 L 370.35,208.37 L 369.57,208.22 L 369.14,208.15 L 368.05,208.06 L 366.19,208.00 M 217.56,286.45 L 218.38,287.50 L 220.14,289.43 L 221.04,290.36 L 222.97,292.06 L 223.96,292.88 L 225.33,293.83 L 224.88,293.57 L 223.77,292.77 L 221.61,291.11 L 220.66,290.20 L 218.95,288.33 L 217.79,286.85 L 217.21,286.01 L 217.00,285.68 M 365.87,266.40 L 366.94,266.66 L 368.67,267.63 L 369.47,268.19 L 370.71,269.79 L 372.10,272.94 L 372.49,274.25 L 372.77,276.77 L 372.82,278.00 L 372.48,280.28 L 372.24,281.38 L 371.36,283.36 L 370.86,284.30 L 369.53,285.88 L 368.81,286.61 L 367.09,287.72 L 366.19,288.21 L 364.17,288.77 L 363.13,288.98 L 360.89,288.91 L 359.75,288.79 L 357.36,288.01 L 356.46,287.65 L 355.01,286.52 L 354.34,285.89 L 353.33,284.23 L 352.89,283.33 L 352.33,281.13 L 352.00,277.20 L 352.00,276.05 L 352.10,274.33 L 352.18,273.53 L 352.52,272.28 L 352.73,271.69 L 353.41,270.63 L 354.92,268.92 L 355.51,268.34 L 356.56,267.48 L 357.08,267.10 L 358.13,266.59 L 358.68,266.37 L 359.92,266.13 L 362.20,266.00 L 363.58,266.00 M 233.07,276.74 L 234.64,278.57 L 235.52,279.29 L 237.34,280.61 L 238.35,281.07 L 239.46,281.56 L 238.35,281.12 L 237.34,280.65 L 235.52,279.31 L 234.64,278.58 L 233.07,276.73 L 232.80,276.38 M 257.38,231.26 L 258.26,232.78 L 259.64,236.37 L 260.27,238.25 L 261.12,242.52 L 261.49,244.74 L 261.82,249.67 L 261.71,257.74 L 261.60,259.62 L 261.18,263.07 L 260.93,264.75 L 260.24,267.78 L 259.86,269.25 L 258.91,271.86 L 258.40,273.11 L 257.19,275.29 L 256.56,276.33 L 255.09,278.08 L 254.65,278.55 L 254.97,277.91 L 255.19,277.04 L 255.57,275.12 L 255.69,273.83 L 255.81,272.48 L 255.85,271.71 L 255.93,270.11 L 255.95,269.20 L 256.00,267.31 L 256.02,266.25 L 256.04,264.05 L 256.05,262.82 L 256.06,260.28 L 256.06,258.88 L 256.06,255.98 L 256.06,254.38 L 256.05,245.36 L 256.05,242.59 L 256.04,241.31 L 256.04,238.82 L 256.04,237.70 L 256.04,235.56 L 256.03,234.64 L 256.03,232.91 L 256.03,232.23 L 256.03,230.98 L 256.03,230.56 L 256.02,229.86 L 256.02,229.74 L 255.87,229.18 M 212.33,277.39 L 211.78,276.28 L 210.94,274.17 L 210.87,273.99 M 207.85,260.31 L 208.04,262.70 L 208.79,267.04 L 209.24,269.16 L 210.21,272.20 L 209.39,269.96 L 208.90,268.00 L 208.28,264.74 L 207.97,262.23 L 207.86,260.87 L 207.68,257.25 M 227.25,258.10 L 227.25,258.10 L 227.23,257.19 M 207.58,255.22 L 207.57,255.13 L 207.58,254.60 M 227.15,254.31 L 227.37,248.33 L 227.15,254.32 M 209.14,238.25 L 208.64,240.45 L 208.01,245.12 L 207.63,251.80 L 207.85,246.18 L 208.15,243.49 L 208.48,240.87 L 208.69,239.70 L 209.15,237.47 L 209.42,236.54 L 210.03,234.74 M 309.61,206.93 L 305.89,207.74 L 304.08,208.25 L 300.77,209.89 L 299.18,210.81 L 296.41,213.19 L 295.11,214.47 L 293.02,217.52 L 292.08,219.13 L 290.82,222.76 L 290.56,223.70 L 290.23,225.68 L 290.02,228.78 L 290.02,229.85 L 290.20,231.90 L 290.32,232.91 L 290.74,234.85 L 291.21,236.75 L 292.81,240.15 L 293.70,241.78 L 296.04,244.58 L 297.29,245.89 L 300.25,248.00 L 301.79,248.96 L 305.23,250.31 L 307.01,250.88 L 310.82,251.38 L 312.75,251.51 L 316.80,251.09 L 318.84,250.75 L 322.99,249.33 L 324.01,248.91 L 325.88,247.86 L 326.78,247.30 L 328.40,246.00 L 329.18,245.32 L 330.54,243.80 L 331.20,243.02 L 332.31,241.33 L 332.83,240.46 L 333.70,238.62 L 334.09,237.69 L 334.70,235.75 L 335.25,233.78 L 335.57,229.69 L 335.61,227.65 L 334.92,223.60 L 334.68,222.61 L 334.01,220.68 L 333.64,219.72 L 332.72,217.91 L 332.23,217.01 L 331.04,215.34 L 330.42,214.53 L 328.98,213.04 L 328.23,212.32 L 326.53,211.05 L 323.69,209.43 L 322.67,208.96 L 320.62,208.21 L 319.60,207.87 L 317.56,207.39 L 315.53,206.97 L 311.56,206.87 M 314.77,217.55 L 315.79,217.77 L 317.75,218.76 L 320.44,221.11 L 321.16,221.96 L 322.16,224.15 L 322.58,225.30 L 322.99,227.86 L 323.11,229.16 L 322.88,231.81 L 321.81,235.53 L 321.55,236.10 L 320.84,237.12 L 320.47,237.61 L 319.56,238.45 L 318.61,239.25 L 316.25,240.27 L 315.02,240.67 L 312.33,240.82 L 310.97,240.78 L 308.26,239.97 L 307.50,239.67 L 306.00,238.34 L 305.27,237.59 L 303.99,235.64 L 303.40,234.62 L 302.55,232.41 L 302.00,229.20 L 302.00,227.86 L 302.52,225.44 L 302.86,224.29 L 303.95,222.29 L 304.55,221.36 L 306.09,219.84 L 306.90,219.15 L 308.74,218.18 L 309.68,217.76 L 311.70,217.38 L 312.71,217.27 M 233.39,229.11 L 233.43,229.05 L 233.44,229.05 M 246.44,224.00 L 245.20,224.00 L 241.40,224.37 L 239.09,224.99 L 238.06,225.49 L 236.05,226.62 L 235.17,227.37 L 234.23,228.27 L 235.12,227.40 L 236.00,226.65 L 237.97,225.51 L 239.00,225.01 L 241.27,224.38 L 245.00,224.00 L 246.41,224.00 M 248.91,224.43 L 250.11,224.72 L 252.22,225.75 L 252.39,225.85 L 250.22,224.86 L 248.98,224.53 L 246.45,224.01 M 221.43,215.55 L 221.87,215.11 L 222.16,214.86 M 224.63,212.89 L 224.97,212.63 L 226.07,211.91 L 226.63,211.57 M 228.33,210.54 L 228.33,210.54 L 229.53,209.95 M 232.49,208.67 L 232.50,208.66 L 233.38,208.40 M 234.38,208.10 L 234.39,208.10 L 235.00,208.00 M 235.50,207.92 L 235.50,207.92 L 235.52,207.92 M 176.25,132.33 L 177.79,131.31 L 180.63,129.72 M 190.48,124.41 L 186.49,126.45 L 186.60,126.39 L 191.04,124.05 L 192.57,123.38 M 202.82,118.98 L 204.67,118.22 L 207.24,117.39 M 217.49,114.19 L 213.75,115.27 L 213.93,115.21 L 218.58,113.82 L 220.01,113.51 M 227.92,111.76 L 227.97,111.75 L 228.11,111.72 M 230.24,111.31 L 232.68,110.83 L 236.18,110.40 M 245.83,109.41 L 236.43,110.37 L 242.13,109.68 L 246.86,109.22 L 249.65,109.15 Z" fill="rgba(252,186,18,1)"/>
<path d="M 271.75,0.55 L 277.26,0.90 L 288.24,2.13 L 293.71,2.83 L 304.61,4.77 L 310.04,5.82 L 320.82,8.47 L 326.18,9.88 L 336.80,13.23 L 342.09,14.99 L 352.51,19.04 L 357.70,21.16 L 367.89,25.91 L 372.96,28.37 L 382.89,33.82 L 397.45,42.78 L 400.91,45.08 L 407.74,50.01 L 411.14,52.52 L 417.79,57.85 L 421.08,60.57 L 427.51,66.26 L 430.70,69.15 L 436.86,75.18 L 439.91,78.22 L 445.77,84.53 L 448.66,87.71 L 454.18,94.26 L 456.89,97.56 L 462.03,104.30 L 469.24,114.60 L 471.29,117.69 L 475.12,123.87 L 477.00,126.96 L 480.53,133.19 L 482.25,136.31 L 485.47,142.61 L 487.05,145.77 L 489.98,152.17 L 491.41,155.38 L 494.07,161.91 L 495.37,165.19 L 497.77,171.88 L 498.93,175.25 L 501.08,182.13 L 504.04,192.69 L 504.40,194.12 L 505.20,197.62 L 505.60,199.44 L 506.42,203.50 L 507.23,207.64 L 508.70,216.22 L 509.04,218.29 L 509.61,222.09 L 509.87,223.91 L 510.25,226.98 L 510.33,227.68 L 510.45,228.91 L 510.50,229.48 L 510.56,230.41 L 510.57,230.83 L 510.56,231.42 L 510.44,231.89 L 510.42,231.91 L 510.13,231.69 L 509.94,231.54 L 509.33,230.99 L 508.98,230.67 L 508.05,229.81 L 507.55,229.35 L 506.34,228.19 L 505.69,227.58 L 504.20,226.15 L 503.42,225.40 L 501.67,223.71 L 500.77,222.83 L 498.78,220.89 L 497.76,219.90 L 495.54,217.73 L 494.41,216.62 L 491.99,214.25 L 490.76,213.04 L 488.15,210.47 L 485.50,207.86 L 479.71,202.12 L 476.74,199.18 L 470.41,192.88 L 460.46,182.96 L 457.62,180.12 L 452.41,174.92 L 449.88,172.39 L 445.28,167.80 L 443.05,165.57 L 439.01,161.55 L 437.05,159.61 L 433.54,156.13 L 431.85,154.46 L 428.83,151.48 L 427.38,150.06 L 424.82,147.55 L 423.59,146.36 L 421.44,144.29 L 420.42,143.31 L 418.66,141.65 L 417.82,140.86 L 416.40,139.57 L 415.73,138.96 L 414.62,138.00 L 414.10,137.56 L 413.26,136.90 L 412.88,136.60 L 412.27,136.21 L 412.00,136.04 L 411.59,135.87 L 411.41,135.81 L 411.17,135.84 L 410.87,136.50 L 410.74,139.50 L 410.12,136.12 L 409.97,135.29 L 409.58,134.14 L 409.33,133.62 L 408.29,132.80 L 407.96,132.59 L 407.08,132.19 L 406.60,131.98 L 405.36,131.54 L 404.68,131.30 L 403.00,130.77 L 399.90,129.82 L 390.30,126.90 L 367.46,103.98 L 365.88,102.40 L 362.86,99.38 L 361.37,97.90 L 358.55,95.11 L 357.17,93.76 L 354.63,91.26 L 353.39,90.06 L 351.19,87.93 L 350.13,86.91 L 348.32,85.19 L 347.47,84.39 L 346.13,83.15 L 345.52,82.59 L 344.71,81.90 L 344.15,81.52 L 344.02,81.65 L 343.45,81.32 L 342.42,80.19 L 342.12,79.76 L 341.21,79.25 L 340.90,79.16 L 340.01,79.08 L 339.50,79.06 L 338.08,79.12 L 337.28,79.17 L 335.17,79.40 L 334.01,79.53 L 331.04,79.92 L 330.24,80.03 L 328.44,80.28 L 327.51,80.41 L 325.44,80.71 L 324.37,80.86 L 322.01,81.21 L 318.12,81.78 L 295.09,85.17 L 256.12,58.82 L 236.51,71.97 L 216.90,85.12 L 195.70,82.03 L 192.79,81.60 L 187.31,80.80 L 185.99,80.60 L 183.52,80.23 L 182.32,80.05 L 180.14,79.72 L 179.09,79.56 L 177.25,79.28 L 176.38,79.15 L 174.94,78.92 L 174.29,78.82 L 173.33,78.66 L 172.49,78.51 L 172.28,78.47 L 171.82,78.56 L 171.58,78.64 L 171.02,79.06 L 170.72,79.32 L 170.00,80.13 L 169.62,80.60 L 168.68,81.91 L 168.18,82.63 L 166.98,84.51 L 166.33,85.52 L 164.79,88.05 L 163.98,89.41 L 162.05,92.67 L 158.67,98.49 L 146.85,118.89 L 140.67,120.88 L 140.25,121.02 L 139.10,121.39 L 138.49,121.58 L 137.00,122.06 L 135.44,122.55 L 131.56,123.78 L 129.53,124.43 L 125.08,125.83 L 118.31,127.96 L 102.12,133.05 L 101.56,137.27 L 101.52,137.57 L 101.42,138.51 L 101.36,139.04 L 101.23,140.41 L 101.16,141.15 L 101.00,142.89 L 100.91,143.80 L 100.74,145.84 L 100.55,147.94 L 100.15,152.78 L 99.54,160.49 L 98.09,179.48 L 89.30,188.00 L 88.09,189.17 L 85.22,191.93 L 83.74,193.35 L 80.63,196.33 L 79.07,197.81 L 76.08,200.65 L 72.14,204.38 L 63.78,212.23 L 80.78,256.00 L 72.28,277.88 L 63.78,299.77 L 72.14,307.62 L 73.29,308.70 L 76.08,311.35 L 77.52,312.72 L 80.63,315.67 L 82.18,317.16 L 85.22,320.07 L 89.29,324.00 L 98.09,332.51 L 99.93,355.47 L 100.08,357.27 L 100.36,360.59 L 100.51,362.21 L 100.79,365.15 L 100.92,366.58 L 101.19,369.11 L 101.33,370.33 L 101.58,372.44 L 101.71,373.44 L 101.95,375.11 L 102.07,375.88 L 102.30,377.08 L 102.41,377.61 L 102.61,378.32 L 102.89,378.80 L 103.19,378.90 L 103.67,379.40 L 104.00,380.33 L 104.00,380.37 L 104.33,380.78 L 104.55,381.04 L 105.31,381.87 L 105.74,382.34 L 106.90,383.57 L 107.52,384.23 L 109.06,385.84 L 109.87,386.69 L 111.77,388.65 L 112.76,389.68 L 114.99,391.97 L 116.14,393.16 L 118.69,395.76 L 120.00,397.10 L 122.83,399.99 L 124.29,401.47 L 127.39,404.62 L 128.98,406.23 L 132.33,409.63 L 134.04,411.36 L 137.62,414.98 L 139.44,416.81 L 143.22,420.63 L 147.05,424.49 L 155.24,432.71 L 168.12,445.62 L 172.52,450.02 L 180.98,458.51 L 185.13,462.68 L 192.94,470.55 L 194.85,472.47 L 198.51,476.17 L 200.31,477.99 L 203.75,481.47 L 205.44,483.19 L 208.64,486.44 L 210.21,488.03 L 213.14,491.02 L 214.58,492.49 L 217.23,495.20 L 218.52,496.52 L 220.86,498.93 L 221.99,500.10 L 224.01,502.19 L 224.98,503.19 L 226.64,504.93 L 227.43,505.76 L 228.73,507.14 L 229.33,507.78 L 230.23,508.76 L 230.63,509.20 L 231.12,509.78 L 231.37,510.15 L 231.13,510.27 L 229.87,510.37 L 229.17,510.39 L 227.50,510.29 L 225.79,510.13 L 222.07,509.66 L 220.17,509.41 L 216.12,508.78 L 212.02,508.12 L 203.31,506.37 L 198.94,505.45 L 190.32,503.33 L 188.21,502.79 L 184.15,501.65 L 178.40,499.92 L 173.70,498.41 L 164.48,495.03 L 159.91,493.27 L 150.98,489.40 L 146.55,487.40 L 137.90,483.04 L 133.61,480.80 L 125.26,475.96 L 121.11,473.48 L 113.05,468.17 L 109.05,465.45 L 101.29,459.65 L 97.44,456.70 L 89.98,450.43 L 79.14,440.50 L 75.89,437.36 L 69.76,431.03 L 66.76,427.86 L 61.08,421.45 L 58.30,418.23 L 53.07,411.71 L 50.50,408.43 L 45.67,401.76 L 43.31,398.40 L 38.87,391.55 L 36.69,388.09 L 32.62,381.02 L 30.62,377.46 L 26.88,370.14 L 21.64,358.85 L 19.80,354.63 L 16.47,346.10 L 14.86,341.82 L 11.99,333.19 L 10.62,328.87 L 8.22,320.16 L 7.08,315.79 L 5.16,307.02 L 4.26,302.63 L 2.81,293.81 L 2.15,289.40 L 1.18,280.56 L 0.76,276.14 L 0.28,267.30 L 0.12,254.05 L 0.15,251.50 L 0.28,246.45 L 0.36,243.98 L 0.53,239.48 L 0.58,238.41 L 0.68,236.47 L 0.73,235.54 L 0.83,233.91 L 0.88,233.14 L 0.99,231.88 L 1.14,230.50 L 1.53,227.95 L 2.28,223.10 L 2.66,220.71 L 3.42,216.16 L 4.19,211.67 L 5.76,203.47 L 6.56,199.47 L 8.25,192.09 L 9.12,188.47 L 11.00,181.67 L 11.97,178.33 L 14.11,171.88 L 15.21,168.68 L 17.67,162.37 L 18.94,159.20 L 21.78,152.79 L 26.55,142.80 L 28.21,139.46 L 31.54,133.16 L 33.22,130.06 L 36.65,124.17 L 38.38,121.26 L 41.96,115.67 L 43.78,112.90 L 47.60,107.52 L 49.54,104.84 L 53.66,99.57 L 55.76,96.94 L 60.26,91.68 L 62.55,89.04 L 67.49,83.69 L 75.47,75.47 L 78.27,72.68 L 83.67,67.51 L 86.35,64.99 L 91.59,60.32 L 94.20,58.04 L 99.40,53.78 L 102.00,51.70 L 107.26,47.78 L 109.90,45.86 L 115.33,42.19 L 118.08,40.39 L 123.79,36.90 L 126.69,35.17 L 132.79,31.78 L 142.50,26.72 L 147.57,24.18 L 157.89,19.65 L 163.08,17.47 L 173.61,13.67 L 178.90,11.86 L 189.60,8.78 L 194.97,7.33 L 205.81,4.98 L 211.25,3.89 L 222.19,2.25 L 227.67,1.53 L 238.67,0.61 L 244.18,0.24 L 255.21,0.05 L 260.73,0.04 Z" fill="rgba(254,108,82,1)"/>
<path d="M 234.00,401.52 L 230.87,400.99 L 224.73,399.68 L 221.69,398.98 L 215.72,397.35 L 212.76,396.50 L 206.97,394.54 L 204.10,393.53 L 198.49,391.26 L 195.71,390.09 L 190.29,387.50 L 187.60,386.17 L 182.37,383.27 L 179.78,381.78 L 174.74,378.57 L 167.42,373.40 L 166.20,372.49 L 163.46,370.20 L 162.05,368.99 L 159.03,366.22 L 157.49,364.79 L 154.32,361.69 L 152.74,360.11 L 149.57,356.82 L 147.99,355.17 L 144.96,351.85 L 143.47,350.20 L 140.72,346.99 L 139.39,345.41 L 137.06,342.46 L 134.18,338.49 L 131.54,334.52 L 126.83,326.21 L 124.57,321.99 L 120.64,313.20 L 118.77,308.76 L 115.62,299.54 L 111.82,285.27 L 111.43,283.50 L 110.80,279.27 L 110.51,277.06 L 110.07,272.15 L 109.88,269.62 L 109.64,264.26 L 109.54,261.55 L 109.49,256.00 L 109.49,253.23 L 109.64,247.74 L 109.73,245.03 L 110.07,239.85 L 110.27,237.33 L 110.80,232.73 L 111.82,226.73 L 112.88,221.91 L 115.60,212.53 L 117.07,207.89 L 120.60,198.90 L 122.46,194.45 L 126.78,185.88 L 134.14,173.50 L 134.58,172.84 L 135.61,171.40 L 136.16,170.66 L 137.39,169.07 L 138.68,167.46 L 141.74,163.89 L 143.34,162.07 L 146.87,158.26 L 148.68,156.34 L 152.48,152.48 L 154.39,150.57 L 158.26,146.87 L 160.17,145.06 L 163.89,141.74 L 165.71,140.14 L 169.07,137.39 L 169.88,136.75 L 171.40,135.61 L 173.50,134.14 L 176.25,132.33 L 181.87,128.99 L 184.70,127.37 L 190.48,124.41 L 193.38,122.98 L 199.30,120.41 L 202.27,119.18 L 208.31,117.00 L 211.34,115.96 L 217.49,114.19 L 220.58,113.35 L 226.82,111.98 L 229.95,111.35 L 236.28,110.39 L 245.83,109.41 L 256.00,108.71 L 256.00,158.11 L 256.00,207.50 L 245.25,207.50 L 244.08,207.50 L 242.06,207.52 L 241.10,207.53 L 239.44,207.58 L 237.87,207.64 L 235.50,207.92 L 234.39,208.10 L 232.50,208.66 L 229.53,209.95 L 228.33,210.54 L 226.07,211.91 L 224.97,212.63 L 222.89,214.26 L 221.87,215.11 L 219.97,217.00 L 219.05,217.97 L 217.33,220.13 L 216.49,221.23 L 214.95,223.64 L 214.20,224.88 L 212.84,227.55 L 212.18,228.92 L 210.99,231.85 L 209.42,236.54 L 209.15,237.47 L 208.69,239.70 L 208.48,240.87 L 208.15,243.49 L 207.85,246.18 L 207.62,252.15 L 207.57,255.13 L 207.86,260.87 L 207.97,262.23 L 208.28,264.74 L 208.90,268.00 L 209.39,269.96 L 210.94,274.17 L 211.78,276.28 L 213.84,280.42 L 214.90,282.44 L 217.21,286.01 L 217.79,286.85 L 218.95,288.33 L 220.66,290.20 L 221.61,291.11 L 223.77,292.77 L 224.88,293.57 L 227.33,294.99 L 228.58,295.67 L 231.24,296.84 L 232.59,297.39 L 235.37,298.28 L 236.77,298.68 L 239.61,299.26 L 241.02,299.51 L 243.83,299.77 L 245.22,299.85 L 247.92,299.76 L 251.75,299.20 L 256.00,298.21 L 256.00,350.61 L 256.00,403.00 L 248.75,402.90 L 247.75,402.88 L 245.34,402.76 L 244.10,402.68 L 241.43,402.45 L 240.09,402.33 L 237.48,402.02 L 236.22,401.86 M 172.20,298.89 L 174.21,298.46 L 177.89,297.34 L 179.67,296.74 L 182.87,295.27 L 184.41,294.50 L 187.12,292.69 L 188.42,291.74 L 190.64,289.60 L 191.69,288.49 L 193.40,286.03 L 194.19,284.77 L 195.39,282.00 L 195.92,280.58 L 196.59,277.51 L 197.00,272.59 L 197.00,271.53 L 196.70,269.41 L 196.49,268.36 L 195.82,266.28 L 195.44,265.26 L 194.43,263.28 L 193.89,262.31 L 192.58,260.49 L 191.90,259.60 L 190.33,257.97 L 189.53,257.18 L 187.75,255.80 L 186.83,255.14 L 184.88,254.06 L 181.78,252.82 L 178.05,251.70 L 182.78,249.51 L 184.34,248.79 L 187.06,247.02 L 188.36,246.08 L 190.53,243.94 L 191.54,242.83 L 193.15,240.39 L 193.87,239.14 L 194.88,236.48 L 195.31,235.12 L 195.70,232.29 L 195.81,230.87 L 195.57,227.95 L 195.36,226.49 L 194.46,223.55 L 192.33,219.21 L 191.76,218.28 L 190.61,216.76 L 190.01,216.03 L 188.65,214.77 L 187.92,214.15 L 186.14,212.97 L 182.76,211.10 L 181.29,210.35 L 178.92,209.29 L 177.78,208.81 L 175.57,208.19 L 174.42,207.92 L 171.69,207.59 L 170.95,207.51 L 169.25,207.39 L 166.29,207.23 L 163.55,207.10 L 158.69,207.16 L 156.35,207.25 L 152.09,207.79 L 150.02,208.13 L 146.13,209.18 L 140.43,211.39 L 139.18,211.97 L 136.38,213.65 L 134.98,214.54 L 132.34,216.49 L 131.72,216.97 L 130.61,217.90 L 130.09,218.35 L 129.24,219.18 L 128.85,219.58 L 128.33,220.25 L 128.00,221.01 L 128.00,221.12 L 128.36,221.76 L 128.59,222.14 L 129.33,223.22 L 129.74,223.79 L 130.78,225.16 L 132.54,227.39 L 137.08,232.96 L 141.22,229.95 L 142.29,229.18 L 144.73,227.85 L 146.00,227.22 L 148.73,226.19 L 150.12,225.72 L 153.02,225.00 L 154.48,224.68 L 157.40,224.29 L 158.85,224.14 L 161.67,224.09 L 163.06,224.11 L 165.64,224.42 L 166.89,224.62 L 169.11,225.29 L 171.87,226.73 L 172.89,227.49 L 174.44,229.13 L 175.14,229.96 L 176.00,231.71 L 176.35,232.60 L 176.52,234.41 L 175.95,237.12 L 175.48,238.27 L 174.02,240.03 L 173.61,240.43 L 172.60,241.12 L 172.07,241.45 L 170.81,242.00 L 170.14,242.26 L 168.57,242.69 L 167.75,242.89 L 165.86,243.21 L 164.87,243.35 L 162.60,243.57 L 158.75,243.81 L 149.00,244.23 L 149.00,252.62 L 149.00,261.00 L 157.25,261.02 L 158.59,261.03 L 161.00,261.09 L 162.16,261.14 L 164.25,261.28 L 165.26,261.37 L 167.06,261.60 L 167.93,261.73 L 169.46,262.06 L 170.93,262.42 L 173.19,263.45 L 175.75,265.50 L 176.44,266.30 L 177.32,268.01 L 177.68,268.88 L 177.90,270.72 L 177.92,271.66 L 177.47,273.63 L 176.03,276.71 L 175.72,277.23 L 174.83,278.19 L 174.35,278.66 L 173.17,279.51 L 171.92,280.32 L 168.79,281.55 L 167.15,282.08 L 163.57,282.62 L 158.19,282.51 L 156.59,282.27 L 153.15,281.40 L 151.42,280.92 L 148.03,279.69 L 146.38,279.04 L 143.47,277.61 L 142.79,277.25 L 141.59,276.52 L 140.09,275.42 L 139.30,274.76 L 137.81,273.72 L 137.47,273.51 L 136.92,273.22 L 136.36,273.05 L 136.24,273.05 L 135.65,273.55 L 135.30,273.86 L 134.35,274.87 L 133.84,275.43 L 132.65,276.83 L 130.73,279.21 L 130.13,279.97 L 129.16,281.23 L 128.71,281.82 L 128.00,282.78 L 127.69,283.23 L 127.23,283.94 L 127.03,284.28 L 126.80,284.82 L 126.63,285.34 L 126.86,286.12 L 127.92,287.42 L 129.01,288.57 L 131.71,290.69 L 133.13,291.72 L 136.41,293.55 L 138.11,294.42 L 141.82,295.93 L 143.72,296.64 L 147.73,297.79 L 149.76,298.31 L 153.94,299.07 L 156.03,299.39 L 160.22,299.71 L 162.31,299.82 L 166.38,299.67 L 168.39,299.54 M 238.35,281.07 L 237.34,280.61 L 235.52,279.29 L 234.64,278.57 L 233.07,276.74 L 232.32,275.76 L 231.02,273.46 L 230.40,272.25 L 229.38,269.52 L 228.90,268.10 L 228.17,264.98 L 227.85,263.37 L 227.42,259.89 L 227.25,258.11 L 227.15,254.32 L 227.37,248.33 L 227.53,246.28 L 228.06,242.57 L 228.36,240.79 L 229.18,237.61 L 229.62,236.08 L 230.73,233.42 L 231.32,232.16 L 232.73,230.01 L 233.47,229.00 L 235.17,227.37 L 236.05,226.62 L 238.06,225.49 L 239.09,224.99 L 241.40,224.37 L 245.20,224.00 L 246.44,224.00 L 248.98,224.53 L 250.22,224.86 L 252.46,225.88 L 253.50,226.43 L 255.01,227.73 L 255.33,228.06 L 255.75,228.73 L 256.02,229.74 L 256.02,229.86 L 256.03,230.56 L 256.03,230.98 L 256.03,232.23 L 256.03,232.91 L 256.03,234.64 L 256.04,235.56 L 256.04,237.70 L 256.04,238.82 L 256.04,241.31 L 256.05,242.59 L 256.05,245.36 L 256.06,254.38 L 256.06,255.98 L 256.06,258.88 L 256.06,260.28 L 256.05,262.82 L 256.04,264.05 L 256.02,266.25 L 256.00,267.31 L 255.95,269.20 L 255.93,270.11 L 255.85,271.71 L 255.81,272.48 L 255.69,273.83 L 255.57,275.12 L 255.19,277.04 L 254.97,277.91 L 254.36,279.14 L 254.02,279.69 L 253.12,280.45 L 252.63,280.79 L 251.39,281.30 L 249.10,281.99 L 247.88,282.33 L 246.04,282.72 L 245.18,282.87 L 243.70,282.86 L 242.96,282.79 L 241.37,282.33 L 240.52,282.03 Z" fill="rgba(254,205,0,1)"/>
</g>
</svg>