<svg id="visual" viewBox="0 0 1563 864" width="1563" height="864" xmlns="http://www.w3.org/2000/svg" xmlns:xlink="http://www.w3.org/1999/xlink" version="1.1"><rect x="0" y="0" width="1563" height="864" fill="#FFDF88"></rect><defs><linearGradient id="grad1_0" x1="44.7%" y1="100%" x2="100%" y2="0%"><stop offset="13.819444444444446%" stop-color="#ffdf88" stop-opacity="1"></stop><stop offset="86.18055555555554%" stop-color="#ffdf88" stop-opacity="1"></stop></linearGradient></defs><defs><linearGradient id="grad2_0" x1="0%" y1="100%" x2="55.3%" y2="0%"><stop offset="13.819444444444446%" stop-color="#ffdf88" stop-opacity="1"></stop><stop offset="86.18055555555554%" stop-color="#ffdf88" stop-opacity="1"></stop></linearGradient></defs><g transform="translate(1563, 864)"><path d="M-691.2 0C-640.9 -59.7 -590.6 -119.5 -575.4 -187C-560.2 -254.5 -580.1 -329.7 -559.2 -406.3C-538.3 -482.8 -476.6 -560.6 -392.6 -540.4C-308.7 -520.2 -202.6 -402.1 -133.5 -410.9C-64.4 -419.7 -32.2 -555.4 0 -691.2L0 0Z" fill="#FBAE3C"></path></g><g transform="translate(0, 0)"><path d="M691.2 0C694 76.5 696.9 153 657.4 213.6C617.9 274.2 536.1 319 450.6 327.4C365.2 335.8 276.1 307.8 226.9 312.3C177.7 316.8 168.4 353.7 137.2 422.3C106 490.8 53 591 0 691.2L0 0Z" fill="#FBAE3C"></path></g></svg>