<svg id="visual" viewBox="0 0 1536 864" width="1536" height="864" xmlns="http://www.w3.org/2000/svg" xmlns:xlink="http://www.w3.org/1999/xlink" version="1.1"><rect x="0" y="0" width="1536" height="864" fill="#FFDF88"></rect><defs><linearGradient id="grad1_0" x1="43.8%" y1="0%" x2="100%" y2="100%"><stop offset="14.444444444444446%" stop-color="#ffdf88" stop-opacity="1"></stop><stop offset="85.55555555555554%" stop-color="#ffdf88" stop-opacity="1"></stop></linearGradient></defs><defs><linearGradient id="grad2_0" x1="0%" y1="0%" x2="56.3%" y2="100%"><stop offset="14.444444444444446%" stop-color="#ffdf88" stop-opacity="1"></stop><stop offset="85.55555555555554%" stop-color="#ffdf88" stop-opacity="1"></stop></linearGradient></defs><g transform="translate(1536, 0)"><path d="M0 604.8C-67.9 602 -135.7 599.1 -184.2 566.8C-232.6 534.6 -261.7 472.8 -319.2 439.3C-376.6 405.8 -462.4 400.4 -489.3 355.5C-516.2 310.6 -484.2 226.2 -493.6 160.4C-503 94.5 -553.9 47.3 -604.8 0L0 0Z" fill="#FBAE3C"></path></g><g transform="translate(0, 864)"><path d="M0 -604.8C66.6 -604.3 133.2 -603.7 186.9 -575.2C240.6 -546.7 281.4 -490.1 322.1 -443.3C362.8 -396.6 403.5 -359.6 434.4 -315.6C465.4 -271.7 486.8 -220.6 513.6 -166.9C540.4 -113.1 572.6 -56.5 604.8 0L0 0Z" fill="#FBAE3C"></path></g></svg>