<svg xmlns="http://www.w3.org/2000/svg" width="512" height="512" viewBox="0 0 512 512">
<g>
<path d="M 371.27,266.42 L 374.72,266.94 L 376.46,267.45 L 379.36,268.53 L 381.26,269.46 L 382.19,270.03 L 385.80,272.57 L 387.42,274.16 L 390.53,277.53 L 391.80,279.44 L 393.02,281.39 L 393.55,282.41 L 394.54,284.47 L 394.94,285.53 L 395.94,288.81 L 396.44,291.15 L 396.61,292.37 L 397.05,297.37 L 396.94,299.89 L 396.51,304.90 L 395.98,307.22 L 395.40,309.49 L 395.03,310.54 L 394.24,312.59 L 393.76,313.50 L 390.92,318.01 L 388.65,320.81 L 387.37,322.06 L 384.73,324.44 L 383.33,325.43 L 380.47,327.26 L 379.00,327.92 L 375.87,329.08 L 374.10,329.42 L 370.46,329.94 L 368.60,329.95 L 364.88,329.81 L 363.14,329.50 L 359.77,328.72 L 358.36,328.08 L 353.86,325.47 L 351.00,323.26 L 349.69,321.97 L 347.18,319.27 L 346.10,317.79 L 344.07,314.76 L 343.29,313.16 L 341.84,309.90 L 341.20,307.95 L 341.00,306.92 L 340.68,304.75 L 340.61,303.39 L 340.55,301.98 L 340.54,301.17 L 340.51,299.48 L 340.51,298.50 L 340.61,293.85 L 340.79,291.37 L 340.96,290.34 L 341.35,288.36 L 341.64,287.45 L 342.29,285.64 L 342.73,284.67 L 345.55,279.55 L 347.69,276.53 L 348.88,275.22 L 351.35,272.74 L 352.68,271.71 L 355.42,269.78 L 356.88,269.04 L 359.86,267.69 L 361.42,267.24 L 364.60,266.50 L 366.24,266.36 L 369.57,266.24 M 356.33,194.94 L 358.50,195.30 L 359.47,195.75 L 361.30,196.83 L 361.93,197.63 L 363.39,199.93 L 363.73,200.66 L 363.84,200.97 L 364.00,201.55 L 364.00,201.76 L 363.86,202.36 L 363.63,203.08 L 363.45,203.59 L 363.04,204.70 L 362.78,205.40 L 362.22,206.88 L 361.88,207.75 L 361.17,209.57 L 360.76,210.60 L 359.91,212.73 L 359.44,213.91 L 358.47,216.33 L 357.94,217.63 L 356.85,220.31 L 356.27,221.73 L 353.85,227.65 L 352.51,230.88 L 349.77,237.52 L 348.31,241.03 L 345.33,248.16 L 343.79,251.83 L 340.69,259.23 L 339.12,262.95 L 335.97,270.40 L 334.42,274.06 L 331.33,281.33 L 329.84,284.82 L 326.90,291.69 L 325.52,294.90 L 322.82,301.14 L 321.60,303.95 L 320.40,306.71 L 319.84,307.99 L 318.73,310.50 L 318.22,311.65 L 317.23,313.88 L 316.78,314.89 L 315.92,316.81 L 315.53,317.66 L 314.80,319.25 L 314.49,319.92 L 313.90,321.16 L 313.67,321.63 L 313.24,322.49 L 313.09,322.76 L 312.83,323.20 L 312.77,323.25 L 311.11,324.40 L 310.15,324.69 L 308.19,325.08 L 307.20,325.00 L 305.24,324.65 L 304.36,324.21 L 302.69,323.15 L 302.07,322.37 L 300.61,320.00 L 300.27,319.23 L 300.16,318.90 L 300.00,318.26 L 300.00,318.03 L 300.14,317.47 L 300.37,316.79 L 300.55,316.29 L 300.95,315.21 L 301.21,314.53 L 301.77,313.07 L 302.10,312.21 L 302.81,310.42 L 303.21,309.40 L 304.05,307.29 L 304.52,306.13 L 305.49,303.73 L 306.01,302.43 L 307.09,299.78 L 307.66,298.37 L 310.07,292.48 L 311.39,289.27 L 314.11,282.66 L 315.56,279.16 L 318.51,272.06 L 320.03,268.39 L 323.11,261.01 L 324.67,257.29 L 327.78,249.85 L 329.32,246.19 L 332.38,238.92 L 333.86,235.43 L 336.77,228.55 L 338.14,225.34 L 340.81,219.08 L 342.02,216.26 L 343.21,213.50 L 343.77,212.21 L 344.86,209.69 L 345.37,208.53 L 346.35,206.28 L 346.79,205.27 L 347.65,203.33 L 348.03,202.48 L 348.75,200.86 L 349.06,200.18 L 349.64,198.92 L 349.87,198.44 L 350.29,197.56 L 350.44,197.28 L 350.70,196.82 L 350.75,196.75 L 351.85,195.85 L 352.72,195.40 L 353.20,195.25 L 355.25,194.85 M 139.32,198.01 L 141.85,198.03 L 142.87,198.05 L 144.77,198.10 L 145.53,198.15 L 146.92,198.26 L 147.46,198.34 L 148.45,198.51 L 148.85,198.63 L 149.57,198.90 L 149.87,199.07 L 150.95,199.86 L 154.00,202.91 L 154.00,260.00 L 154.00,317.09 L 151.55,319.55 L 149.91,320.90 L 149.00,321.32 L 147.15,321.95 L 146.30,321.92 L 143.51,321.78 L 142.01,321.48 L 141.42,321.06 L 140.86,320.59 L 140.62,320.25 L 140.15,319.52 L 139.95,319.03 L 139.56,317.97 L 139.40,317.30 L 139.10,315.86 L 138.97,314.98 L 138.73,313.09 L 138.64,311.96 L 138.46,309.58 L 138.39,308.17 L 138.26,305.22 L 138.22,303.52 L 138.13,299.94 L 138.10,297.90 L 138.05,293.64 L 138.04,291.23 L 138.01,286.23 L 138.01,283.43 L 138.00,277.63 L 138.00,274.40 L 138.00,267.73 L 138.00,213.00 L 128.50,213.00 L 125.73,212.98 L 124.16,212.96 L 123.50,212.93 L 122.25,212.87 L 121.73,212.82 L 120.74,212.72 L 120.33,212.64 L 118.89,212.31 L 118.37,212.04 L 117.43,211.43 L 117.00,211.00 L 115.38,208.40 L 114.90,206.41 L 114.96,205.39 L 115.28,203.37 L 115.72,202.46 L 116.81,200.72 L 117.63,200.07 L 119.47,198.96 L 120.19,198.69 L 120.63,198.59 L 121.57,198.40 L 122.15,198.33 L 123.40,198.20 L 124.18,198.16 L 125.83,198.08 L 126.84,198.06 L 129.00,198.02 L 130.29,198.01 L 133.05,198.00 L 134.68,198.00 M 215.38,198.00 L 217.48,198.01 L 218.44,198.01 L 222.02,198.03 L 223.48,198.05 L 226.19,198.10 L 227.27,198.14 L 229.26,198.24 L 230.04,198.31 L 231.46,198.46 L 232.01,198.56 L 233.01,198.79 L 233.41,198.93 L 234.75,199.59 L 235.37,200.07 L 237.28,202.46 L 237.98,204.38 L 238.04,205.39 L 237.96,207.44 L 237.62,208.40 L 236.74,210.26 L 236.00,211.00 L 234.46,212.09 L 233.76,212.34 L 233.31,212.44 L 232.32,212.62 L 231.68,212.69 L 230.30,212.81 L 229.41,212.85 L 227.50,212.92 L 226.32,212.95 L 223.78,212.98 L 222.24,212.99 L 218.96,213.00 L 217.00,213.00 L 210.40,213.06 L 206.53,213.15 L 204.99,213.22 L 203.52,213.29 L 202.90,213.33 L 201.76,213.41 L 201.33,213.46 L 200.56,213.55 L 200.33,213.60 L 199.98,213.70 L 199.98,213.75 L 199.93,214.17 L 199.86,214.69 L 199.81,215.07 L 199.57,216.85 L 199.39,218.10 L 199.00,220.80 L 198.76,222.39 L 198.27,225.71 L 198.00,227.50 L 197.24,232.59 L 196.79,235.60 L 196.61,236.83 L 196.44,238.00 L 196.37,238.49 L 196.24,239.42 L 196.19,239.78 L 196.10,240.43 L 196.07,240.63 L 196.02,240.97 L 196.02,241.00 L 196.25,241.10 L 196.62,241.16 L 196.90,241.19 L 198.29,241.31 L 199.31,241.35 L 201.54,241.44 L 202.88,241.46 L 205.70,241.50 L 207.25,241.50 L 210.78,241.51 L 212.76,241.54 L 213.60,241.58 L 215.20,241.65 L 215.89,241.72 L 217.20,241.86 L 217.80,241.96 L 220.03,242.47 L 221.16,242.90 L 222.32,243.35 L 222.96,243.64 L 224.28,244.24 L 225.05,244.60 L 230.43,247.59 L 233.71,249.86 L 235.19,251.13 L 238.04,253.74 L 239.29,255.17 L 241.69,258.10 L 242.71,259.68 L 244.64,262.90 L 245.42,264.61 L 246.86,268.09 L 247.39,269.92 L 248.32,273.63 L 248.59,275.56 L 249.00,279.48 L 249.00,281.50 L 248.59,287.42 L 247.92,291.23 L 247.39,293.06 L 246.20,296.66 L 245.42,298.37 L 243.74,301.73 L 242.72,303.30 L 240.56,306.38 L 239.32,307.81 L 236.72,310.58 L 235.25,311.84 L 232.22,314.27 L 230.56,315.34 L 227.12,317.39 L 225.26,318.26 L 223.29,319.11 L 222.22,319.47 L 220.02,320.16 L 218.86,320.44 L 214.07,321.39 L 211.59,321.60 L 206.64,321.84 L 204.29,321.67 L 201.97,321.46 L 200.88,321.28 L 198.75,320.87 L 197.78,320.59 L 192.93,318.82 L 189.81,317.32 L 188.33,316.43 L 185.41,314.55 L 184.04,313.49 L 181.38,311.27 L 180.15,310.06 L 177.78,307.56 L 176.72,306.22 L 174.69,303.48 L 173.82,302.04 L 172.18,299.11 L 171.52,297.59 L 170.32,294.52 L 169.90,292.94 L 169.19,288.87 L 169.21,286.60 L 169.47,285.66 L 170.18,283.92 L 170.79,283.21 L 172.20,281.91 L 173.17,281.41 L 174.96,280.58 L 175.90,280.29 L 176.34,280.29 L 177.21,280.37 L 177.72,280.54 L 178.82,280.98 L 179.56,281.33 L 181.20,282.31 L 182.09,283.09 L 182.46,283.60 L 183.18,284.68 L 183.50,285.38 L 184.13,286.90 L 184.45,287.86 L 186.13,291.96 L 187.48,294.47 L 188.27,295.61 L 189.90,297.80 L 190.82,298.77 L 192.72,300.64 L 193.76,301.43 L 195.89,302.94 L 197.03,303.55 L 199.37,304.68 L 200.60,305.10 L 203.12,305.83 L 204.43,306.04 L 207.10,306.35 L 208.48,306.34 L 213.78,305.87 L 215.48,305.56 L 216.21,305.38 L 217.58,304.99 L 218.07,304.78 L 221.90,302.64 L 224.43,300.77 L 225.61,299.68 L 227.88,297.43 L 228.84,296.23 L 230.62,293.80 L 231.25,292.59 L 232.22,290.24 L 232.73,288.48 L 232.91,287.53 L 233.47,283.58 L 233.47,281.52 L 233.30,277.41 L 232.93,275.52 L 232.52,273.67 L 232.24,272.82 L 231.65,271.20 L 231.28,270.50 L 228.19,265.82 L 225.75,263.15 L 224.36,262.05 L 221.50,260.02 L 219.93,259.24 L 216.72,257.85 L 215.00,257.41 L 211.52,256.69 L 209.70,256.59 L 206.01,256.56 L 204.13,256.81 L 200.33,257.49 L 198.41,258.11 L 194.57,259.52 L 192.66,260.50 L 190.55,261.52 L 189.29,262.06 L 188.72,262.26 L 186.59,262.85 L 185.70,262.87 L 184.03,262.71 L 183.30,262.34 L 181.87,261.43 L 181.17,260.69 L 180.23,259.53 L 179.75,258.70 L 179.58,258.17 L 179.29,257.02 L 179.23,256.26 L 179.15,254.58 L 179.20,253.47 L 179.34,251.04 L 179.49,249.47 L 179.66,247.83 L 179.77,246.91 L 180.00,245.00 L 180.13,243.92 L 180.42,241.71 L 180.59,240.47 L 180.93,237.92 L 181.13,236.51 L 181.54,233.60 L 181.76,231.99 L 182.23,228.69 L 182.49,226.89 L 183.07,222.86 L 183.43,220.40 L 183.59,219.29 L 183.91,217.13 L 184.06,216.15 L 184.35,214.26 L 184.48,213.41 L 184.99,210.25 L 185.21,209.00 L 185.65,206.70 L 185.85,205.81 L 186.24,204.20 L 186.44,203.59 L 186.84,202.50 L 187.05,202.09 L 187.95,200.78 L 188.55,200.25 L 190.41,198.98 L 191.20,198.69 L 191.72,198.58 L 192.85,198.38 L 193.61,198.31 L 195.25,198.18 L 196.32,198.14 L 198.64,198.07 L 200.12,198.05 L 203.28,198.01 L 205.23,198.01 L 207.25,198.00 L 208.36,198.00 L 210.66,198.00 L 211.92,198.00 M 368.50,282.00 L 365.76,282.31 L 364.06,282.81 L 363.29,283.21 L 361.78,284.09 L 361.11,284.65 L 359.81,285.87 L 359.25,286.60 L 358.19,288.14 L 357.76,289.01 L 356.96,290.83 L 356.66,291.84 L 356.14,293.91 L 356.00,295.03 L 355.78,297.34 L 355.79,298.56 L 356.52,303.77 L 357.63,306.99 L 358.45,308.39 L 360.25,311.03 L 361.36,312.03 L 362.49,312.98 L 363.10,313.36 L 364.34,314.05 L 365.00,314.29 L 366.38,314.73 L 367.06,314.83 L 368.42,314.98 L 369.08,314.95 L 371.66,314.58 L 372.86,314.05 L 375.16,312.77 L 376.17,311.85 L 378.09,309.83 L 378.87,308.61 L 380.29,306.02 L 380.77,304.58 L 381.58,301.61 L 381.72,300.04 L 381.81,296.85 L 381.55,295.23 L 380.82,292.00 L 380.10,290.42 L 377.94,286.72 L 376.26,284.79 L 375.30,284.09 L 373.29,282.87 L 372.16,282.52 L 369.81,282.00 M 295.86,189.92 L 298.56,190.09 L 299.89,190.34 L 302.55,190.94 L 303.85,191.40 L 306.43,192.44 L 307.67,193.12 L 310.12,194.60 L 311.29,195.51 L 313.56,197.44 L 314.62,198.58 L 316.69,200.96 L 317.62,202.33 L 319.42,205.17 L 320.21,206.77 L 321.20,208.83 L 321.74,210.05 L 321.97,210.60 L 322.73,212.71 L 322.96,213.76 L 323.32,215.91 L 323.39,217.22 L 323.45,218.59 L 323.46,219.38 L 323.48,221.02 L 323.48,221.98 L 323.36,226.51 L 323.16,228.90 L 322.97,229.93 L 322.52,231.90 L 322.18,232.88 L 321.40,234.86 L 320.87,236.00 L 318.18,240.70 L 316.03,243.61 L 314.81,244.91 L 312.29,247.40 L 310.94,248.45 L 308.17,250.41 L 306.72,251.14 L 303.85,252.34 L 302.14,252.76 L 298.57,253.45 L 296.72,253.60 L 293.03,253.74 L 291.35,253.59 L 289.70,253.41 L 288.95,253.26 L 287.50,252.91 L 286.89,252.68 L 281.63,250.07 L 278.44,247.84 L 277.03,246.52 L 274.31,243.73 L 273.15,242.16 L 270.97,238.92 L 270.09,237.16 L 268.48,233.57 L 267.91,231.68 L 266.92,227.84 L 266.69,225.87 L 266.39,221.89 L 266.51,219.88 L 266.94,215.86 L 267.45,213.87 L 269.10,208.86 L 270.47,205.80 L 271.28,204.41 L 272.98,201.74 L 273.93,200.54 L 275.90,198.25 L 276.98,197.26 L 279.18,195.36 L 280.36,194.57 L 282.75,193.07 L 284.01,192.48 L 286.54,191.39 L 287.85,191.00 L 290.48,190.33 L 291.82,190.15 L 294.51,189.89 M 295.10,205.00 L 291.91,205.65 L 289.77,206.66 L 288.77,207.40 L 286.83,209.03 L 286.01,210.02 L 284.49,212.11 L 283.96,213.27 L 282.84,216.32 L 282.33,218.38 L 282.19,219.40 L 282.00,221.44 L 282.02,222.44 L 282.14,224.44 L 282.32,225.40 L 282.74,227.31 L 283.07,228.22 L 283.79,230.01 L 284.26,230.85 L 285.27,232.48 L 285.89,233.22 L 287.19,234.66 L 287.94,235.30 L 289.98,236.71 L 291.17,237.16 L 293.64,237.90 L 294.91,238.00 L 297.44,238.03 L 298.62,237.77 L 300.88,237.07 L 301.79,236.43 L 303.81,234.54 L 304.97,232.96 L 305.46,232.04 L 306.37,230.13 L 306.72,229.08 L 307.36,226.95 L 307.56,225.83 L 307.90,223.57 L 307.96,222.43 L 307.98,220.16 L 307.87,219.06 L 307.56,216.87 L 307.28,215.85 L 306.62,213.87 L 306.15,212.98 L 303.98,209.97 L 302.15,208.15 L 301.13,207.42 L 299.05,206.08 L 298.02,205.66 L 295.99,205.00 Z" fill="rgba(219,235,254,1)"/>
<path d="M 278.53,18.50 L 291.84,32.16 L 289.98,30.39 L 288.61,29.05 L 280.47,21.10 L 266.99,28.11 L 258.32,32.87 L 252.40,36.36 L 249.41,38.23 L 243.43,42.05 L 240.47,44.04 L 234.59,48.07 L 231.74,50.12 L 226.11,54.25 L 223.45,56.31 L 218.24,60.43 L 215.84,62.45 L 211.19,66.44 L 209.13,68.35 L 205.20,72.11 L 203.56,73.86 L 201.21,76.02 L 199.74,76.76 L 198.84,76.80 L 197.89,76.78 L 197.33,76.68 L 196.16,76.44 L 195.45,76.24 L 193.96,75.78 L 193.07,75.47 L 191.19,74.80 L 190.07,74.39 L 186.68,73.19 L 184.80,72.62 L 184.01,72.47 L 182.51,72.25 L 181.87,72.30 L 180.65,72.50 L 180.11,72.77 L 179.05,73.44 L 178.55,73.97 L 177.55,75.16 L 177.03,75.98 L 175.98,77.75 L 175.39,78.87 L 174.17,81.28 L 173.46,82.74 L 170.89,87.71 L 169.26,90.49 L 168.43,91.70 L 166.72,94.04 L 165.76,95.15 L 163.77,97.35 L 162.59,98.50 L 158.64,101.99 L 155.83,104.12 L 154.34,105.07 L 151.33,106.91 L 149.75,107.72 L 146.55,109.26 L 144.89,109.92 L 141.54,111.16 L 139.81,111.66 L 136.32,112.59 L 134.54,112.93 L 130.94,113.53 L 129.11,113.71 L 125.44,113.98 L 123.58,113.98 L 120.81,114.07 L 119.26,114.22 L 118.62,114.35 L 117.42,114.66 L 116.94,114.90 L 116.05,115.42 L 115.71,115.77 L 115.09,116.55 L 114.86,117.04 L 114.47,118.11 L 114.34,118.78 L 114.12,120.19 L 114.07,121.04 L 113.99,122.84 L 113.99,123.90 L 113.71,129.33 L 113.27,132.91 L 112.93,134.68 L 112.15,138.19 L 111.65,139.91 L 110.55,143.31 L 109.89,144.97 L 108.49,148.24 L 107.68,149.81 L 105.99,152.92 L 105.03,154.40 L 103.06,157.31 L 101.97,158.68 L 99.72,161.36 L 98.50,162.60 L 95.15,165.76 L 92.92,167.59 L 91.70,168.43 L 89.18,170.07 L 87.71,170.89 L 84.61,172.55 L 82.74,173.46 L 78.91,175.38 L 76.84,176.49 L 76.03,177.00 L 74.56,178.00 L 74.03,178.49 L 73.11,179.47 L 72.83,179.99 L 72.39,181.06 L 72.33,181.66 L 72.33,182.92 L 72.47,183.65 L 72.84,185.19 L 73.16,186.11 L 73.86,188.04 L 74.31,189.19 L 76.89,197.06 L 78.05,202.23 L 78.35,204.77 L 78.77,209.83 L 78.70,212.31 L 78.38,217.24 L 77.95,219.65 L 76.90,224.42 L 76.10,226.75 L 74.32,231.35 L 73.15,233.58 L 70.64,237.99 L 69.12,240.12 L 65.88,244.33 L 64.00,246.34 L 61.34,249.31 L 59.95,251.03 L 59.44,251.80 L 58.55,253.29 L 58.30,253.98 L 57.92,255.34 L 57.92,256.00 L 58.05,257.33 L 58.30,258.03 L 58.94,259.44 L 59.44,260.21 L 60.58,261.80 L 61.34,262.70 L 62.99,264.58 L 64.00,265.66 L 69.13,271.89 L 72.01,276.20 L 73.18,278.43 L 75.32,282.94 L 76.12,285.26 L 77.54,289.95 L 77.98,292.35 L 78.66,297.20 L 78.72,299.67 L 78.67,304.67 L 78.37,307.21 L 77.57,312.33 L 76.90,314.93 L 75.36,320.16 L 74.31,322.81 L 73.16,325.89 L 72.61,327.62 L 72.47,328.35 L 72.28,329.74 L 72.33,330.34 L 72.55,331.49 L 72.83,332.01 L 73.50,333.02 L 74.03,333.51 L 75.23,334.49 L 76.03,335.00 L 77.80,336.04 L 78.91,336.62 L 81.30,337.83 L 82.74,338.54 L 87.71,341.11 L 90.48,342.74 L 91.70,343.57 L 94.04,345.28 L 95.15,346.24 L 97.35,348.23 L 98.50,349.40 L 101.97,353.32 L 104.08,356.12 L 105.03,357.60 L 106.87,360.61 L 107.68,362.19 L 109.23,365.38 L 109.89,367.03 L 111.14,370.38 L 111.65,372.09 L 112.58,375.56 L 112.93,377.32 L 113.53,380.87 L 113.71,382.67 L 113.98,386.28 L 113.99,388.10 L 114.06,391.08 L 114.20,392.73 L 114.35,393.40 L 114.68,394.66 L 114.95,395.16 L 115.55,396.08 L 115.98,396.43 L 116.93,397.08 L 117.56,397.32 L 118.92,397.75 L 119.78,397.90 L 121.63,398.18 L 122.76,398.29 L 125.17,398.48 L 126.61,398.56 L 134.69,399.43 L 139.67,400.40 L 141.99,401.10 L 146.50,402.64 L 148.62,403.62 L 152.76,405.74 L 154.71,407.02 L 160.50,411.38 L 163.87,414.56 L 165.38,416.37 L 168.31,420.16 L 169.68,422.37 L 171.03,424.63 L 171.70,425.86 L 173.03,428.39 L 173.70,429.76 L 175.55,433.45 L 176.63,435.43 L 177.13,436.21 L 178.12,437.62 L 178.61,438.12 L 179.61,439.00 L 180.15,439.26 L 181.27,439.66 L 181.91,439.70 L 183.25,439.68 L 184.04,439.52 L 185.71,439.12 L 186.70,438.80 L 188.81,438.08 L 190.07,437.61 L 192.93,436.60 L 194.73,436.00 L 195.51,435.77 L 196.98,435.34 L 197.52,435.21 L 198.47,435.00 L 198.69,435.00 L 199.88,435.55 L 201.15,436.42 L 201.96,437.05 L 203.67,438.43 L 204.63,439.26 L 206.59,441.01 L 207.60,441.97 L 220.95,453.73 L 230.39,461.17 L 235.36,464.67 L 245.50,471.56 L 250.83,474.79 L 261.66,481.11 L 267.33,484.06 L 280.47,490.90 L 288.61,482.95 L 291.25,480.41 L 278.51,493.52 L 277.46,494.59 L 275.55,496.56 L 274.62,497.51 L 272.92,499.25 L 272.10,500.09 L 270.60,501.61 L 269.87,502.34 L 268.56,503.66 L 267.28,504.93 L 265.22,506.93 L 264.25,507.84 L 262.71,509.21 L 261.99,509.83 L 260.83,510.70 L 260.28,511.07 L 259.38,511.54 L 257.00,511.99 L 256.04,511.98 L 253.94,511.65 L 253.44,511.55 L 252.55,511.31 L 252.14,511.18 L 251.50,510.90 L 251.36,510.83 L 250.75,510.33 L 250.39,510.03 L 249.38,509.12 L 248.83,508.61 L 247.47,507.33 L 246.75,506.65 L 245.09,505.04 L 244.23,504.21 L 242.33,502.33 L 241.35,501.37 L 239.25,499.28 L 232.49,492.43 L 231.44,491.35 L 229.52,489.39 L 228.59,488.44 L 226.91,486.73 L 226.10,485.90 L 224.63,484.42 L 223.93,483.70 L 222.65,482.43 L 221.43,481.21 L 219.47,479.34 L 218.56,478.48 L 217.11,477.25 L 216.44,476.70 L 215.35,475.97 L 214.83,475.65 L 213.93,475.30 L 211.16,475.00 L 210.76,475.00 L 209.80,475.11 L 209.29,475.18 L 208.08,475.46 L 207.44,475.61 L 205.94,476.07 L 205.15,476.32 L 203.30,476.96 L 202.33,477.32 L 200.09,478.18 L 198.92,478.64 L 196.23,479.74 L 194.83,480.32 L 191.65,481.67 L 186.28,484.00 L 184.51,484.77 L 181.27,486.17 L 179.70,486.84 L 176.86,488.02 L 175.49,488.59 L 173.03,489.57 L 171.85,490.04 L 169.75,490.82 L 168.75,491.19 L 167.02,491.79 L 166.20,492.06 L 164.81,492.47 L 164.15,492.65 L 163.10,492.87 L 161.87,493.00 L 161.03,493.00 L 159.55,492.83 L 158.84,492.70 L 157.54,492.17 L 156.90,491.85 L 155.69,490.82 L 155.08,490.23 L 153.86,488.57 L 153.25,487.65 L 151.93,485.23 L 151.25,483.90 L 149.74,480.57 L 149.35,479.67 L 148.51,477.68 L 148.08,476.66 L 147.17,474.39 L 146.70,473.23 L 145.69,470.68 L 144.06,466.50 L 143.29,464.51 L 141.91,461.00 L 141.24,459.31 L 140.05,456.37 L 139.47,454.97 L 138.44,452.54 L 137.94,451.39 L 137.05,449.44 L 136.62,448.52 L 135.84,446.99 L 135.46,446.27 L 134.78,445.10 L 134.45,444.56 L 133.83,443.72 L 132.95,442.75 L 129.97,440.00 L 78.80,440.00 L 75.40,436.60 L 72.00,433.20 L 72.00,407.68 L 72.00,382.15 L 69.56,379.25 L 69.32,378.97 L 68.67,378.39 L 68.31,378.10 L 67.37,377.46 L 66.86,377.14 L 65.56,376.42 L 64.87,376.05 L 63.16,375.23 L 62.25,374.80 L 60.07,373.84 L 58.92,373.34 L 56.21,372.21 L 54.78,371.62 L 51.49,370.31 L 45.81,368.08 L 44.32,367.50 L 41.58,366.43 L 40.25,365.90 L 37.82,364.93 L 36.64,364.45 L 34.49,363.56 L 33.45,363.13 L 31.57,362.31 L 29.75,361.52 L 26.86,360.10 L 25.52,359.42 L 23.47,358.15 L 22.54,357.53 L 21.20,356.32 L 20.61,355.72 L 19.84,354.47 L 19.51,353.84 L 19.17,352.47 L 19.00,350.16 L 19.00,349.84 L 19.13,348.95 L 19.22,348.46 L 19.54,347.25 L 19.72,346.60 L 20.22,345.04 L 20.49,344.22 L 21.18,342.32 L 21.55,341.32 L 22.43,339.06 L 22.90,337.89 L 23.98,335.26 L 24.55,333.89 L 25.83,330.88 L 27.98,325.93 L 28.84,323.97 L 30.35,320.50 L 31.06,318.83 L 32.29,315.91 L 32.88,314.51 L 33.85,312.06 L 34.31,310.90 L 35.06,308.88 L 35.41,307.92 L 35.94,306.27 L 36.19,305.49 L 36.54,304.15 L 36.69,303.51 L 36.87,302.42 L 36.98,301.00 L 37.01,296.50 L 19.57,279.50 L 17.17,277.16 L 12.71,272.73 L 11.64,271.66 L 9.65,269.64 L 8.68,268.65 L 6.94,266.85 L 6.10,265.98 L 4.64,264.45 L 3.96,263.72 L 2.85,262.51 L 2.34,261.94 L 1.63,261.10 L 1.06,260.32 L 0.77,259.72 L 0.31,257.80 L 0.00,254.83 L 0.00,254.46 L 0.11,253.72 L 0.20,253.35 L 0.55,252.52 L 0.77,252.08 L 1.47,251.05 L 1.87,250.49 L 3.01,249.13 L 3.65,248.39 L 5.34,246.59 L 6.26,245.62 L 8.59,243.26 L 9.22,242.62 L 10.62,241.24 L 11.34,240.52 L 12.93,238.95 L 13.75,238.15 L 15.55,236.39 L 18.50,233.51 L 37.00,215.50 L 36.98,211.00 L 36.98,210.57 L 36.87,209.58 L 36.80,209.06 L 36.54,207.85 L 36.39,207.22 L 35.95,205.73 L 35.70,204.95 L 35.06,203.12 L 34.72,202.16 L 33.86,199.94 L 33.40,198.78 L 32.29,196.10 L 31.71,194.70 L 30.35,191.51 L 27.98,186.07 L 27.35,184.63 L 26.19,181.98 L 25.63,180.69 L 24.62,178.31 L 24.13,177.16 L 23.25,175.05 L 22.83,174.03 L 22.09,172.16 L 21.38,170.34 L 20.35,167.35 L 19.90,165.95 L 19.35,163.66 L 19.14,162.59 L 19.04,160.83 L 19.05,160.01 L 19.37,158.63 L 19.58,157.97 L 20.29,156.80 L 21.75,155.10 L 21.98,154.87 L 22.73,154.32 L 23.15,154.04 L 24.27,153.38 L 24.88,153.03 L 26.39,152.26 L 27.20,151.86 L 29.09,150.97 L 30.09,150.51 L 32.38,149.50 L 33.57,148.98 L 36.26,147.85 L 37.65,147.27 L 40.73,146.02 L 45.81,144.00 L 47.86,143.20 L 51.46,141.76 L 53.19,141.07 L 56.18,139.84 L 57.60,139.25 L 60.04,138.20 L 61.19,137.70 L 63.13,136.80 L 64.05,136.37 L 65.55,135.59 L 66.25,135.22 L 67.36,134.54 L 67.88,134.21 L 68.67,133.61 L 69.56,132.75 L 72.00,129.85 L 72.00,104.32 L 72.00,78.80 L 75.40,75.40 L 78.80,72.00 L 104.32,72.00 L 129.85,72.00 L 132.75,69.56 L 133.03,69.32 L 133.61,68.67 L 133.90,68.31 L 134.54,67.37 L 134.86,66.86 L 135.58,65.56 L 135.95,64.87 L 136.77,63.16 L 137.20,62.25 L 138.16,60.07 L 138.66,58.92 L 139.79,56.21 L 140.38,54.78 L 141.69,51.49 L 143.92,45.81 L 144.50,44.32 L 145.57,41.59 L 146.10,40.26 L 147.07,37.82 L 147.55,36.64 L 148.44,34.49 L 148.87,33.45 L 149.68,31.58 L 150.48,29.76 L 151.90,26.86 L 152.58,25.52 L 153.85,23.48 L 154.47,22.54 L 155.67,21.20 L 156.28,20.61 L 157.52,19.84 L 158.15,19.51 L 159.52,19.18 L 161.82,19.00 L 162.14,19.00 L 163.03,19.14 L 163.52,19.23 L 164.75,19.55 L 165.40,19.73 L 166.98,20.23 L 167.81,20.51 L 169.73,21.20 L 170.74,21.58 L 173.02,22.46 L 174.21,22.93 L 176.86,24.01 L 178.23,24.58 L 181.26,25.86 L 186.23,28.00 L 188.16,28.84 L 191.61,30.33 L 193.27,31.03 L 196.20,32.26 L 197.60,32.84 L 200.06,33.82 L 201.24,34.28 L 203.28,35.03 L 204.26,35.39 L 205.93,35.93 L 206.72,36.18 L 208.07,36.54 L 208.71,36.70 L 209.79,36.89 L 211.16,37.00 L 212.23,37.00 L 213.94,36.69 L 214.39,36.54 L 215.39,35.99 L 215.93,35.66 L 217.23,34.63 L 217.93,34.05 L 219.70,32.42 L 220.17,31.97 L 221.25,30.93 L 221.81,30.38 L 223.06,29.14 L 223.71,28.49 L 225.16,27.02 L 225.91,26.26 L 227.57,24.57 L 228.43,23.69 L 230.34,21.73 L 233.49,18.50 L 251.50,0.00 L 256.00,-0.00 L 260.50,-0.01 M 354.14,492.36 L 353.57,492.60 L 352.30,492.85 L 351.63,492.94 L 351.54,492.94 L 352.16,492.86 L 353.50,492.61 L 354.09,492.37 L 355.10,491.89 M 355.25,491.81 L 355.78,491.44 L 355.25,491.81 M 303.72,475.29 L 305.17,475.67 L 306.68,476.10 L 307.51,476.38 L 309.24,476.98 L 310.20,477.35 L 312.18,478.13 L 313.28,478.59 L 315.56,479.55 L 316.35,479.89 L 315.91,479.71 L 314.51,479.13 L 312.06,478.15 L 310.90,477.69 L 308.88,476.94 L 307.92,476.59 L 306.28,476.06 L 305.49,475.81 L 304.15,475.46 L 303.52,475.31 L 302.98,475.22 M 436.60,75.40 L 440.00,78.80 L 440.00,91.70 L 440.00,78.80 L 436.60,75.40 L 433.20,72.00 L 420.41,72.00 L 433.20,72.00 M 318.38,31.29 L 317.09,31.84 L 314.61,32.90 L 313.49,33.36 L 311.32,34.24 L 310.35,34.61 L 308.47,35.31 L 307.62,35.59 L 305.99,36.11 L 305.25,36.31 L 302.49,36.90 L 302.07,36.91 L 302.44,36.87 L 302.96,36.80 L 304.17,36.53 L 304.80,36.38 L 306.29,35.94 L 307.08,35.69 L 308.90,35.05 L 309.86,34.70 L 312.09,33.84 L 313.25,33.38 L 315.93,32.28 L 317.33,31.70 L 320.51,30.34 L 325.93,27.98 L 321.22,30.05 M 433.20,440.00 L 433.20,440.00 L 436.60,436.60 Z" fill="rgba(251,198,0,1)"/>
<path d="M 198.97,435.00 L 200.05,435.55 L 201.26,436.42 L 202.04,437.05 L 203.71,438.43 L 204.65,439.26 L 206.59,441.01 L 204.63,439.26 L 203.67,438.43 L 201.96,437.05 L 201.15,436.42 L 199.88,435.55 L 198.69,435.00 M 184.01,72.47 L 184.80,72.62 L 186.68,73.19 L 190.07,74.39 L 191.19,74.80 L 193.07,75.47 L 193.96,75.78 L 195.45,76.24 L 196.16,76.44 L 197.33,76.68 L 197.89,76.78 L 198.84,76.80 L 199.74,76.76 L 200.94,76.15 L 200.28,76.59 L 199.95,76.75 L 199.35,77.00 L 199.15,77.00 L 198.28,77.18 L 198.11,77.45 L 198.28,77.62 L 198.27,77.90 L 198.11,78.25 L 197.97,78.49 L 197.24,79.61 L 196.66,80.39 L 195.37,82.07 L 194.56,83.05 L 192.85,85.10 L 191.89,86.19 L 184.31,95.21 L 179.44,101.41 L 177.11,104.60 L 172.52,111.02 L 170.34,114.31 L 166.04,120.93 L 164.01,124.30 L 160.02,131.09 L 158.14,134.53 L 154.48,141.46 L 152.77,144.96 L 149.45,152.00 L 147.92,155.55 L 144.96,162.67 L 143.62,166.26 L 142.41,169.67 L 141.46,172.48 L 140.94,174.06 L 138.79,180.77 L 137.77,184.13 L 136.76,187.44 L 136.31,188.96 L 135.45,191.89 L 135.11,193.11 L 134.49,195.37 L 134.30,196.15 L 134.13,196.87 L 134.08,197.13 L 134.00,197.57 L 134.00,197.67 L 134.60,197.80 L 135.53,197.87 L 136.22,197.90 L 137.71,197.96 L 138.62,197.97 L 140.51,198.00 L 141.55,198.00 L 143.80,198.02 L 145.08,198.05 L 145.62,198.08 L 147.54,198.24 L 148.24,198.41 L 149.49,198.82 L 149.86,199.06 L 149.57,198.90 L 148.85,198.63 L 148.45,198.51 L 147.46,198.34 L 146.92,198.26 L 145.53,198.15 L 144.77,198.10 L 142.87,198.05 L 141.85,198.03 L 139.32,198.01 L 134.68,198.00 L 133.05,198.00 L 130.29,198.01 L 129.00,198.02 L 126.84,198.06 L 125.83,198.08 L 124.18,198.16 L 123.40,198.20 L 122.15,198.33 L 121.57,198.40 L 120.63,198.59 L 120.19,198.69 L 119.47,198.96 L 117.63,200.07 L 116.81,200.72 L 115.72,202.46 L 115.28,203.37 L 114.96,205.39 L 114.90,206.41 L 115.38,208.40 L 117.00,211.00 L 117.43,211.43 L 118.37,212.04 L 118.89,212.31 L 120.33,212.64 L 120.74,212.72 L 121.73,212.82 L 122.25,212.87 L 123.50,212.93 L 124.16,212.96 L 125.73,212.98 L 128.50,213.00 L 138.00,213.00 L 128.75,213.19 L 126.63,213.24 L 125.46,213.28 L 124.99,213.29 L 124.13,213.33 L 123.82,213.35 L 123.28,213.40 L 123.13,213.42 L 122.90,213.46 L 122.90,213.49 L 122.99,213.54 L 123.15,213.56 L 123.55,213.62 L 123.87,213.65 L 124.58,213.70 L 125.05,213.73 L 130.60,214.09 L 129.21,224.79 L 128.57,231.28 L 128.23,236.26 L 128.11,238.98 L 127.90,244.55 L 127.85,247.47 L 127.77,253.38 L 127.78,256.37 L 127.83,262.35 L 127.90,265.27 L 128.07,271.05 L 128.21,273.78 L 128.51,279.10 L 128.71,281.49 L 129.13,286.07 L 129.39,288.00 L 132.68,307.25 L 135.54,319.84 L 137.29,326.00 L 141.02,338.23 L 143.21,344.20 L 147.81,356.05 L 150.43,361.83 L 155.87,373.27 L 158.91,378.83 L 165.19,389.84 L 168.65,395.17 L 175.76,405.72 L 179.62,410.82 L 187.55,420.88 L 191.81,425.72 L 194.52,428.89 L 196.05,430.80 L 196.64,431.58 L 197.68,433.03 L 197.97,433.51 L 198.21,433.95 L 198.26,434.09 L 198.33,434.34 L 198.28,434.38 L 198.23,434.82 L 198.61,435.00 L 198.47,435.00 L 197.52,435.21 L 196.98,435.34 L 195.51,435.77 L 194.73,436.00 L 192.93,436.60 L 190.07,437.61 L 188.81,438.08 L 186.70,438.80 L 185.71,439.12 L 184.04,439.52 L 183.25,439.68 L 181.91,439.70 L 181.27,439.66 L 180.15,439.26 L 179.61,439.00 L 178.61,438.12 L 178.12,437.62 L 177.13,436.21 L 176.63,435.43 L 175.55,433.45 L 173.70,429.76 L 173.03,428.39 L 171.70,425.86 L 171.03,424.63 L 169.68,422.37 L 168.31,420.16 L 165.38,416.37 L 163.87,414.56 L 160.50,411.38 L 154.71,407.02 L 152.76,405.74 L 148.62,403.62 L 146.50,402.64 L 141.99,401.10 L 139.67,400.40 L 134.69,399.43 L 126.61,398.56 L 125.17,398.48 L 122.76,398.29 L 121.63,398.18 L 119.78,397.90 L 118.92,397.75 L 117.56,397.32 L 116.93,397.08 L 115.98,396.43 L 115.55,396.08 L 114.95,395.16 L 114.68,394.66 L 114.35,393.40 L 114.20,392.73 L 114.06,391.08 L 113.99,388.10 L 113.98,386.28 L 113.71,382.67 L 113.53,380.87 L 112.93,377.32 L 112.58,375.56 L 111.65,372.09 L 111.14,370.38 L 109.89,367.03 L 109.23,365.38 L 107.68,362.19 L 106.87,360.61 L 105.03,357.60 L 104.08,356.12 L 101.97,353.32 L 98.50,349.40 L 97.35,348.23 L 95.15,346.24 L 94.04,345.28 L 91.70,343.57 L 90.48,342.74 L 87.71,341.11 L 82.74,338.54 L 81.30,337.83 L 78.91,336.62 L 77.80,336.04 L 76.03,335.00 L 75.23,334.49 L 74.03,333.51 L 73.50,333.02 L 72.83,332.01 L 72.55,331.49 L 72.33,330.34 L 72.28,329.74 L 72.47,328.35 L 72.61,327.62 L 73.16,325.89 L 74.31,322.81 L 75.36,320.16 L 76.90,314.93 L 77.57,312.33 L 78.37,307.21 L 78.67,304.67 L 78.72,299.67 L 78.66,297.20 L 77.98,292.35 L 77.54,289.95 L 76.12,285.26 L 75.32,282.94 L 73.18,278.43 L 72.01,276.20 L 69.13,271.89 L 64.00,265.66 L 62.99,264.58 L 61.34,262.70 L 60.58,261.80 L 59.44,260.21 L 58.94,259.44 L 58.30,258.03 L 58.05,257.33 L 57.92,256.00 L 57.92,255.34 L 58.30,253.98 L 58.55,253.29 L 59.44,251.80 L 59.95,251.03 L 61.34,249.31 L 64.00,246.34 L 65.88,244.33 L 69.12,240.12 L 70.64,237.99 L 73.15,233.58 L 74.32,231.35 L 76.10,226.75 L 76.90,224.42 L 77.95,219.65 L 78.38,217.24 L 78.70,212.31 L 78.77,209.83 L 78.35,204.77 L 78.05,202.23 L 76.89,197.06 L 74.31,189.19 L 73.86,188.04 L 73.16,186.11 L 72.84,185.19 L 72.47,183.65 L 72.33,182.92 L 72.33,181.66 L 72.39,181.06 L 72.83,179.99 L 73.11,179.47 L 74.03,178.49 L 74.56,178.00 L 76.03,177.00 L 76.84,176.49 L 78.91,175.38 L 82.74,173.46 L 84.61,172.55 L 87.71,170.89 L 89.18,170.07 L 91.70,168.43 L 92.92,167.59 L 95.15,165.76 L 98.50,162.60 L 99.72,161.36 L 101.97,158.68 L 103.06,157.31 L 105.03,154.40 L 105.99,152.92 L 107.68,149.81 L 108.49,148.24 L 109.89,144.97 L 110.55,143.31 L 111.65,139.91 L 112.15,138.19 L 112.93,134.68 L 113.27,132.91 L 113.71,129.33 L 113.99,123.90 L 113.99,122.84 L 114.07,121.04 L 114.12,120.19 L 114.34,118.78 L 114.47,118.11 L 114.86,117.04 L 115.09,116.55 L 115.71,115.77 L 116.05,115.42 L 116.94,114.90 L 117.42,114.66 L 118.62,114.35 L 119.26,114.22 L 120.81,114.07 L 123.58,113.98 L 125.44,113.98 L 129.11,113.71 L 130.94,113.53 L 134.54,112.93 L 136.32,112.59 L 139.81,111.66 L 141.54,111.16 L 144.89,109.92 L 146.55,109.26 L 149.75,107.72 L 151.33,106.91 L 154.34,105.07 L 155.83,104.12 L 158.64,101.99 L 162.59,98.50 L 163.77,97.35 L 165.76,95.15 L 166.72,94.04 L 168.43,91.70 L 169.26,90.49 L 170.89,87.71 L 173.46,82.74 L 174.17,81.28 L 175.39,78.87 L 175.98,77.75 L 177.03,75.98 L 177.55,75.16 L 178.55,73.97 L 179.05,73.44 L 180.11,72.77 L 180.65,72.50 L 181.87,72.30 L 182.51,72.25 M 148.91,321.43 L 148.34,321.63 L 147.21,321.97 L 146.65,322.03 L 145.51,322.09 L 144.96,322.02 L 143.86,321.80 L 143.86,321.80 L 146.30,321.92 L 147.15,321.95 L 149.00,321.32 L 149.49,321.09 M 138.22,303.52 L 138.26,305.22 L 138.39,308.17 L 138.46,309.58 L 138.64,311.96 L 138.73,313.09 L 138.97,314.98 L 139.10,315.86 L 139.40,317.30 L 139.56,317.97 L 139.75,318.48 L 139.46,317.93 L 139.05,316.69 L 138.81,315.44 L 138.72,314.53 L 138.53,312.51 L 138.46,311.14 L 138.39,309.69 L 138.36,308.87 L 138.30,307.14 L 138.27,306.17 L 138.22,304.13 L 138.20,302.99 L 138.18,301.91 M 154.00,231.68 L 154.00,202.91 L 151.55,200.45 L 154.00,202.91 M 150.01,199.15 L 150.47,199.50 L 149.88,199.07 Z" fill="rgba(255,53,129,1)"/>
<path d="M 266.64,483.70 L 261.66,481.11 L 261.66,481.11 M 235.96,465.08 L 235.36,464.67 L 235.35,464.66 M 234.08,463.77 L 230.39,461.17 L 230.34,461.13 M 220.83,453.63 L 228.75,459.88 L 220.95,453.73 L 207.60,441.97 L 207.39,441.77 M 256.95,57.55 L 257.55,57.76 L 258.77,58.30 L 259.44,58.74 L 260.83,59.74 L 261.62,60.41 L 263.27,61.86 L 264.24,62.76 L 268.02,66.10 L 270.46,68.08 L 271.67,68.96 L 274.06,70.63 L 275.26,71.35 L 277.67,72.74 L 278.90,73.34 L 281.38,74.48 L 282.67,74.97 L 285.28,75.89 L 286.65,76.27 L 289.45,76.99 L 290.95,77.29 L 294.00,77.85 L 295.64,78.08 L 302.22,78.53 L 306.67,78.37 L 308.91,78.06 L 313.43,77.28 L 315.70,76.67 L 320.27,75.28 L 322.57,74.36 L 325.72,73.17 L 327.50,72.60 L 328.25,72.45 L 329.67,72.23 L 330.29,72.28 L 331.46,72.48 L 331.99,72.74 L 333.02,73.39 L 333.51,73.91 L 334.48,75.07 L 334.99,75.86 L 336.01,77.57 L 336.57,78.66 L 337.75,80.98 L 338.42,82.39 L 340.86,87.12 L 342.44,89.83 L 343.27,91.04 L 344.97,93.39 L 345.91,94.50 L 347.88,96.72 L 349.02,97.86 L 353.11,101.55 L 356.01,103.77 L 357.54,104.77 L 360.66,106.69 L 362.30,107.53 L 365.62,109.13 L 367.35,109.81 L 370.85,111.08 L 372.67,111.60 L 376.35,112.55 L 378.26,112.90 L 382.09,113.51 L 384.07,113.70 L 388.05,113.97 L 390.10,113.98 L 392.24,114.08 L 393.46,114.26 L 393.97,114.42 L 394.93,114.81 L 395.33,115.10 L 396.08,115.75 L 396.39,116.20 L 396.98,117.18 L 397.22,117.81 L 397.68,119.18 L 397.87,120.03 L 398.25,121.85 L 398.42,122.94 L 398.75,125.27 L 398.92,126.65 L 400.13,134.34 L 400.60,136.67 L 400.83,137.63 L 401.29,139.40 L 401.49,139.98 L 403.67,145.33 L 405.37,148.78 L 406.33,150.43 L 408.33,153.69 L 409.44,155.24 L 411.73,158.29 L 412.97,159.73 L 415.52,162.55 L 416.89,163.87 L 419.69,166.43 L 421.18,167.61 L 424.21,169.91 L 425.81,170.94 L 429.05,172.94 L 430.74,173.82 L 434.09,175.62 L 435.90,176.69 L 436.60,177.20 L 437.89,178.19 L 438.35,178.69 L 439.15,179.69 L 439.38,180.23 L 439.74,181.34 L 439.77,181.96 L 439.73,183.26 L 439.57,184.02 L 439.16,185.60 L 438.83,186.53 L 438.10,188.49 L 437.62,189.65 L 435.39,196.31 L 434.33,200.90 L 434.01,203.22 L 433.54,207.85 L 433.53,210.12 L 433.66,214.63 L 433.97,216.77 L 434.75,221.34 L 435.39,224.19 L 435.77,225.54 L 436.59,228.19 L 437.08,229.46 L 438.10,231.97 L 438.70,233.19 L 439.95,235.60 L 440.68,236.79 L 442.19,239.16 L 443.05,240.35 L 444.85,242.73 L 445.87,243.95 L 447.97,246.40 L 449.15,247.67 L 451.45,250.30 L 452.78,251.98 L 453.31,252.74 L 454.26,254.17 L 454.55,254.74 L 455.00,255.75 L 455.00,256.05 L 454.58,257.31 L 453.92,258.49 L 453.43,259.19 L 452.37,260.65 L 451.72,261.44 L 450.37,263.03 L 449.62,263.82 L 445.76,268.17 L 443.49,271.06 L 442.49,272.50 L 440.59,275.40 L 439.77,276.87 L 438.23,279.81 L 437.59,281.32 L 436.39,284.35 L 435.91,285.90 L 435.05,289.05 L 434.73,290.68 L 434.18,293.98 L 434.02,295.69 L 433.77,299.18 L 433.76,301.00 L 433.92,307.04 L 434.29,310.63 L 434.63,312.37 L 435.42,315.83 L 436.01,317.67 L 437.32,321.46 L 438.20,323.64 L 439.22,326.37 L 439.68,327.93 L 439.78,328.61 L 439.90,329.89 L 439.82,330.46 L 439.55,331.56 L 439.26,332.07 L 438.56,333.06 L 438.03,333.55 L 436.85,334.51 L 436.06,335.01 L 434.35,336.04 L 433.28,336.60 L 430.99,337.76 L 429.61,338.42 L 424.88,340.86 L 422.17,342.44 L 420.96,343.27 L 418.61,344.97 L 417.50,345.91 L 415.28,347.88 L 414.14,349.02 L 410.47,353.10 L 408.24,355.99 L 407.25,357.52 L 405.33,360.64 L 404.49,362.27 L 402.89,365.58 L 402.21,367.31 L 400.93,370.81 L 400.41,372.62 L 399.46,376.29 L 399.11,378.18 L 398.49,381.99 L 398.31,383.95 L 398.03,387.90 L 398.02,389.92 L 397.91,391.99 L 397.74,393.19 L 397.59,393.71 L 397.27,394.70 L 397.05,395.11 L 396.56,395.89 L 396.25,396.21 L 395.58,396.80 L 395.17,397.03 L 394.31,397.44 L 393.80,397.59 L 392.73,397.84 L 392.12,397.91 L 390.83,398.02 L 390.10,398.02 L 381.47,398.57 L 375.99,399.45 L 373.39,400.13 L 368.30,401.68 L 365.90,402.69 L 361.22,404.88 L 359.03,406.22 L 354.78,409.04 L 352.82,410.69 L 349.01,414.14 L 347.29,416.10 L 343.96,420.16 L 342.48,422.41 L 339.64,427.07 L 338.42,429.61 L 336.60,433.29 L 335.53,435.28 L 335.04,436.06 L 334.06,437.48 L 333.58,438.00 L 332.61,438.90 L 332.09,439.18 L 331.02,439.62 L 330.41,439.69 L 329.14,439.72 L 328.40,439.59 L 326.84,439.26 L 325.91,438.98 L 323.96,438.34 L 322.80,437.93 L 319.24,436.88 L 316.58,436.29 L 315.15,436.06 L 309.18,435.29 L 306.06,435.16 L 299.82,435.07 L 296.90,435.28 L 294.03,435.55 L 292.71,435.75 L 290.14,436.19 L 289.00,436.49 L 282.46,438.66 L 278.02,440.59 L 275.84,441.76 L 271.50,444.22 L 269.45,445.62 L 265.42,448.51 L 263.59,450.07 L 261.13,452.09 L 259.71,453.13 L 259.07,453.50 L 257.84,454.14 L 257.26,454.30 L 256.12,454.52 L 255.56,454.47 L 254.42,454.26 L 253.82,453.99 L 252.60,453.35 L 251.91,452.87 L 250.50,451.78 L 249.69,451.07 L 247.99,449.54 L 247.01,448.60 L 242.43,444.67 L 239.22,442.33 L 237.56,441.30 L 234.18,439.34 L 232.44,438.51 L 228.93,436.94 L 227.13,436.30 L 223.52,435.14 L 221.69,434.71 L 218.02,433.97 L 216.17,433.76 L 212.48,433.44 L 210.63,433.45 L 206.94,433.57 L 205.12,433.81 L 199.73,434.50 L 206.51,440.94 L 204.65,439.26 L 203.71,438.43 L 202.04,437.05 L 201.26,436.42 L 200.05,435.55 L 198.97,435.00 L 198.61,435.00 L 198.23,434.82 L 198.28,434.38 L 198.33,434.34 L 198.26,434.09 L 198.21,433.95 L 197.97,433.51 L 197.68,433.03 L 196.64,431.58 L 196.05,430.80 L 194.52,428.89 L 191.81,425.72 L 187.55,420.88 L 179.62,410.82 L 175.76,405.72 L 168.65,395.17 L 165.19,389.84 L 158.91,378.83 L 155.87,373.27 L 150.43,361.83 L 147.81,356.05 L 143.21,344.20 L 141.02,338.23 L 137.29,326.00 L 135.54,319.84 L 132.68,307.25 L 129.39,288.00 L 129.13,286.07 L 128.71,281.49 L 128.51,279.10 L 128.21,273.78 L 128.07,271.05 L 127.90,265.27 L 127.83,262.35 L 127.78,256.37 L 127.77,253.38 L 127.85,247.47 L 127.90,244.55 L 128.11,238.98 L 128.23,236.26 L 128.57,231.28 L 129.21,224.79 L 130.60,214.09 L 125.05,213.73 L 124.58,213.70 L 123.87,213.65 L 123.55,213.62 L 123.15,213.56 L 122.99,213.54 L 122.90,213.49 L 122.90,213.46 L 123.13,213.42 L 123.28,213.40 L 123.82,213.35 L 124.13,213.33 L 124.99,213.29 L 125.46,213.28 L 126.63,213.24 L 128.75,213.19 L 138.00,213.00 L 138.00,266.73 L 138.00,271.69 L 138.00,274.11 L 138.01,278.57 L 138.02,280.74 L 138.03,284.73 L 138.04,286.67 L 138.06,290.21 L 138.07,291.93 L 138.09,295.05 L 138.11,296.57 L 138.14,299.30 L 138.16,300.62 L 138.20,302.99 L 138.22,304.13 L 138.27,306.17 L 138.30,307.14 L 138.36,308.87 L 138.39,309.69 L 138.46,311.14 L 138.53,312.51 L 138.72,314.53 L 138.81,315.44 L 139.05,316.69 L 139.46,317.93 L 139.77,318.53 L 140.53,319.54 L 140.93,320.01 L 141.84,320.76 L 142.31,321.10 L 143.34,321.59 L 143.86,321.80 L 144.96,322.02 L 145.51,322.09 L 146.65,322.03 L 147.21,321.97 L 148.34,321.63 L 148.91,321.43 L 150.00,320.80 L 151.55,319.55 L 154.00,317.09 L 154.00,260.00 L 154.00,202.91 L 151.55,200.45 L 151.00,199.91 L 150.01,199.15 L 149.49,198.82 L 148.24,198.41 L 147.54,198.24 L 145.62,198.08 L 145.08,198.05 L 143.80,198.02 L 141.55,198.00 L 140.51,198.00 L 138.62,197.97 L 137.71,197.96 L 136.22,197.90 L 135.53,197.87 L 134.60,197.80 L 134.00,197.67 L 134.00,197.57 L 134.08,197.13 L 134.13,196.87 L 134.30,196.15 L 134.49,195.37 L 135.11,193.11 L 135.45,191.89 L 136.31,188.96 L 136.76,187.44 L 137.77,184.13 L 138.79,180.77 L 140.94,174.06 L 141.46,172.48 L 142.41,169.67 L 143.62,166.26 L 144.96,162.67 L 147.92,155.55 L 149.45,152.00 L 152.77,144.96 L 154.48,141.46 L 158.14,134.53 L 160.02,131.09 L 164.01,124.30 L 166.04,120.93 L 170.34,114.31 L 172.52,111.02 L 177.11,104.60 L 179.44,101.41 L 184.31,95.21 L 191.89,86.19 L 192.85,85.10 L 194.56,83.05 L 195.37,82.07 L 196.66,80.39 L 197.24,79.61 L 197.97,78.49 L 198.11,78.25 L 198.27,77.90 L 198.28,77.62 L 198.11,77.45 L 198.28,77.18 L 199.15,77.00 L 199.35,77.00 L 199.95,76.75 L 200.28,76.59 L 201.05,76.08 L 203.40,74.01 L 203.19,74.22 L 199.89,77.71 L 205.48,78.37 L 210.92,78.67 L 214.57,78.53 L 216.40,78.30 L 220.06,77.73 L 221.88,77.30 L 225.49,76.31 L 227.28,75.67 L 230.82,74.29 L 232.55,73.45 L 235.98,71.68 L 237.63,70.65 L 240.91,68.50 L 242.47,67.29 L 245.55,64.78 L 247.01,63.40 L 249.77,60.85 L 251.36,59.51 L 252.06,59.01 L 253.40,58.15 L 254.01,57.89 L 255.21,57.50 L 255.79,57.48 M 366.24,266.36 L 364.60,266.50 L 361.42,267.24 L 359.86,267.69 L 356.88,269.04 L 355.42,269.78 L 352.68,271.71 L 351.35,272.74 L 348.88,275.22 L 347.69,276.53 L 345.55,279.55 L 342.73,284.67 L 342.29,285.64 L 341.64,287.45 L 341.35,288.36 L 340.96,290.34 L 340.79,291.37 L 340.61,293.85 L 340.51,298.50 L 340.51,299.48 L 340.54,301.17 L 340.55,301.98 L 340.61,303.39 L 340.68,304.75 L 341.00,306.92 L 341.20,307.95 L 341.84,309.90 L 343.29,313.16 L 344.07,314.76 L 346.10,317.79 L 347.18,319.27 L 349.69,321.97 L 351.00,323.26 L 353.86,325.47 L 358.36,328.08 L 359.77,328.72 L 363.14,329.50 L 364.88,329.81 L 368.60,329.95 L 370.46,329.94 L 374.10,329.42 L 375.87,329.08 L 379.00,327.92 L 380.47,327.26 L 383.33,325.43 L 384.73,324.44 L 387.37,322.06 L 388.65,320.81 L 390.92,318.01 L 393.76,313.50 L 394.24,312.59 L 395.03,310.54 L 395.40,309.49 L 395.98,307.22 L 396.51,304.90 L 396.94,299.89 L 397.05,297.37 L 396.61,292.37 L 396.44,291.15 L 395.94,288.81 L 394.94,285.53 L 394.54,284.47 L 393.55,282.41 L 393.02,281.39 L 391.80,279.44 L 390.53,277.53 L 387.42,274.16 L 385.80,272.57 L 382.19,270.03 L 381.26,269.46 L 379.36,268.53 L 376.46,267.45 L 374.72,266.94 L 371.27,266.42 L 369.57,266.24 M 353.20,195.25 L 352.72,195.40 L 351.85,195.85 L 350.75,196.75 L 350.70,196.82 L 350.44,197.28 L 350.29,197.56 L 349.87,198.44 L 349.64,198.92 L 349.06,200.18 L 348.75,200.86 L 348.03,202.48 L 347.65,203.33 L 346.79,205.27 L 346.35,206.28 L 345.37,208.53 L 344.86,209.69 L 343.77,212.21 L 343.21,213.50 L 342.02,216.26 L 340.81,219.08 L 338.14,225.34 L 336.77,228.55 L 333.86,235.43 L 332.38,238.92 L 329.32,246.19 L 327.78,249.85 L 324.67,257.29 L 323.11,261.01 L 320.03,268.39 L 318.51,272.06 L 315.56,279.16 L 314.11,282.66 L 311.39,289.27 L 310.07,292.48 L 307.66,298.37 L 307.09,299.78 L 306.01,302.43 L 305.49,303.73 L 304.52,306.13 L 304.05,307.29 L 303.21,309.40 L 302.81,310.42 L 302.10,312.21 L 301.77,313.07 L 301.21,314.53 L 300.95,315.21 L 300.55,316.29 L 300.37,316.79 L 300.14,317.47 L 300.00,318.03 L 300.00,318.26 L 300.16,318.90 L 300.27,319.23 L 300.61,320.00 L 302.07,322.37 L 302.69,323.15 L 304.36,324.21 L 305.24,324.65 L 307.20,325.00 L 308.19,325.08 L 310.15,324.69 L 311.11,324.40 L 312.77,323.25 L 312.83,323.20 L 313.09,322.76 L 313.24,322.49 L 313.67,321.63 L 313.90,321.16 L 314.49,319.92 L 314.80,319.25 L 315.53,317.66 L 315.92,316.81 L 316.78,314.89 L 317.23,313.88 L 318.22,311.65 L 318.73,310.50 L 319.84,307.99 L 320.40,306.71 L 321.60,303.95 L 322.82,301.14 L 325.52,294.90 L 326.90,291.69 L 329.84,284.82 L 331.33,281.33 L 334.42,274.06 L 335.97,270.40 L 339.12,262.95 L 340.69,259.23 L 343.79,251.83 L 345.33,248.16 L 348.31,241.03 L 349.77,237.52 L 352.51,230.88 L 353.85,227.65 L 356.27,221.73 L 356.85,220.31 L 357.94,217.63 L 358.47,216.33 L 359.44,213.91 L 359.91,212.73 L 360.76,210.60 L 361.17,209.57 L 361.88,207.75 L 362.22,206.88 L 362.78,205.40 L 363.04,204.70 L 363.45,203.59 L 363.63,203.08 L 363.86,202.36 L 364.00,201.76 L 364.00,201.55 L 363.84,200.97 L 363.73,200.66 L 363.39,199.93 L 361.93,197.63 L 361.30,196.83 L 359.47,195.75 L 358.50,195.30 L 356.33,194.94 L 355.25,194.85 M 210.66,198.00 L 208.36,198.00 L 207.25,198.00 L 205.23,198.01 L 203.28,198.01 L 200.12,198.05 L 198.64,198.07 L 196.32,198.14 L 195.25,198.18 L 193.61,198.31 L 192.85,198.38 L 191.72,198.58 L 191.20,198.69 L 190.41,198.98 L 188.55,200.25 L 187.95,200.78 L 187.05,202.09 L 186.84,202.50 L 186.44,203.59 L 186.24,204.20 L 185.85,205.81 L 185.65,206.70 L 185.21,209.00 L 184.99,210.25 L 184.48,213.41 L 184.35,214.26 L 184.06,216.15 L 183.91,217.13 L 183.59,219.29 L 183.43,220.40 L 183.07,222.86 L 182.49,226.89 L 182.23,228.69 L 181.76,231.99 L 181.54,233.60 L 181.13,236.51 L 180.93,237.92 L 180.59,240.47 L 180.42,241.71 L 180.13,243.92 L 180.00,245.00 L 179.77,246.91 L 179.66,247.83 L 179.49,249.47 L 179.34,251.04 L 179.20,253.47 L 179.15,254.58 L 179.23,256.26 L 179.29,257.02 L 179.58,258.17 L 179.75,258.70 L 180.23,259.53 L 181.17,260.69 L 181.87,261.43 L 183.30,262.34 L 184.03,262.71 L 185.70,262.87 L 186.59,262.85 L 188.72,262.26 L 189.29,262.06 L 190.55,261.52 L 192.66,260.50 L 194.57,259.52 L 198.41,258.11 L 200.33,257.49 L 204.13,256.81 L 206.01,256.56 L 209.70,256.59 L 211.52,256.69 L 215.00,257.41 L 216.72,257.85 L 219.93,259.24 L 221.50,260.02 L 224.36,262.05 L 225.75,263.15 L 228.19,265.82 L 231.28,270.50 L 231.65,271.20 L 232.24,272.82 L 232.52,273.67 L 232.93,275.52 L 233.30,277.41 L 233.47,281.52 L 233.47,283.58 L 232.91,287.53 L 232.73,288.48 L 232.22,290.24 L 231.25,292.59 L 230.62,293.80 L 228.84,296.23 L 227.88,297.43 L 225.61,299.68 L 224.43,300.77 L 221.90,302.64 L 218.07,304.78 L 217.58,304.99 L 216.21,305.38 L 215.48,305.56 L 213.78,305.87 L 208.48,306.34 L 207.10,306.35 L 204.43,306.04 L 203.12,305.83 L 200.60,305.10 L 199.37,304.68 L 197.03,303.55 L 195.89,302.94 L 193.76,301.43 L 192.72,300.64 L 190.82,298.77 L 189.90,297.80 L 188.27,295.61 L 187.48,294.47 L 186.13,291.96 L 184.45,287.86 L 184.13,286.90 L 183.50,285.38 L 183.18,284.68 L 182.46,283.60 L 182.09,283.09 L 181.20,282.31 L 179.56,281.33 L 178.82,280.98 L 177.72,280.54 L 177.21,280.37 L 176.34,280.29 L 175.90,280.29 L 174.96,280.58 L 173.17,281.41 L 172.20,281.91 L 170.79,283.21 L 170.18,283.92 L 169.47,285.66 L 169.21,286.60 L 169.19,288.87 L 169.90,292.94 L 170.32,294.52 L 171.52,297.59 L 172.18,299.11 L 173.82,302.04 L 174.69,303.48 L 176.72,306.22 L 177.78,307.56 L 180.15,310.06 L 181.38,311.27 L 184.04,313.49 L 185.41,314.55 L 188.33,316.43 L 189.81,317.32 L 192.93,318.82 L 197.78,320.59 L 198.75,320.87 L 200.88,321.28 L 201.97,321.46 L 204.29,321.67 L 206.64,321.84 L 211.59,321.60 L 214.07,321.39 L 218.86,320.44 L 220.02,320.16 L 222.22,319.47 L 223.29,319.11 L 225.26,318.26 L 227.12,317.39 L 230.56,315.34 L 232.22,314.27 L 235.25,311.84 L 236.72,310.58 L 239.32,307.81 L 240.56,306.38 L 242.72,303.30 L 243.74,301.73 L 245.42,298.37 L 246.20,296.66 L 247.39,293.06 L 247.92,291.23 L 248.59,287.42 L 249.00,281.50 L 249.00,279.48 L 248.59,275.56 L 248.32,273.63 L 247.39,269.92 L 246.86,268.09 L 245.42,264.61 L 244.64,262.90 L 242.71,259.68 L 241.69,258.10 L 239.29,255.17 L 238.04,253.74 L 235.19,251.13 L 233.71,249.86 L 230.43,247.59 L 225.05,244.60 L 224.28,244.24 L 222.96,243.64 L 222.32,243.35 L 221.16,242.90 L 220.03,242.47 L 217.80,241.96 L 217.20,241.86 L 215.89,241.72 L 215.20,241.65 L 213.60,241.58 L 212.76,241.54 L 210.78,241.51 L 207.25,241.50 L 205.70,241.50 L 202.88,241.46 L 201.54,241.44 L 199.31,241.35 L 198.29,241.31 L 196.90,241.19 L 196.62,241.16 L 196.25,241.10 L 196.02,241.00 L 196.02,240.97 L 196.07,240.63 L 196.10,240.43 L 196.19,239.78 L 196.24,239.42 L 196.37,238.49 L 196.44,238.00 L 196.61,236.83 L 196.79,235.60 L 197.24,232.59 L 198.00,227.50 L 198.27,225.71 L 198.76,222.39 L 199.00,220.80 L 199.39,218.10 L 199.57,216.85 L 199.81,215.07 L 199.86,214.69 L 199.93,214.17 L 199.98,213.75 L 199.98,213.70 L 200.33,213.60 L 200.56,213.55 L 201.33,213.46 L 201.76,213.41 L 202.90,213.33 L 203.52,213.29 L 204.99,213.22 L 206.53,213.15 L 210.40,213.06 L 217.00,213.00 L 218.96,213.00 L 222.24,212.99 L 223.78,212.98 L 226.32,212.95 L 227.50,212.92 L 229.41,212.85 L 230.30,212.81 L 231.68,212.69 L 232.32,212.62 L 233.31,212.44 L 233.76,212.34 L 234.46,212.09 L 236.00,211.00 L 236.74,210.26 L 237.62,208.40 L 237.96,207.44 L 238.04,205.39 L 237.98,204.38 L 237.28,202.46 L 235.37,200.07 L 234.75,199.59 L 233.41,198.93 L 233.01,198.79 L 232.01,198.56 L 231.46,198.46 L 230.04,198.31 L 229.26,198.24 L 227.27,198.14 L 226.19,198.10 L 223.48,198.05 L 222.02,198.03 L 218.44,198.01 L 217.48,198.01 L 215.38,198.00 L 211.92,198.00 M 372.16,282.52 L 373.29,282.87 L 375.30,284.09 L 376.26,284.79 L 377.94,286.72 L 380.10,290.42 L 380.82,292.00 L 381.55,295.23 L 381.81,296.85 L 381.72,300.04 L 381.58,301.61 L 380.77,304.58 L 380.29,306.02 L 378.87,308.61 L 378.09,309.83 L 376.17,311.85 L 375.16,312.77 L 372.86,314.05 L 371.66,314.58 L 369.08,314.95 L 368.42,314.98 L 367.06,314.83 L 366.38,314.73 L 365.00,314.29 L 364.34,314.05 L 363.10,313.36 L 362.49,312.98 L 361.36,312.03 L 360.25,311.03 L 358.45,308.39 L 357.63,306.99 L 356.52,303.77 L 355.79,298.56 L 355.78,297.34 L 356.00,295.03 L 356.14,293.91 L 356.66,291.84 L 356.96,290.83 L 357.76,289.01 L 358.19,288.14 L 359.25,286.60 L 359.81,285.87 L 361.11,284.65 L 361.78,284.09 L 363.29,283.21 L 364.06,282.81 L 365.76,282.31 L 368.50,282.00 L 369.81,282.00 M 291.82,190.15 L 290.48,190.33 L 287.85,191.00 L 286.54,191.39 L 284.01,192.48 L 282.75,193.07 L 280.36,194.57 L 279.18,195.36 L 276.98,197.26 L 275.90,198.25 L 273.93,200.54 L 272.98,201.74 L 271.28,204.41 L 270.47,205.80 L 269.10,208.86 L 267.45,213.87 L 266.94,215.86 L 266.51,219.88 L 266.39,221.89 L 266.69,225.87 L 266.92,227.84 L 267.91,231.68 L 268.48,233.57 L 270.09,237.16 L 270.97,238.92 L 273.15,242.16 L 274.31,243.73 L 277.03,246.52 L 278.44,247.84 L 281.63,250.07 L 286.89,252.68 L 287.50,252.91 L 288.95,253.26 L 289.70,253.41 L 291.35,253.59 L 293.03,253.74 L 296.72,253.60 L 298.57,253.45 L 302.14,252.76 L 303.85,252.34 L 306.72,251.14 L 308.17,250.41 L 310.94,248.45 L 312.29,247.40 L 314.81,244.91 L 316.03,243.61 L 318.18,240.70 L 320.87,236.00 L 321.40,234.86 L 322.18,232.88 L 322.52,231.90 L 322.97,229.93 L 323.16,228.90 L 323.36,226.51 L 323.48,221.98 L 323.48,221.02 L 323.46,219.38 L 323.45,218.59 L 323.39,217.22 L 323.32,215.91 L 322.96,213.76 L 322.73,212.71 L 321.97,210.60 L 321.74,210.05 L 321.20,208.83 L 320.21,206.77 L 319.42,205.17 L 317.62,202.33 L 316.69,200.96 L 314.62,198.58 L 313.56,197.44 L 311.29,195.51 L 310.12,194.60 L 307.67,193.12 L 306.43,192.44 L 303.85,191.40 L 302.55,190.94 L 299.89,190.34 L 298.56,190.09 L 295.86,189.92 L 294.51,189.89 M 298.02,205.66 L 299.05,206.08 L 301.13,207.42 L 302.15,208.15 L 303.98,209.97 L 306.15,212.98 L 306.62,213.87 L 307.28,215.85 L 307.56,216.87 L 307.87,219.06 L 307.98,220.16 L 307.96,222.43 L 307.90,223.57 L 307.56,225.83 L 307.36,226.95 L 306.72,229.08 L 306.37,230.13 L 305.46,232.04 L 304.97,232.96 L 303.81,234.54 L 301.79,236.43 L 300.88,237.07 L 298.62,237.77 L 297.44,238.03 L 294.91,238.00 L 293.64,237.90 L 291.17,237.16 L 289.98,236.71 L 287.94,235.30 L 287.19,234.66 L 285.89,233.22 L 285.27,232.48 L 284.26,230.85 L 283.79,230.01 L 283.07,228.22 L 282.74,227.31 L 282.32,225.40 L 282.14,224.44 L 282.02,222.44 L 282.00,221.44 L 282.19,219.40 L 282.33,218.38 L 282.84,216.32 L 283.96,213.27 L 284.49,212.11 L 286.01,210.02 L 286.83,209.03 L 288.77,207.40 L 289.77,206.66 L 291.91,205.65 L 295.10,205.00 L 295.99,205.00 M 226.17,54.22 L 223.50,56.29 L 218.27,60.43 L 215.84,62.48 L 211.12,66.54 L 209.00,68.51 L 205.03,72.30 L 205.20,72.11 L 209.13,68.35 L 211.19,66.44 L 215.84,62.45 L 218.24,60.43 L 223.45,56.31 L 226.11,54.25 L 228.82,52.27 Z" fill="rgba(254,85,149,1)"/>
<path d="M 325.50,483.93 L 323.86,483.20 L 320.88,481.88 L 319.44,481.24 L 316.82,480.10 L 315.56,479.55 L 313.28,478.59 L 312.18,478.13 L 310.20,477.35 L 309.24,476.98 L 307.51,476.38 L 306.68,476.10 L 305.17,475.67 L 303.72,475.29 L 301.31,475.06 L 300.17,475.03 L 298.17,475.49 L 297.19,475.80 L 295.30,476.95 L 294.34,477.61 L 292.26,479.44 L 288.61,482.95 L 280.47,490.90 L 267.33,484.06 L 261.63,481.09 L 250.78,474.76 L 245.44,471.52 L 235.30,464.63 L 230.31,461.11 L 220.83,453.63 L 207.34,441.72 L 199.73,434.50 L 205.12,433.81 L 206.94,433.57 L 210.63,433.45 L 212.48,433.44 L 216.17,433.76 L 218.02,433.97 L 221.69,434.71 L 223.52,435.14 L 227.13,436.30 L 228.93,436.94 L 232.44,438.51 L 234.18,439.34 L 237.56,441.30 L 239.22,442.33 L 242.43,444.67 L 247.01,448.60 L 247.99,449.54 L 249.69,451.07 L 250.50,451.78 L 251.91,452.87 L 252.60,453.35 L 253.82,453.99 L 254.42,454.26 L 255.56,454.47 L 256.12,454.52 L 257.26,454.30 L 257.84,454.14 L 259.07,453.50 L 259.71,453.13 L 261.13,452.09 L 263.59,450.07 L 265.42,448.51 L 269.45,445.62 L 271.50,444.22 L 275.84,441.76 L 278.02,440.59 L 282.46,438.66 L 289.00,436.49 L 290.14,436.19 L 292.71,435.75 L 294.03,435.55 L 296.90,435.28 L 299.82,435.07 L 306.06,435.16 L 309.18,435.29 L 315.15,436.06 L 316.58,436.29 L 319.24,436.88 L 322.80,437.93 L 323.96,438.34 L 325.91,438.98 L 326.84,439.26 L 328.40,439.59 L 329.14,439.72 L 330.41,439.69 L 331.02,439.62 L 332.09,439.18 L 332.61,438.90 L 333.58,438.00 L 334.06,437.48 L 335.04,436.06 L 335.53,435.28 L 336.60,433.29 L 338.42,429.61 L 339.64,427.07 L 342.48,422.41 L 343.96,420.16 L 347.29,416.10 L 349.01,414.14 L 352.82,410.69 L 354.78,409.04 L 359.03,406.22 L 361.22,404.88 L 365.90,402.69 L 368.30,401.68 L 373.39,400.13 L 375.99,399.45 L 381.47,398.57 L 390.10,398.02 L 390.83,398.02 L 392.12,397.91 L 392.73,397.84 L 393.80,397.59 L 394.31,397.44 L 395.17,397.03 L 395.58,396.80 L 396.25,396.21 L 396.56,395.89 L 397.05,395.11 L 397.27,394.70 L 397.59,393.71 L 397.74,393.19 L 397.91,391.99 L 398.02,389.92 L 398.03,387.90 L 398.31,383.95 L 398.49,381.99 L 399.11,378.18 L 399.46,376.29 L 400.41,372.62 L 400.93,370.81 L 402.21,367.31 L 402.89,365.58 L 404.49,362.27 L 405.33,360.64 L 407.25,357.52 L 408.24,355.99 L 410.47,353.10 L 414.14,349.02 L 415.28,347.88 L 417.50,345.91 L 418.61,344.97 L 420.96,343.27 L 422.17,342.44 L 424.88,340.86 L 429.61,338.42 L 430.99,337.76 L 433.28,336.60 L 434.35,336.04 L 436.06,335.01 L 436.85,334.51 L 438.03,333.55 L 438.56,333.06 L 439.26,332.07 L 439.55,331.56 L 439.82,330.46 L 439.90,329.89 L 439.78,328.61 L 439.68,327.93 L 439.22,326.37 L 438.20,323.64 L 437.32,321.46 L 436.01,317.67 L 435.42,315.83 L 434.63,312.37 L 434.29,310.63 L 433.92,307.04 L 433.76,301.00 L 433.77,299.18 L 434.02,295.69 L 434.18,293.98 L 434.73,290.68 L 435.05,289.05 L 435.91,285.90 L 436.39,284.35 L 437.59,281.32 L 438.23,279.81 L 439.77,276.87 L 440.59,275.40 L 442.49,272.50 L 443.49,271.06 L 445.76,268.17 L 449.62,263.82 L 450.37,263.03 L 451.72,261.44 L 452.37,260.65 L 453.43,259.19 L 453.92,258.49 L 454.58,257.31 L 455.00,256.05 L 455.00,255.75 L 454.55,254.74 L 454.26,254.17 L 453.31,252.74 L 452.78,251.98 L 451.45,250.30 L 449.15,247.67 L 447.97,246.40 L 445.87,243.95 L 444.85,242.73 L 443.05,240.35 L 442.19,239.16 L 440.68,236.79 L 439.95,235.60 L 438.70,233.19 L 438.10,231.97 L 437.08,229.46 L 436.59,228.19 L 435.77,225.54 L 435.39,224.19 L 434.75,221.34 L 433.97,216.77 L 433.66,214.63 L 433.53,210.12 L 433.54,207.85 L 434.01,203.22 L 434.33,200.90 L 435.39,196.31 L 437.62,189.65 L 438.10,188.49 L 438.83,186.53 L 439.16,185.60 L 439.57,184.02 L 439.73,183.26 L 439.77,181.96 L 439.74,181.34 L 439.38,180.23 L 439.15,179.69 L 438.35,178.69 L 437.89,178.19 L 436.60,177.20 L 435.90,176.69 L 434.09,175.62 L 430.74,173.82 L 429.05,172.94 L 425.81,170.94 L 424.21,169.91 L 421.18,167.61 L 419.69,166.43 L 416.89,163.87 L 415.52,162.55 L 412.97,159.73 L 411.73,158.29 L 409.44,155.24 L 408.33,153.69 L 406.33,150.43 L 405.37,148.78 L 403.67,145.33 L 401.49,139.98 L 401.29,139.40 L 400.83,137.63 L 400.60,136.67 L 400.13,134.34 L 398.92,126.65 L 398.75,125.27 L 398.42,122.94 L 398.25,121.85 L 397.87,120.03 L 397.68,119.18 L 397.22,117.81 L 396.98,117.18 L 396.39,116.20 L 396.08,115.75 L 395.33,115.10 L 394.93,114.81 L 393.97,114.42 L 393.46,114.26 L 392.24,114.08 L 390.10,113.98 L 388.05,113.97 L 384.07,113.70 L 382.09,113.51 L 378.26,112.90 L 376.35,112.55 L 372.67,111.60 L 370.85,111.08 L 367.35,109.81 L 365.62,109.13 L 362.30,107.53 L 360.66,106.69 L 357.54,104.77 L 356.01,103.77 L 353.11,101.55 L 349.02,97.86 L 347.88,96.72 L 345.91,94.50 L 344.97,93.39 L 343.27,91.04 L 342.44,89.83 L 340.86,87.12 L 338.42,82.39 L 337.75,80.98 L 336.57,78.66 L 336.01,77.57 L 334.99,75.86 L 334.48,75.07 L 333.51,73.91 L 333.02,73.39 L 331.99,72.74 L 331.46,72.48 L 330.29,72.28 L 329.67,72.23 L 328.25,72.45 L 327.50,72.60 L 325.72,73.17 L 322.57,74.36 L 320.27,75.28 L 315.70,76.67 L 313.43,77.28 L 308.91,78.06 L 306.67,78.37 L 302.22,78.53 L 295.64,78.08 L 294.00,77.85 L 290.95,77.29 L 289.45,76.99 L 286.65,76.27 L 285.28,75.89 L 282.67,74.97 L 281.38,74.48 L 278.90,73.34 L 277.67,72.74 L 275.26,71.35 L 274.06,70.63 L 271.67,68.96 L 270.46,68.08 L 268.02,66.10 L 264.24,62.76 L 263.27,61.86 L 261.62,60.41 L 260.83,59.74 L 259.44,58.74 L 258.77,58.30 L 257.55,57.76 L 256.95,57.55 L 255.79,57.48 L 255.21,57.50 L 254.01,57.89 L 253.40,58.15 L 252.06,59.01 L 251.36,59.51 L 249.77,60.85 L 247.01,63.40 L 245.55,64.78 L 242.47,67.29 L 240.91,68.50 L 237.63,70.65 L 235.98,71.68 L 232.55,73.45 L 230.82,74.29 L 227.28,75.67 L 225.49,76.31 L 221.88,77.30 L 220.06,77.73 L 216.40,78.30 L 214.57,78.53 L 210.92,78.67 L 205.48,78.37 L 199.89,77.71 L 203.19,74.22 L 204.94,72.39 L 209.00,68.51 L 211.12,66.54 L 215.84,62.48 L 218.27,60.43 L 223.50,56.29 L 226.17,54.22 L 231.78,50.09 L 234.62,48.04 L 240.47,44.02 L 243.42,42.04 L 249.37,38.24 L 252.35,36.37 L 258.28,32.88 L 266.99,28.11 L 280.47,21.10 L 288.61,29.05 L 289.98,30.39 L 292.26,32.56 L 293.35,33.55 L 295.30,35.05 L 296.26,35.70 L 298.17,36.51 L 299.16,36.82 L 301.34,36.93 L 302.49,36.90 L 305.25,36.31 L 305.99,36.11 L 307.62,35.59 L 308.47,35.31 L 310.35,34.61 L 311.32,34.24 L 313.49,33.36 L 314.61,32.90 L 317.09,31.84 L 318.38,31.29 L 321.22,30.05 L 325.93,27.98 L 327.68,27.21 L 330.88,25.83 L 332.44,25.16 L 335.26,23.98 L 336.62,23.42 L 339.06,22.43 L 340.24,21.97 L 342.32,21.18 L 343.31,20.81 L 345.04,20.22 L 345.86,19.94 L 347.25,19.54 L 347.90,19.36 L 348.95,19.13 L 350.16,19.00 L 351.00,19.00 L 352.47,19.17 L 353.18,19.30 L 354.48,19.84 L 355.11,20.16 L 356.32,21.19 L 356.92,21.78 L 358.14,23.44 L 358.76,24.36 L 360.08,26.79 L 360.76,28.11 L 362.26,31.44 L 362.66,32.34 L 363.49,34.33 L 363.92,35.35 L 364.84,37.61 L 365.31,38.78 L 366.31,41.33 L 367.94,45.50 L 368.71,47.49 L 370.09,51.00 L 370.76,52.69 L 371.95,55.63 L 372.53,57.03 L 373.56,59.46 L 374.06,60.61 L 374.95,62.56 L 375.38,63.48 L 376.16,65.01 L 376.54,65.73 L 377.22,66.90 L 377.55,67.44 L 378.17,68.28 L 379.05,69.25 L 382.03,72.00 L 407.62,72.00 L 433.20,72.00 L 436.60,75.40 L 440.00,78.80 L 440.00,104.32 L 440.00,129.85 L 442.44,132.75 L 442.67,133.02 L 443.33,133.61 L 443.69,133.90 L 444.64,134.54 L 445.15,134.87 L 446.45,135.59 L 447.16,135.97 L 448.87,136.80 L 449.78,137.23 L 451.96,138.20 L 453.12,138.71 L 455.82,139.84 L 457.25,140.43 L 460.54,141.76 L 466.19,144.00 L 467.98,144.70 L 471.27,146.02 L 472.86,146.66 L 475.74,147.85 L 477.13,148.43 L 479.62,149.50 L 480.81,150.02 L 482.91,150.97 L 483.90,151.43 L 485.61,152.26 L 486.41,152.66 L 487.73,153.38 L 488.34,153.72 L 489.27,154.32 L 490.25,155.10 L 490.82,155.67 L 491.71,156.80 L 492.11,157.37 L 492.63,158.63 L 492.84,159.29 L 492.96,160.83 L 492.96,161.66 L 492.65,163.66 L 492.43,164.73 L 491.65,167.35 L 491.19,168.76 L 489.91,172.16 L 489.55,173.06 L 488.75,175.05 L 488.33,176.08 L 487.38,178.31 L 486.89,179.47 L 485.81,181.98 L 484.02,186.07 L 483.17,188.01 L 481.67,191.46 L 480.96,193.12 L 479.73,196.03 L 479.15,197.43 L 478.18,199.87 L 477.71,201.04 L 476.96,203.06 L 476.62,204.02 L 476.07,205.68 L 475.83,206.47 L 475.47,207.81 L 475.32,208.45 L 475.13,209.53 L 475.02,210.93 L 475.00,215.36 L 493.51,233.43 L 512.01,251.50 L 512.01,256.00 L 512.01,260.50 L 493.50,278.53 L 475.00,296.56 L 475.02,301.03 L 475.02,301.46 L 475.13,302.44 L 475.20,302.96 L 475.47,304.17 L 475.62,304.80 L 476.06,306.29 L 476.31,307.08 L 476.95,308.90 L 477.30,309.86 L 478.16,312.09 L 478.62,313.25 L 479.72,315.93 L 480.30,317.33 L 481.66,320.51 L 484.02,325.93 L 484.65,327.37 L 485.81,330.02 L 486.37,331.31 L 487.38,333.69 L 487.87,334.84 L 488.75,336.95 L 489.17,337.97 L 489.91,339.84 L 490.62,341.66 L 491.65,344.65 L 492.10,346.05 L 492.65,348.34 L 492.86,349.41 L 492.96,351.17 L 492.95,351.99 L 492.63,353.37 L 492.42,354.03 L 491.71,355.20 L 490.25,356.90 L 490.02,357.14 L 489.28,357.68 L 488.86,357.97 L 487.75,358.62 L 487.15,358.96 L 485.66,359.72 L 484.87,360.12 L 483.00,361.00 L 482.02,361.45 L 479.76,362.44 L 478.59,362.96 L 475.94,364.07 L 474.56,364.64 L 471.52,365.87 L 466.50,367.86 L 464.52,368.63 L 461.02,370.02 L 459.35,370.69 L 456.41,371.90 L 455.00,372.48 L 452.58,373.52 L 451.43,374.02 L 449.47,374.92 L 448.55,375.36 L 447.00,376.15 L 446.28,376.53 L 445.11,377.22 L 444.57,377.55 L 443.72,378.17 L 442.75,379.05 L 440.00,382.03 L 440.00,407.62 L 440.00,433.20 L 436.60,436.60 L 433.20,440.00 L 407.62,440.00 L 382.03,440.00 L 379.01,442.75 L 378.72,443.01 L 378.13,443.70 L 377.83,444.07 L 377.20,445.01 L 376.87,445.52 L 376.17,446.77 L 375.81,447.44 L 375.03,449.05 L 374.62,449.90 L 373.72,451.91 L 373.26,452.97 L 372.23,455.43 L 371.69,456.72 L 370.51,459.68 L 368.53,464.73 L 367.98,466.13 L 366.99,468.69 L 366.51,469.93 L 365.62,472.20 L 365.18,473.31 L 364.39,475.31 L 364.01,476.28 L 363.31,478.03 L 362.62,479.72 L 361.48,482.44 L 360.94,483.70 L 360.03,485.67 L 359.60,486.58 L 358.85,487.95 L 358.49,488.58 L 357.82,489.52 L 355.78,491.44 L 355.24,491.82 L 354.09,492.37 L 353.50,492.61 L 352.16,492.86 L 351.46,492.94 L 349.82,492.86 L 348.94,492.77 L 346.87,492.32 L 345.77,492.05 L 343.15,491.20 L 341.75,490.73 L 338.46,489.46 L 336.72,488.77 L 332.64,487.05 L 331.56,486.59 L 329.25,485.59 L 328.06,485.07 Z" fill="rgba(255,228,88,1)"/>
</g>
</svg>